G04 #@! TF.FileFunction,Legend,Top*
%FSLAX46Y46*%
G04 Gerber Fmt 4.6, Leading zero omitted, Abs format (unit mm)*
G04 Created by KiCad (PCBNEW 4.0.2+e4-6225~38~ubuntu16.04.1-stable) date Sex 26 Ago 2016 11:34:32 BRT*
%MOMM*%
G01*
G04 APERTURE LIST*
%ADD10C,0.100000*%
%ADD11C,0.150000*%
%ADD12C,0.300000*%
%ADD13C,0.400000*%
G04 APERTURE END LIST*
D10*
D11*
X177002200Y-166007200D02*
X177002200Y-198007200D01*
X285002200Y-198007200D01*
X285002200Y-166007200D01*
X177002200Y-166007200D01*
D10*
D11*
X10000000Y-10000000D02*
X10000000Y-200007200D01*
X287002200Y-200007200D01*
X287002200Y-10000000D01*
X10000000Y-10000000D01*
D10*
D11*
X12000000Y-12000000D02*
X12000000Y-198007200D01*
X285002200Y-198007200D01*
X285002200Y-12000000D01*
X12000000Y-12000000D01*
D10*
D11*
X60000000Y-12000000D02*
X60000000Y-10000000D01*
D10*
D11*
X110000000Y-12000000D02*
X110000000Y-10000000D01*
D10*
D11*
X160000000Y-12000000D02*
X160000000Y-10000000D01*
D10*
D11*
X210000000Y-12000000D02*
X210000000Y-10000000D01*
D10*
D11*
X260000000Y-12000000D02*
X260000000Y-10000000D01*
D10*
D11*
X35990476Y-11588095D02*
X35247619Y-11588095D01*
X35619048Y-11588095D02*
X35619048Y-10288095D01*
X35495238Y-10473810D01*
X35371429Y-10597619D01*
X35247619Y-10659524D01*
D10*
D11*
X85247619Y-10411905D02*
X85309524Y-10350000D01*
X85433333Y-10288095D01*
X85742857Y-10288095D01*
X85866667Y-10350000D01*
X85928571Y-10411905D01*
X85990476Y-10535714D01*
X85990476Y-10659524D01*
X85928571Y-10845238D01*
X85185714Y-11588095D01*
X85990476Y-11588095D01*
D10*
D11*
X135185714Y-10288095D02*
X135990476Y-10288095D01*
X135557143Y-10783333D01*
X135742857Y-10783333D01*
X135866667Y-10845238D01*
X135928571Y-10907143D01*
X135990476Y-11030952D01*
X135990476Y-11340476D01*
X135928571Y-11464286D01*
X135866667Y-11526190D01*
X135742857Y-11588095D01*
X135371429Y-11588095D01*
X135247619Y-11526190D01*
X135185714Y-11464286D01*
D10*
D11*
X185866667Y-10721429D02*
X185866667Y-11588095D01*
X185557143Y-10226190D02*
X185247619Y-11154762D01*
X186052381Y-11154762D01*
D10*
D11*
X235928571Y-10288095D02*
X235309524Y-10288095D01*
X235247619Y-10907143D01*
X235309524Y-10845238D01*
X235433333Y-10783333D01*
X235742857Y-10783333D01*
X235866667Y-10845238D01*
X235928571Y-10907143D01*
X235990476Y-11030952D01*
X235990476Y-11340476D01*
X235928571Y-11464286D01*
X235866667Y-11526190D01*
X235742857Y-11588095D01*
X235433333Y-11588095D01*
X235309524Y-11526190D01*
X235247619Y-11464286D01*
D10*
D11*
X285866667Y-10288095D02*
X285619048Y-10288095D01*
X285495238Y-10350000D01*
X285433333Y-10411905D01*
X285309524Y-10597619D01*
X285247619Y-10845238D01*
X285247619Y-11340476D01*
X285309524Y-11464286D01*
X285371429Y-11526190D01*
X285495238Y-11588095D01*
X285742857Y-11588095D01*
X285866667Y-11526190D01*
X285928571Y-11464286D01*
X285990476Y-11340476D01*
X285990476Y-11030952D01*
X285928571Y-10907143D01*
X285866667Y-10845238D01*
X285742857Y-10783333D01*
X285495238Y-10783333D01*
X285371429Y-10845238D01*
X285309524Y-10907143D01*
X285247619Y-11030952D01*
D10*
D11*
X60000000Y-198007200D02*
X60000000Y-200007200D01*
D10*
D11*
X110000000Y-198007200D02*
X110000000Y-200007200D01*
D10*
D11*
X160000000Y-198007200D02*
X160000000Y-200007200D01*
D10*
D11*
X210000000Y-198007200D02*
X210000000Y-200007200D01*
D10*
D11*
X260000000Y-198007200D02*
X260000000Y-200007200D01*
D10*
D11*
X35990476Y-199595295D02*
X35247619Y-199595295D01*
X35619048Y-199595295D02*
X35619048Y-198295295D01*
X35495238Y-198481010D01*
X35371429Y-198604819D01*
X35247619Y-198666724D01*
D10*
D11*
X85247619Y-198419105D02*
X85309524Y-198357200D01*
X85433333Y-198295295D01*
X85742857Y-198295295D01*
X85866667Y-198357200D01*
X85928571Y-198419105D01*
X85990476Y-198542914D01*
X85990476Y-198666724D01*
X85928571Y-198852438D01*
X85185714Y-199595295D01*
X85990476Y-199595295D01*
D10*
D11*
X135185714Y-198295295D02*
X135990476Y-198295295D01*
X135557143Y-198790533D01*
X135742857Y-198790533D01*
X135866667Y-198852438D01*
X135928571Y-198914343D01*
X135990476Y-199038152D01*
X135990476Y-199347676D01*
X135928571Y-199471486D01*
X135866667Y-199533390D01*
X135742857Y-199595295D01*
X135371429Y-199595295D01*
X135247619Y-199533390D01*
X135185714Y-199471486D01*
D10*
D11*
X185866667Y-198728629D02*
X185866667Y-199595295D01*
X185557143Y-198233390D02*
X185247619Y-199161962D01*
X186052381Y-199161962D01*
D10*
D11*
X235928571Y-198295295D02*
X235309524Y-198295295D01*
X235247619Y-198914343D01*
X235309524Y-198852438D01*
X235433333Y-198790533D01*
X235742857Y-198790533D01*
X235866667Y-198852438D01*
X235928571Y-198914343D01*
X235990476Y-199038152D01*
X235990476Y-199347676D01*
X235928571Y-199471486D01*
X235866667Y-199533390D01*
X235742857Y-199595295D01*
X235433333Y-199595295D01*
X235309524Y-199533390D01*
X235247619Y-199471486D01*
D10*
D11*
X285866667Y-198295295D02*
X285619048Y-198295295D01*
X285495238Y-198357200D01*
X285433333Y-198419105D01*
X285309524Y-198604819D01*
X285247619Y-198852438D01*
X285247619Y-199347676D01*
X285309524Y-199471486D01*
X285371429Y-199533390D01*
X285495238Y-199595295D01*
X285742857Y-199595295D01*
X285866667Y-199533390D01*
X285928571Y-199471486D01*
X285990476Y-199347676D01*
X285990476Y-199038152D01*
X285928571Y-198914343D01*
X285866667Y-198852438D01*
X285742857Y-198790533D01*
X285495238Y-198790533D01*
X285371429Y-198852438D01*
X285309524Y-198914343D01*
X285247619Y-199038152D01*
D10*
D11*
X10000000Y-60000000D02*
X12000000Y-60000000D01*
D10*
D11*
X10000000Y-110000000D02*
X12000000Y-110000000D01*
D10*
D11*
X10000000Y-160000000D02*
X12000000Y-160000000D01*
D10*
D11*
X10690476Y-35216667D02*
X11309524Y-35216667D01*
X10566667Y-35588095D02*
X11000000Y-34288095D01*
X11433333Y-35588095D01*
D10*
D11*
X11092857Y-84907143D02*
X11278571Y-84969048D01*
X11340476Y-85030952D01*
X11402381Y-85154762D01*
X11402381Y-85340476D01*
X11340476Y-85464286D01*
X11278571Y-85526190D01*
X11154762Y-85588095D01*
X10659524Y-85588095D01*
X10659524Y-84288095D01*
X11092857Y-84288095D01*
X11216667Y-84350000D01*
X11278571Y-84411905D01*
X11340476Y-84535714D01*
X11340476Y-84659524D01*
X11278571Y-84783333D01*
X11216667Y-84845238D01*
X11092857Y-84907143D01*
X10659524Y-84907143D01*
D10*
D11*
X11402381Y-135464286D02*
X11340476Y-135526190D01*
X11154762Y-135588095D01*
X11030952Y-135588095D01*
X10845238Y-135526190D01*
X10721429Y-135402381D01*
X10659524Y-135278571D01*
X10597619Y-135030952D01*
X10597619Y-134845238D01*
X10659524Y-134597619D01*
X10721429Y-134473810D01*
X10845238Y-134350000D01*
X11030952Y-134288095D01*
X11154762Y-134288095D01*
X11340476Y-134350000D01*
X11402381Y-134411905D01*
D10*
D11*
X10659524Y-185588095D02*
X10659524Y-184288095D01*
X10969048Y-184288095D01*
X11154762Y-184350000D01*
X11278571Y-184473810D01*
X11340476Y-184597619D01*
X11402381Y-184845238D01*
X11402381Y-185030952D01*
X11340476Y-185278571D01*
X11278571Y-185402381D01*
X11154762Y-185526190D01*
X10969048Y-185588095D01*
X10659524Y-185588095D01*
D10*
D11*
X287002200Y-60000000D02*
X285002200Y-60000000D01*
D10*
D11*
X287002200Y-110000000D02*
X285002200Y-110000000D01*
D10*
D11*
X287002200Y-160000000D02*
X285002200Y-160000000D01*
D10*
D11*
X285692676Y-35216667D02*
X286311724Y-35216667D01*
X285568867Y-35588095D02*
X286002200Y-34288095D01*
X286435533Y-35588095D01*
D10*
D11*
X286095057Y-84907143D02*
X286280771Y-84969048D01*
X286342676Y-85030952D01*
X286404581Y-85154762D01*
X286404581Y-85340476D01*
X286342676Y-85464286D01*
X286280771Y-85526190D01*
X286156962Y-85588095D01*
X285661724Y-85588095D01*
X285661724Y-84288095D01*
X286095057Y-84288095D01*
X286218867Y-84350000D01*
X286280771Y-84411905D01*
X286342676Y-84535714D01*
X286342676Y-84659524D01*
X286280771Y-84783333D01*
X286218867Y-84845238D01*
X286095057Y-84907143D01*
X285661724Y-84907143D01*
D10*
D11*
X286404581Y-135464286D02*
X286342676Y-135526190D01*
X286156962Y-135588095D01*
X286033152Y-135588095D01*
X285847438Y-135526190D01*
X285723629Y-135402381D01*
X285661724Y-135278571D01*
X285599819Y-135030952D01*
X285599819Y-134845238D01*
X285661724Y-134597619D01*
X285723629Y-134473810D01*
X285847438Y-134350000D01*
X286033152Y-134288095D01*
X286156962Y-134288095D01*
X286342676Y-134350000D01*
X286404581Y-134411905D01*
D10*
D11*
X285661724Y-185588095D02*
X285661724Y-184288095D01*
X285971248Y-184288095D01*
X286156962Y-184350000D01*
X286280771Y-184473810D01*
X286342676Y-184597619D01*
X286404581Y-184845238D01*
X286404581Y-185030952D01*
X286342676Y-185278571D01*
X286280771Y-185402381D01*
X286156962Y-185526190D01*
X285971248Y-185588095D01*
X285661724Y-185588095D01*
D10*
D11*
X200359343Y-193785771D02*
X200359343Y-192285771D01*
X200716486Y-192285771D01*
X200930771Y-192357200D01*
X201073629Y-192500057D01*
X201145057Y-192642914D01*
X201216486Y-192928629D01*
X201216486Y-193142914D01*
X201145057Y-193428629D01*
X201073629Y-193571486D01*
X200930771Y-193714343D01*
X200716486Y-193785771D01*
X200359343Y-193785771D01*
X202502200Y-193785771D02*
X202502200Y-193000057D01*
X202430771Y-192857200D01*
X202287914Y-192785771D01*
X202002200Y-192785771D01*
X201859343Y-192857200D01*
X202502200Y-193714343D02*
X202359343Y-193785771D01*
X202002200Y-193785771D01*
X201859343Y-193714343D01*
X201787914Y-193571486D01*
X201787914Y-193428629D01*
X201859343Y-193285771D01*
X202002200Y-193214343D01*
X202359343Y-193214343D01*
X202502200Y-193142914D01*
X203002200Y-192785771D02*
X203573629Y-192785771D01*
X203216486Y-192285771D02*
X203216486Y-193571486D01*
X203287914Y-193714343D01*
X203430772Y-193785771D01*
X203573629Y-193785771D01*
X204645057Y-193714343D02*
X204502200Y-193785771D01*
X204216486Y-193785771D01*
X204073629Y-193714343D01*
X204002200Y-193571486D01*
X204002200Y-193000057D01*
X204073629Y-192857200D01*
X204216486Y-192785771D01*
X204502200Y-192785771D01*
X204645057Y-192857200D01*
X204716486Y-193000057D01*
X204716486Y-193142914D01*
X204002200Y-193285771D01*
X205359343Y-193642914D02*
X205430771Y-193714343D01*
X205359343Y-193785771D01*
X205287914Y-193714343D01*
X205359343Y-193642914D01*
X205359343Y-193785771D01*
X205359343Y-192857200D02*
X205430771Y-192928629D01*
X205359343Y-193000057D01*
X205287914Y-192928629D01*
X205359343Y-192857200D01*
X205359343Y-193000057D01*
D10*
D11*
X177002200Y-194507200D02*
X285002200Y-194507200D01*
D10*
D11*
X178359343Y-196585771D02*
X178359343Y-195085771D01*
X179216486Y-196585771D02*
X178573629Y-195728629D01*
X179216486Y-195085771D02*
X178359343Y-195942914D01*
X179859343Y-196585771D02*
X179859343Y-195585771D01*
X179859343Y-195085771D02*
X179787914Y-195157200D01*
X179859343Y-195228629D01*
X179930771Y-195157200D01*
X179859343Y-195085771D01*
X179859343Y-195228629D01*
X181430772Y-196442914D02*
X181359343Y-196514343D01*
X181145057Y-196585771D01*
X181002200Y-196585771D01*
X180787915Y-196514343D01*
X180645057Y-196371486D01*
X180573629Y-196228629D01*
X180502200Y-195942914D01*
X180502200Y-195728629D01*
X180573629Y-195442914D01*
X180645057Y-195300057D01*
X180787915Y-195157200D01*
X181002200Y-195085771D01*
X181145057Y-195085771D01*
X181359343Y-195157200D01*
X181430772Y-195228629D01*
X182716486Y-196585771D02*
X182716486Y-195800057D01*
X182645057Y-195657200D01*
X182502200Y-195585771D01*
X182216486Y-195585771D01*
X182073629Y-195657200D01*
X182716486Y-196514343D02*
X182573629Y-196585771D01*
X182216486Y-196585771D01*
X182073629Y-196514343D01*
X182002200Y-196371486D01*
X182002200Y-196228629D01*
X182073629Y-196085771D01*
X182216486Y-196014343D01*
X182573629Y-196014343D01*
X182716486Y-195942914D01*
X184073629Y-196585771D02*
X184073629Y-195085771D01*
X184073629Y-196514343D02*
X183930772Y-196585771D01*
X183645058Y-196585771D01*
X183502200Y-196514343D01*
X183430772Y-196442914D01*
X183359343Y-196300057D01*
X183359343Y-195871486D01*
X183430772Y-195728629D01*
X183502200Y-195657200D01*
X183645058Y-195585771D01*
X183930772Y-195585771D01*
X184073629Y-195657200D01*
X185930772Y-195800057D02*
X186430772Y-195800057D01*
X186645058Y-196585771D02*
X185930772Y-196585771D01*
X185930772Y-195085771D01*
X186645058Y-195085771D01*
X187287915Y-196442914D02*
X187359343Y-196514343D01*
X187287915Y-196585771D01*
X187216486Y-196514343D01*
X187287915Y-196442914D01*
X187287915Y-196585771D01*
X188002201Y-196585771D02*
X188002201Y-195085771D01*
X188359344Y-195085771D01*
X188573629Y-195157200D01*
X188716487Y-195300057D01*
X188787915Y-195442914D01*
X188859344Y-195728629D01*
X188859344Y-195942914D01*
X188787915Y-196228629D01*
X188716487Y-196371486D01*
X188573629Y-196514343D01*
X188359344Y-196585771D01*
X188002201Y-196585771D01*
X189502201Y-196442914D02*
X189573629Y-196514343D01*
X189502201Y-196585771D01*
X189430772Y-196514343D01*
X189502201Y-196442914D01*
X189502201Y-196585771D01*
X190145058Y-196157200D02*
X190859344Y-196157200D01*
X190002201Y-196585771D02*
X190502201Y-195085771D01*
X191002201Y-196585771D01*
X191502201Y-196442914D02*
X191573629Y-196514343D01*
X191502201Y-196585771D01*
X191430772Y-196514343D01*
X191502201Y-196442914D01*
X191502201Y-196585771D01*
X194502201Y-196585771D02*
X194502201Y-195085771D01*
X194645058Y-196014343D02*
X195073629Y-196585771D01*
X195073629Y-195585771D02*
X194502201Y-196157200D01*
X195716487Y-196585771D02*
X195716487Y-195585771D01*
X195716487Y-195085771D02*
X195645058Y-195157200D01*
X195716487Y-195228629D01*
X195787915Y-195157200D01*
X195716487Y-195085771D01*
X195716487Y-195228629D01*
X197073630Y-196514343D02*
X196930773Y-196585771D01*
X196645059Y-196585771D01*
X196502201Y-196514343D01*
X196430773Y-196442914D01*
X196359344Y-196300057D01*
X196359344Y-195871486D01*
X196430773Y-195728629D01*
X196502201Y-195657200D01*
X196645059Y-195585771D01*
X196930773Y-195585771D01*
X197073630Y-195657200D01*
X198359344Y-196585771D02*
X198359344Y-195800057D01*
X198287915Y-195657200D01*
X198145058Y-195585771D01*
X197859344Y-195585771D01*
X197716487Y-195657200D01*
X198359344Y-196514343D02*
X198216487Y-196585771D01*
X197859344Y-196585771D01*
X197716487Y-196514343D01*
X197645058Y-196371486D01*
X197645058Y-196228629D01*
X197716487Y-196085771D01*
X197859344Y-196014343D01*
X198216487Y-196014343D01*
X198359344Y-195942914D01*
X199716487Y-196585771D02*
X199716487Y-195085771D01*
X199716487Y-196514343D02*
X199573630Y-196585771D01*
X199287916Y-196585771D01*
X199145058Y-196514343D01*
X199073630Y-196442914D01*
X199002201Y-196300057D01*
X199002201Y-195871486D01*
X199073630Y-195728629D01*
X199145058Y-195657200D01*
X199287916Y-195585771D01*
X199573630Y-195585771D01*
X199716487Y-195657200D01*
X202216487Y-195585771D02*
X202216487Y-196585771D01*
X201859344Y-195014343D02*
X201502201Y-196085771D01*
X202430773Y-196085771D01*
X203002201Y-196442914D02*
X203073629Y-196514343D01*
X203002201Y-196585771D01*
X202930772Y-196514343D01*
X203002201Y-196442914D01*
X203002201Y-196585771D01*
X204002201Y-195085771D02*
X204145058Y-195085771D01*
X204287915Y-195157200D01*
X204359344Y-195228629D01*
X204430773Y-195371486D01*
X204502201Y-195657200D01*
X204502201Y-196014343D01*
X204430773Y-196300057D01*
X204359344Y-196442914D01*
X204287915Y-196514343D01*
X204145058Y-196585771D01*
X204002201Y-196585771D01*
X203859344Y-196514343D01*
X203787915Y-196442914D01*
X203716487Y-196300057D01*
X203645058Y-196014343D01*
X203645058Y-195657200D01*
X203716487Y-195371486D01*
X203787915Y-195228629D01*
X203859344Y-195157200D01*
X204002201Y-195085771D01*
X205145058Y-196442914D02*
X205216486Y-196514343D01*
X205145058Y-196585771D01*
X205073629Y-196514343D01*
X205145058Y-196442914D01*
X205145058Y-196585771D01*
X205787915Y-195228629D02*
X205859344Y-195157200D01*
X206002201Y-195085771D01*
X206359344Y-195085771D01*
X206502201Y-195157200D01*
X206573630Y-195228629D01*
X206645058Y-195371486D01*
X206645058Y-195514343D01*
X206573630Y-195728629D01*
X205716487Y-196585771D01*
X206645058Y-196585771D01*
X207287915Y-196014343D02*
X208430772Y-196014343D01*
X207859343Y-196585771D02*
X207859343Y-195442914D01*
X209716486Y-196514343D02*
X209573629Y-196585771D01*
X209287915Y-196585771D01*
X209145058Y-196514343D01*
X209073629Y-196371486D01*
X209073629Y-195800057D01*
X209145058Y-195657200D01*
X209287915Y-195585771D01*
X209573629Y-195585771D01*
X209716486Y-195657200D01*
X209787915Y-195800057D01*
X209787915Y-195942914D01*
X209073629Y-196085771D01*
X211073629Y-195585771D02*
X211073629Y-196585771D01*
X210716486Y-195014343D02*
X210359343Y-196085771D01*
X211287915Y-196085771D01*
X211859343Y-196014343D02*
X213002200Y-196014343D01*
X214359343Y-195085771D02*
X214073629Y-195085771D01*
X213930772Y-195157200D01*
X213859343Y-195228629D01*
X213716486Y-195442914D01*
X213645057Y-195728629D01*
X213645057Y-196300057D01*
X213716486Y-196442914D01*
X213787914Y-196514343D01*
X213930772Y-196585771D01*
X214216486Y-196585771D01*
X214359343Y-196514343D01*
X214430772Y-196442914D01*
X214502200Y-196300057D01*
X214502200Y-195942914D01*
X214430772Y-195800057D01*
X214359343Y-195728629D01*
X214216486Y-195657200D01*
X213930772Y-195657200D01*
X213787914Y-195728629D01*
X213716486Y-195800057D01*
X213645057Y-195942914D01*
X215073628Y-195228629D02*
X215145057Y-195157200D01*
X215287914Y-195085771D01*
X215645057Y-195085771D01*
X215787914Y-195157200D01*
X215859343Y-195228629D01*
X215930771Y-195371486D01*
X215930771Y-195514343D01*
X215859343Y-195728629D01*
X215002200Y-196585771D01*
X215930771Y-196585771D01*
X216502199Y-195228629D02*
X216573628Y-195157200D01*
X216716485Y-195085771D01*
X217073628Y-195085771D01*
X217216485Y-195157200D01*
X217287914Y-195228629D01*
X217359342Y-195371486D01*
X217359342Y-195514343D01*
X217287914Y-195728629D01*
X216430771Y-196585771D01*
X217359342Y-196585771D01*
X218716485Y-195085771D02*
X218002199Y-195085771D01*
X217930770Y-195800057D01*
X218002199Y-195728629D01*
X218145056Y-195657200D01*
X218502199Y-195657200D01*
X218645056Y-195728629D01*
X218716485Y-195800057D01*
X218787913Y-195942914D01*
X218787913Y-196300057D01*
X218716485Y-196442914D01*
X218645056Y-196514343D01*
X218502199Y-196585771D01*
X218145056Y-196585771D01*
X218002199Y-196514343D01*
X217930770Y-196442914D01*
X219287913Y-195085771D02*
X220216484Y-195085771D01*
X219716484Y-195657200D01*
X219930770Y-195657200D01*
X220073627Y-195728629D01*
X220145056Y-195800057D01*
X220216484Y-195942914D01*
X220216484Y-196300057D01*
X220145056Y-196442914D01*
X220073627Y-196514343D01*
X219930770Y-196585771D01*
X219502198Y-196585771D01*
X219359341Y-196514343D01*
X219287913Y-196442914D01*
X221073627Y-195728629D02*
X220930769Y-195657200D01*
X220859341Y-195585771D01*
X220787912Y-195442914D01*
X220787912Y-195371486D01*
X220859341Y-195228629D01*
X220930769Y-195157200D01*
X221073627Y-195085771D01*
X221359341Y-195085771D01*
X221502198Y-195157200D01*
X221573627Y-195228629D01*
X221645055Y-195371486D01*
X221645055Y-195442914D01*
X221573627Y-195585771D01*
X221502198Y-195657200D01*
X221359341Y-195728629D01*
X221073627Y-195728629D01*
X220930769Y-195800057D01*
X220859341Y-195871486D01*
X220787912Y-196014343D01*
X220787912Y-196300057D01*
X220859341Y-196442914D01*
X220930769Y-196514343D01*
X221073627Y-196585771D01*
X221359341Y-196585771D01*
X221502198Y-196514343D01*
X221573627Y-196442914D01*
X221645055Y-196300057D01*
X221645055Y-196014343D01*
X221573627Y-195871486D01*
X221502198Y-195800057D01*
X221359341Y-195728629D01*
X219073627Y-194827200D02*
X221930769Y-194827200D01*
X222930769Y-195585771D02*
X222930769Y-196585771D01*
X222287912Y-195585771D02*
X222287912Y-196371486D01*
X222359340Y-196514343D01*
X222502198Y-196585771D01*
X222716483Y-196585771D01*
X222859340Y-196514343D01*
X222930769Y-196442914D01*
X223645055Y-196585771D02*
X223645055Y-195085771D01*
X223645055Y-195657200D02*
X223787912Y-195585771D01*
X224073626Y-195585771D01*
X224216483Y-195657200D01*
X224287912Y-195728629D01*
X224359341Y-195871486D01*
X224359341Y-196300057D01*
X224287912Y-196442914D01*
X224216483Y-196514343D01*
X224073626Y-196585771D01*
X223787912Y-196585771D01*
X223645055Y-196514343D01*
X225645055Y-195585771D02*
X225645055Y-196585771D01*
X225002198Y-195585771D02*
X225002198Y-196371486D01*
X225073626Y-196514343D01*
X225216484Y-196585771D01*
X225430769Y-196585771D01*
X225573626Y-196514343D01*
X225645055Y-196442914D01*
X226359341Y-195585771D02*
X226359341Y-196585771D01*
X226359341Y-195728629D02*
X226430769Y-195657200D01*
X226573627Y-195585771D01*
X226787912Y-195585771D01*
X226930769Y-195657200D01*
X227002198Y-195800057D01*
X227002198Y-196585771D01*
X227502198Y-195585771D02*
X228073627Y-195585771D01*
X227716484Y-195085771D02*
X227716484Y-196371486D01*
X227787912Y-196514343D01*
X227930770Y-196585771D01*
X228073627Y-196585771D01*
X229216484Y-195585771D02*
X229216484Y-196585771D01*
X228573627Y-195585771D02*
X228573627Y-196371486D01*
X228645055Y-196514343D01*
X228787913Y-196585771D01*
X229002198Y-196585771D01*
X229145055Y-196514343D01*
X229216484Y-196442914D01*
X230716484Y-196585771D02*
X229859341Y-196585771D01*
X230287913Y-196585771D02*
X230287913Y-195085771D01*
X230145056Y-195300057D01*
X230002198Y-195442914D01*
X229859341Y-195514343D01*
X232002198Y-195085771D02*
X231716484Y-195085771D01*
X231573627Y-195157200D01*
X231502198Y-195228629D01*
X231359341Y-195442914D01*
X231287912Y-195728629D01*
X231287912Y-196300057D01*
X231359341Y-196442914D01*
X231430769Y-196514343D01*
X231573627Y-196585771D01*
X231859341Y-196585771D01*
X232002198Y-196514343D01*
X232073627Y-196442914D01*
X232145055Y-196300057D01*
X232145055Y-195942914D01*
X232073627Y-195800057D01*
X232002198Y-195728629D01*
X231859341Y-195657200D01*
X231573627Y-195657200D01*
X231430769Y-195728629D01*
X231359341Y-195800057D01*
X231287912Y-195942914D01*
X232787912Y-196442914D02*
X232859340Y-196514343D01*
X232787912Y-196585771D01*
X232716483Y-196514343D01*
X232787912Y-196442914D01*
X232787912Y-196585771D01*
X233787912Y-195085771D02*
X233930769Y-195085771D01*
X234073626Y-195157200D01*
X234145055Y-195228629D01*
X234216484Y-195371486D01*
X234287912Y-195657200D01*
X234287912Y-196014343D01*
X234216484Y-196300057D01*
X234145055Y-196442914D01*
X234073626Y-196514343D01*
X233930769Y-196585771D01*
X233787912Y-196585771D01*
X233645055Y-196514343D01*
X233573626Y-196442914D01*
X233502198Y-196300057D01*
X233430769Y-196014343D01*
X233430769Y-195657200D01*
X233502198Y-195371486D01*
X233573626Y-195228629D01*
X233645055Y-195157200D01*
X233787912Y-195085771D01*
X235573626Y-195585771D02*
X235573626Y-196585771D01*
X235216483Y-195014343D02*
X234859340Y-196085771D01*
X235787912Y-196085771D01*
X236359340Y-196442914D02*
X236430768Y-196514343D01*
X236359340Y-196585771D01*
X236287911Y-196514343D01*
X236359340Y-196442914D01*
X236359340Y-196585771D01*
X237859340Y-196585771D02*
X237002197Y-196585771D01*
X237430769Y-196585771D02*
X237430769Y-195085771D01*
X237287912Y-195300057D01*
X237145054Y-195442914D01*
X237002197Y-195514343D01*
X238502197Y-196014343D02*
X239645054Y-196014343D01*
X240287911Y-196514343D02*
X240430768Y-196585771D01*
X240716483Y-196585771D01*
X240859340Y-196514343D01*
X240930768Y-196371486D01*
X240930768Y-196300057D01*
X240859340Y-196157200D01*
X240716483Y-196085771D01*
X240502197Y-196085771D01*
X240359340Y-196014343D01*
X240287911Y-195871486D01*
X240287911Y-195800057D01*
X240359340Y-195657200D01*
X240502197Y-195585771D01*
X240716483Y-195585771D01*
X240859340Y-195657200D01*
X241359340Y-195585771D02*
X241930769Y-195585771D01*
X241573626Y-195085771D02*
X241573626Y-196371486D01*
X241645054Y-196514343D01*
X241787912Y-196585771D01*
X241930769Y-196585771D01*
X243073626Y-196585771D02*
X243073626Y-195800057D01*
X243002197Y-195657200D01*
X242859340Y-195585771D01*
X242573626Y-195585771D01*
X242430769Y-195657200D01*
X243073626Y-196514343D02*
X242930769Y-196585771D01*
X242573626Y-196585771D01*
X242430769Y-196514343D01*
X242359340Y-196371486D01*
X242359340Y-196228629D01*
X242430769Y-196085771D01*
X242573626Y-196014343D01*
X242930769Y-196014343D01*
X243073626Y-195942914D01*
X243787912Y-196585771D02*
X243787912Y-195085771D01*
X243787912Y-195657200D02*
X243930769Y-195585771D01*
X244216483Y-195585771D01*
X244359340Y-195657200D01*
X244430769Y-195728629D01*
X244502198Y-195871486D01*
X244502198Y-196300057D01*
X244430769Y-196442914D01*
X244359340Y-196514343D01*
X244216483Y-196585771D01*
X243930769Y-196585771D01*
X243787912Y-196514343D01*
X245359341Y-196585771D02*
X245216483Y-196514343D01*
X245145055Y-196371486D01*
X245145055Y-195085771D01*
X246502197Y-196514343D02*
X246359340Y-196585771D01*
X246073626Y-196585771D01*
X245930769Y-196514343D01*
X245859340Y-196371486D01*
X245859340Y-195800057D01*
X245930769Y-195657200D01*
X246073626Y-195585771D01*
X246359340Y-195585771D01*
X246502197Y-195657200D01*
X246573626Y-195800057D01*
X246573626Y-195942914D01*
X245859340Y-196085771D01*
D10*
D11*
X177002200Y-191507200D02*
X285002200Y-191507200D01*
D10*
D12*
X264216486Y-193785771D02*
X263716486Y-193071486D01*
X263359343Y-193785771D02*
X263359343Y-192285771D01*
X263930771Y-192285771D01*
X264073629Y-192357200D01*
X264145057Y-192428629D01*
X264216486Y-192571486D01*
X264216486Y-192785771D01*
X264145057Y-192928629D01*
X264073629Y-193000057D01*
X263930771Y-193071486D01*
X263359343Y-193071486D01*
X265430771Y-193714343D02*
X265287914Y-193785771D01*
X265002200Y-193785771D01*
X264859343Y-193714343D01*
X264787914Y-193571486D01*
X264787914Y-193000057D01*
X264859343Y-192857200D01*
X265002200Y-192785771D01*
X265287914Y-192785771D01*
X265430771Y-192857200D01*
X265502200Y-193000057D01*
X265502200Y-193142914D01*
X264787914Y-193285771D01*
X266002200Y-192785771D02*
X266359343Y-193785771D01*
X266716485Y-192785771D01*
X267287914Y-193642914D02*
X267359342Y-193714343D01*
X267287914Y-193785771D01*
X267216485Y-193714343D01*
X267287914Y-193642914D01*
X267287914Y-193785771D01*
X267287914Y-192857200D02*
X267359342Y-192928629D01*
X267287914Y-193000057D01*
X267216485Y-192928629D01*
X267287914Y-192857200D01*
X267287914Y-193000057D01*
D10*
D11*
X178287914Y-193714343D02*
X178502200Y-193785771D01*
X178859343Y-193785771D01*
X179002200Y-193714343D01*
X179073629Y-193642914D01*
X179145057Y-193500057D01*
X179145057Y-193357200D01*
X179073629Y-193214343D01*
X179002200Y-193142914D01*
X178859343Y-193071486D01*
X178573629Y-193000057D01*
X178430771Y-192928629D01*
X178359343Y-192857200D01*
X178287914Y-192714343D01*
X178287914Y-192571486D01*
X178359343Y-192428629D01*
X178430771Y-192357200D01*
X178573629Y-192285771D01*
X178930771Y-192285771D01*
X179145057Y-192357200D01*
X179787914Y-193785771D02*
X179787914Y-192785771D01*
X179787914Y-192285771D02*
X179716485Y-192357200D01*
X179787914Y-192428629D01*
X179859342Y-192357200D01*
X179787914Y-192285771D01*
X179787914Y-192428629D01*
X180359343Y-192785771D02*
X181145057Y-192785771D01*
X180359343Y-193785771D01*
X181145057Y-193785771D01*
X182287914Y-193714343D02*
X182145057Y-193785771D01*
X181859343Y-193785771D01*
X181716486Y-193714343D01*
X181645057Y-193571486D01*
X181645057Y-193000057D01*
X181716486Y-192857200D01*
X181859343Y-192785771D01*
X182145057Y-192785771D01*
X182287914Y-192857200D01*
X182359343Y-193000057D01*
X182359343Y-193142914D01*
X181645057Y-193285771D01*
X183002200Y-193642914D02*
X183073628Y-193714343D01*
X183002200Y-193785771D01*
X182930771Y-193714343D01*
X183002200Y-193642914D01*
X183002200Y-193785771D01*
X183002200Y-192857200D02*
X183073628Y-192928629D01*
X183002200Y-193000057D01*
X182930771Y-192928629D01*
X183002200Y-192857200D01*
X183002200Y-193000057D01*
X184787914Y-193357200D02*
X185502200Y-193357200D01*
X184645057Y-193785771D02*
X185145057Y-192285771D01*
X185645057Y-193785771D01*
X186787914Y-192785771D02*
X186787914Y-193785771D01*
X186430771Y-192214343D02*
X186073628Y-193285771D01*
X187002200Y-193285771D01*
D10*
D11*
X263359343Y-196585771D02*
X263359343Y-195085771D01*
X264716486Y-196585771D02*
X264716486Y-195085771D01*
X264716486Y-196514343D02*
X264573629Y-196585771D01*
X264287915Y-196585771D01*
X264145057Y-196514343D01*
X264073629Y-196442914D01*
X264002200Y-196300057D01*
X264002200Y-195871486D01*
X264073629Y-195728629D01*
X264145057Y-195657200D01*
X264287915Y-195585771D01*
X264573629Y-195585771D01*
X264716486Y-195657200D01*
X265430772Y-196442914D02*
X265502200Y-196514343D01*
X265430772Y-196585771D01*
X265359343Y-196514343D01*
X265430772Y-196442914D01*
X265430772Y-196585771D01*
X265430772Y-195657200D02*
X265502200Y-195728629D01*
X265430772Y-195800057D01*
X265359343Y-195728629D01*
X265430772Y-195657200D01*
X265430772Y-195800057D01*
X268073629Y-196585771D02*
X267216486Y-196585771D01*
X267645058Y-196585771D02*
X267645058Y-195085771D01*
X267502201Y-195300057D01*
X267359343Y-195442914D01*
X267216486Y-195514343D01*
X269787914Y-195014343D02*
X268502200Y-196942914D01*
X271073629Y-196585771D02*
X270216486Y-196585771D01*
X270645058Y-196585771D02*
X270645058Y-195085771D01*
X270502201Y-195300057D01*
X270359343Y-195442914D01*
X270216486Y-195514343D01*
D10*
D11*
X177002200Y-187507200D02*
X285002200Y-187507200D01*
D10*
D13*
X178454581Y-188211962D02*
X179597438Y-188211962D01*
X178776010Y-190211962D02*
X179026010Y-188211962D01*
X180014105Y-190211962D02*
X180180771Y-188878629D01*
X180264105Y-188211962D02*
X180156962Y-188307200D01*
X180240295Y-188402438D01*
X180347439Y-188307200D01*
X180264105Y-188211962D01*
X180240295Y-188402438D01*
X180847438Y-188878629D02*
X181609343Y-188878629D01*
X181216486Y-188211962D02*
X181002200Y-189926248D01*
X181073630Y-190116724D01*
X181252201Y-190211962D01*
X181442677Y-190211962D01*
X182395058Y-190211962D02*
X182216487Y-190116724D01*
X182145057Y-189926248D01*
X182359343Y-188211962D01*
X183930772Y-190116724D02*
X183728391Y-190211962D01*
X183347439Y-190211962D01*
X183168867Y-190116724D01*
X183097438Y-189926248D01*
X183192676Y-189164343D01*
X183311724Y-188973867D01*
X183514105Y-188878629D01*
X183895057Y-188878629D01*
X184073629Y-188973867D01*
X184145057Y-189164343D01*
X184121248Y-189354819D01*
X183145057Y-189545295D01*
X184895057Y-190021486D02*
X184978392Y-190116724D01*
X184871248Y-190211962D01*
X184787915Y-190116724D01*
X184895057Y-190021486D01*
X184871248Y-190211962D01*
X185026010Y-188973867D02*
X185109344Y-189069105D01*
X185002200Y-189164343D01*
X184918867Y-189069105D01*
X185026010Y-188973867D01*
X185002200Y-189164343D01*
D10*
D11*
X178859343Y-185600057D02*
X178359343Y-185600057D01*
X178359343Y-186385771D02*
X178359343Y-184885771D01*
X179073629Y-184885771D01*
X179645057Y-186385771D02*
X179645057Y-185385771D01*
X179645057Y-184885771D02*
X179573628Y-184957200D01*
X179645057Y-185028629D01*
X179716485Y-184957200D01*
X179645057Y-184885771D01*
X179645057Y-185028629D01*
X180573629Y-186385771D02*
X180430771Y-186314343D01*
X180359343Y-186171486D01*
X180359343Y-184885771D01*
X181716485Y-186314343D02*
X181573628Y-186385771D01*
X181287914Y-186385771D01*
X181145057Y-186314343D01*
X181073628Y-186171486D01*
X181073628Y-185600057D01*
X181145057Y-185457200D01*
X181287914Y-185385771D01*
X181573628Y-185385771D01*
X181716485Y-185457200D01*
X181787914Y-185600057D01*
X181787914Y-185742914D01*
X181073628Y-185885771D01*
X182430771Y-186242914D02*
X182502199Y-186314343D01*
X182430771Y-186385771D01*
X182359342Y-186314343D01*
X182430771Y-186242914D01*
X182430771Y-186385771D01*
X182430771Y-185457200D02*
X182502199Y-185528629D01*
X182430771Y-185600057D01*
X182359342Y-185528629D01*
X182430771Y-185457200D01*
X182430771Y-185600057D01*
X184216485Y-185957200D02*
X184930771Y-185957200D01*
X184073628Y-186385771D02*
X184573628Y-184885771D01*
X185073628Y-186385771D01*
X185573628Y-186385771D02*
X185573628Y-185385771D01*
X185573628Y-185671486D02*
X185645056Y-185528629D01*
X185716485Y-185457200D01*
X185859342Y-185385771D01*
X186002199Y-185385771D01*
X187145056Y-186385771D02*
X187145056Y-184885771D01*
X187145056Y-186314343D02*
X187002199Y-186385771D01*
X186716485Y-186385771D01*
X186573627Y-186314343D01*
X186502199Y-186242914D01*
X186430770Y-186100057D01*
X186430770Y-185671486D01*
X186502199Y-185528629D01*
X186573627Y-185457200D01*
X186716485Y-185385771D01*
X187002199Y-185385771D01*
X187145056Y-185457200D01*
X188502199Y-185385771D02*
X188502199Y-186385771D01*
X187859342Y-185385771D02*
X187859342Y-186171486D01*
X187930770Y-186314343D01*
X188073628Y-186385771D01*
X188287913Y-186385771D01*
X188430770Y-186314343D01*
X188502199Y-186242914D01*
X189716485Y-185600057D02*
X189930771Y-185671486D01*
X190002199Y-185742914D01*
X190073628Y-185885771D01*
X190073628Y-186100057D01*
X190002199Y-186242914D01*
X189930771Y-186314343D01*
X189787913Y-186385771D01*
X189216485Y-186385771D01*
X189216485Y-184885771D01*
X189716485Y-184885771D01*
X189859342Y-184957200D01*
X189930771Y-185028629D01*
X190002199Y-185171486D01*
X190002199Y-185314343D01*
X189930771Y-185457200D01*
X189859342Y-185528629D01*
X189716485Y-185600057D01*
X189216485Y-185600057D01*
X190930771Y-186385771D02*
X190787913Y-186314343D01*
X190716485Y-186242914D01*
X190645056Y-186100057D01*
X190645056Y-185671486D01*
X190716485Y-185528629D01*
X190787913Y-185457200D01*
X190930771Y-185385771D01*
X191145056Y-185385771D01*
X191287913Y-185457200D01*
X191359342Y-185528629D01*
X191430771Y-185671486D01*
X191430771Y-186100057D01*
X191359342Y-186242914D01*
X191287913Y-186314343D01*
X191145056Y-186385771D01*
X190930771Y-186385771D01*
X192287914Y-186385771D02*
X192145056Y-186314343D01*
X192073628Y-186242914D01*
X192002199Y-186100057D01*
X192002199Y-185671486D01*
X192073628Y-185528629D01*
X192145056Y-185457200D01*
X192287914Y-185385771D01*
X192502199Y-185385771D01*
X192645056Y-185457200D01*
X192716485Y-185528629D01*
X192787914Y-185671486D01*
X192787914Y-186100057D01*
X192716485Y-186242914D01*
X192645056Y-186314343D01*
X192502199Y-186385771D01*
X192287914Y-186385771D01*
X193359342Y-186314343D02*
X193502199Y-186385771D01*
X193787914Y-186385771D01*
X193930771Y-186314343D01*
X194002199Y-186171486D01*
X194002199Y-186100057D01*
X193930771Y-185957200D01*
X193787914Y-185885771D01*
X193573628Y-185885771D01*
X193430771Y-185814343D01*
X193359342Y-185671486D01*
X193359342Y-185600057D01*
X193430771Y-185457200D01*
X193573628Y-185385771D01*
X193787914Y-185385771D01*
X193930771Y-185457200D01*
X194430771Y-185385771D02*
X195002200Y-185385771D01*
X194645057Y-184885771D02*
X194645057Y-186171486D01*
X194716485Y-186314343D01*
X194859343Y-186385771D01*
X195002200Y-186385771D01*
X196073628Y-186314343D02*
X195930771Y-186385771D01*
X195645057Y-186385771D01*
X195502200Y-186314343D01*
X195430771Y-186171486D01*
X195430771Y-185600057D01*
X195502200Y-185457200D01*
X195645057Y-185385771D01*
X195930771Y-185385771D01*
X196073628Y-185457200D01*
X196145057Y-185600057D01*
X196145057Y-185742914D01*
X195430771Y-185885771D01*
X196787914Y-186385771D02*
X196787914Y-185385771D01*
X196787914Y-185671486D02*
X196859342Y-185528629D01*
X196930771Y-185457200D01*
X197073628Y-185385771D01*
X197216485Y-185385771D01*
X197716485Y-186242914D02*
X197787913Y-186314343D01*
X197716485Y-186385771D01*
X197645056Y-186314343D01*
X197716485Y-186242914D01*
X197716485Y-186385771D01*
X198430771Y-186385771D02*
X198430771Y-184885771D01*
X198573628Y-185814343D02*
X199002199Y-186385771D01*
X199002199Y-185385771D02*
X198430771Y-185957200D01*
X199645057Y-186385771D02*
X199645057Y-185385771D01*
X199645057Y-184885771D02*
X199573628Y-184957200D01*
X199645057Y-185028629D01*
X199716485Y-184957200D01*
X199645057Y-184885771D01*
X199645057Y-185028629D01*
X201002200Y-186314343D02*
X200859343Y-186385771D01*
X200573629Y-186385771D01*
X200430771Y-186314343D01*
X200359343Y-186242914D01*
X200287914Y-186100057D01*
X200287914Y-185671486D01*
X200359343Y-185528629D01*
X200430771Y-185457200D01*
X200573629Y-185385771D01*
X200859343Y-185385771D01*
X201002200Y-185457200D01*
X202287914Y-186385771D02*
X202287914Y-185600057D01*
X202216485Y-185457200D01*
X202073628Y-185385771D01*
X201787914Y-185385771D01*
X201645057Y-185457200D01*
X202287914Y-186314343D02*
X202145057Y-186385771D01*
X201787914Y-186385771D01*
X201645057Y-186314343D01*
X201573628Y-186171486D01*
X201573628Y-186028629D01*
X201645057Y-185885771D01*
X201787914Y-185814343D01*
X202145057Y-185814343D01*
X202287914Y-185742914D01*
X203645057Y-186385771D02*
X203645057Y-184885771D01*
X203645057Y-186314343D02*
X203502200Y-186385771D01*
X203216486Y-186385771D01*
X203073628Y-186314343D01*
X203002200Y-186242914D01*
X202930771Y-186100057D01*
X202930771Y-185671486D01*
X203002200Y-185528629D01*
X203073628Y-185457200D01*
X203216486Y-185385771D01*
X203502200Y-185385771D01*
X203645057Y-185457200D01*
X204002200Y-186528629D02*
X205145057Y-186528629D01*
X205502200Y-185385771D02*
X205502200Y-186885771D01*
X205502200Y-185457200D02*
X205645057Y-185385771D01*
X205930771Y-185385771D01*
X206073628Y-185457200D01*
X206145057Y-185528629D01*
X206216486Y-185671486D01*
X206216486Y-186100057D01*
X206145057Y-186242914D01*
X206073628Y-186314343D01*
X205930771Y-186385771D01*
X205645057Y-186385771D01*
X205502200Y-186314343D01*
X207502200Y-186314343D02*
X207359343Y-186385771D01*
X207073629Y-186385771D01*
X206930771Y-186314343D01*
X206859343Y-186242914D01*
X206787914Y-186100057D01*
X206787914Y-185671486D01*
X206859343Y-185528629D01*
X206930771Y-185457200D01*
X207073629Y-185385771D01*
X207359343Y-185385771D01*
X207502200Y-185457200D01*
X208145057Y-186385771D02*
X208145057Y-184885771D01*
X208145057Y-185457200D02*
X208287914Y-185385771D01*
X208573628Y-185385771D01*
X208716485Y-185457200D01*
X208787914Y-185528629D01*
X208859343Y-185671486D01*
X208859343Y-186100057D01*
X208787914Y-186242914D01*
X208716485Y-186314343D01*
X208573628Y-186385771D01*
X208287914Y-186385771D01*
X208145057Y-186314343D01*
D10*
D11*
X177002200Y-181507200D02*
X285002200Y-181507200D01*
D10*
D11*
X178287914Y-183614343D02*
X178502200Y-183685771D01*
X178859343Y-183685771D01*
X179002200Y-183614343D01*
X179073629Y-183542914D01*
X179145057Y-183400057D01*
X179145057Y-183257200D01*
X179073629Y-183114343D01*
X179002200Y-183042914D01*
X178859343Y-182971486D01*
X178573629Y-182900057D01*
X178430771Y-182828629D01*
X178359343Y-182757200D01*
X178287914Y-182614343D01*
X178287914Y-182471486D01*
X178359343Y-182328629D01*
X178430771Y-182257200D01*
X178573629Y-182185771D01*
X178930771Y-182185771D01*
X179145057Y-182257200D01*
X179787914Y-183685771D02*
X179787914Y-182185771D01*
X180430771Y-183685771D02*
X180430771Y-182900057D01*
X180359342Y-182757200D01*
X180216485Y-182685771D01*
X180002200Y-182685771D01*
X179859342Y-182757200D01*
X179787914Y-182828629D01*
X181716485Y-183614343D02*
X181573628Y-183685771D01*
X181287914Y-183685771D01*
X181145057Y-183614343D01*
X181073628Y-183471486D01*
X181073628Y-182900057D01*
X181145057Y-182757200D01*
X181287914Y-182685771D01*
X181573628Y-182685771D01*
X181716485Y-182757200D01*
X181787914Y-182900057D01*
X181787914Y-183042914D01*
X181073628Y-183185771D01*
X183002199Y-183614343D02*
X182859342Y-183685771D01*
X182573628Y-183685771D01*
X182430771Y-183614343D01*
X182359342Y-183471486D01*
X182359342Y-182900057D01*
X182430771Y-182757200D01*
X182573628Y-182685771D01*
X182859342Y-182685771D01*
X183002199Y-182757200D01*
X183073628Y-182900057D01*
X183073628Y-183042914D01*
X182359342Y-183185771D01*
X183502199Y-182685771D02*
X184073628Y-182685771D01*
X183716485Y-182185771D02*
X183716485Y-183471486D01*
X183787913Y-183614343D01*
X183930771Y-183685771D01*
X184073628Y-183685771D01*
X184573628Y-183542914D02*
X184645056Y-183614343D01*
X184573628Y-183685771D01*
X184502199Y-183614343D01*
X184573628Y-183542914D01*
X184573628Y-183685771D01*
X184573628Y-182757200D02*
X184645056Y-182828629D01*
X184573628Y-182900057D01*
X184502199Y-182828629D01*
X184573628Y-182757200D01*
X184573628Y-182900057D01*
D10*
D11*
X197002200Y-191507200D02*
X197002200Y-194507200D01*
D10*
D11*
X261002200Y-191507200D02*
X261002200Y-198007200D01*
X116332000Y-40386000D02*
G75*
G03X116332000Y-40386000I-2286000J0D01*
G01*
X179324000Y-40386000D02*
G75*
G03X179324000Y-40386000I-2286000J0D01*
G01*
X179324000Y-88392000D02*
G75*
G03X179324000Y-88392000I-2286000J0D01*
G01*
X116332000Y-88392000D02*
G75*
G03X116332000Y-88392000I-2286000J0D01*
G01*
X120277000Y-39107000D02*
X120277000Y-40377000D01*
X127627000Y-39107000D02*
X127627000Y-40377000D01*
X127627000Y-51317000D02*
X127627000Y-50047000D01*
X120277000Y-51317000D02*
X120277000Y-50047000D01*
X120277000Y-39107000D02*
X127627000Y-39107000D01*
X120277000Y-51317000D02*
X127627000Y-51317000D01*
X120277000Y-40377000D02*
X118992000Y-40377000D01*
X112558000Y-51292000D02*
X112558000Y-44292000D01*
X112558000Y-44292000D02*
X117058000Y-44292000D01*
X117058000Y-44292000D02*
X117058000Y-51292000D01*
X117058000Y-51292000D02*
X112558000Y-51292000D01*
X112558000Y-59928000D02*
X112558000Y-52928000D01*
X112558000Y-52928000D02*
X117058000Y-52928000D01*
X117058000Y-52928000D02*
X117058000Y-59928000D01*
X117058000Y-59928000D02*
X112558000Y-59928000D01*
X118654000Y-59928000D02*
X118654000Y-52928000D01*
X118654000Y-52928000D02*
X123154000Y-52928000D01*
X123154000Y-52928000D02*
X123154000Y-59928000D01*
X123154000Y-59928000D02*
X118654000Y-59928000D01*
X124750000Y-59928000D02*
X124750000Y-52928000D01*
X124750000Y-52928000D02*
X129250000Y-52928000D01*
X129250000Y-52928000D02*
X129250000Y-59928000D01*
X129250000Y-59928000D02*
X124750000Y-59928000D01*
X130064000Y-85360000D02*
X137064000Y-85360000D01*
X137064000Y-85360000D02*
X137064000Y-87360000D01*
X137064000Y-87360000D02*
X130064000Y-87360000D01*
X130064000Y-87360000D02*
X130064000Y-85360000D01*
X157972000Y-87360000D02*
X150972000Y-87360000D01*
X150972000Y-87360000D02*
X150972000Y-85360000D01*
X150972000Y-85360000D02*
X157972000Y-85360000D01*
X157972000Y-85360000D02*
X157972000Y-87360000D01*
X112558000Y-84058000D02*
X112558000Y-77058000D01*
X112558000Y-77058000D02*
X117058000Y-77058000D01*
X117058000Y-77058000D02*
X117058000Y-84058000D01*
X117058000Y-84058000D02*
X112558000Y-84058000D01*
X138704000Y-59928000D02*
X138704000Y-52928000D01*
X138704000Y-52928000D02*
X141204000Y-52928000D01*
X141204000Y-52928000D02*
X141204000Y-59928000D01*
X141204000Y-59928000D02*
X138704000Y-59928000D01*
X131592000Y-59928000D02*
X131592000Y-52928000D01*
X131592000Y-52928000D02*
X134092000Y-52928000D01*
X134092000Y-52928000D02*
X134092000Y-59928000D01*
X134092000Y-59928000D02*
X131592000Y-59928000D01*
X174228000Y-67290000D02*
X167228000Y-67290000D01*
X167228000Y-67290000D02*
X167228000Y-64790000D01*
X167228000Y-64790000D02*
X174228000Y-64790000D01*
X174228000Y-64790000D02*
X174228000Y-67290000D01*
X120904000Y-62992000D02*
X120142000Y-62992000D01*
X120142000Y-62992000D02*
X120142000Y-61976000D01*
X120142000Y-61976000D02*
X114046000Y-61976000D01*
X114046000Y-61976000D02*
X114046000Y-62992000D01*
X114046000Y-62992000D02*
X113284000Y-62992000D01*
X114046000Y-62992000D02*
X114046000Y-64008000D01*
X114046000Y-64008000D02*
X120142000Y-64008000D01*
X120142000Y-64008000D02*
X120142000Y-62992000D01*
X119634000Y-61976000D02*
X119634000Y-64008000D01*
X119380000Y-64008000D02*
X119380000Y-61976000D01*
X131064000Y-62992000D02*
X130302000Y-62992000D01*
X130302000Y-62992000D02*
X130302000Y-61976000D01*
X130302000Y-61976000D02*
X124206000Y-61976000D01*
X124206000Y-61976000D02*
X124206000Y-62992000D01*
X124206000Y-62992000D02*
X123444000Y-62992000D01*
X124206000Y-62992000D02*
X124206000Y-64008000D01*
X124206000Y-64008000D02*
X130302000Y-64008000D01*
X130302000Y-64008000D02*
X130302000Y-62992000D01*
X129794000Y-61976000D02*
X129794000Y-64008000D01*
X129540000Y-64008000D02*
X129540000Y-61976000D01*
X120387000Y-74033000D02*
X121657000Y-74033000D01*
X120387000Y-66683000D02*
X121657000Y-66683000D01*
X157997000Y-66683000D02*
X156727000Y-66683000D01*
X157997000Y-74033000D02*
X156727000Y-74033000D01*
X120387000Y-74033000D02*
X120387000Y-66683000D01*
X157997000Y-74033000D02*
X157997000Y-66683000D01*
X121657000Y-74033000D02*
X121657000Y-75318000D01*
X118872000Y-81026000D02*
X118872000Y-86106000D01*
X118592000Y-78206000D02*
X120142000Y-78206000D01*
X121412000Y-78486000D02*
X121412000Y-81026000D01*
X121412000Y-81026000D02*
X118872000Y-81026000D01*
X118872000Y-86106000D02*
X123952000Y-86106000D01*
X123952000Y-86106000D02*
X123952000Y-81026000D01*
X118592000Y-78206000D02*
X118592000Y-79756000D01*
X123952000Y-78486000D02*
X121412000Y-78486000D01*
X123952000Y-81026000D02*
X123952000Y-78486000D01*
X130302000Y-81280000D02*
X127762000Y-81280000D01*
X133122000Y-81560000D02*
X131572000Y-81560000D01*
X130302000Y-81280000D02*
X130302000Y-78740000D01*
X131572000Y-78460000D02*
X133122000Y-78460000D01*
X133122000Y-78460000D02*
X133122000Y-81560000D01*
X130302000Y-78740000D02*
X127762000Y-78740000D01*
X127762000Y-78740000D02*
X127762000Y-81280000D01*
X173228000Y-71221600D02*
X172339000Y-71221600D01*
X173101000Y-73761600D02*
X172339000Y-73761600D01*
X173228000Y-76301600D02*
X172339000Y-76301600D01*
X172339000Y-78714600D02*
X173228000Y-78714600D01*
X173228000Y-81254600D02*
X172339000Y-81254600D01*
X180213000Y-71856600D02*
X176657000Y-71856600D01*
X176657000Y-71856600D02*
X176657000Y-70586600D01*
X176657000Y-70586600D02*
X180213000Y-70586600D01*
X180213000Y-81889600D02*
X176657000Y-81889600D01*
X176657000Y-81889600D02*
X176657000Y-80619600D01*
X176657000Y-80619600D02*
X180213000Y-80619600D01*
X173228000Y-68681600D02*
X168529000Y-68681600D01*
X168529000Y-68681600D02*
X168529000Y-69824600D01*
X168529000Y-69824600D02*
X173228000Y-69824600D01*
X168529000Y-83794600D02*
X168529000Y-82651600D01*
X168529000Y-82651600D02*
X173228000Y-82651600D01*
X173355000Y-83794600D02*
X168529000Y-83794600D01*
X173228000Y-83794600D02*
X173228000Y-68681600D01*
X173228000Y-68681600D02*
X180213000Y-68681600D01*
X180213000Y-68681600D02*
X180213000Y-83794600D01*
X180213000Y-83794600D02*
X173228000Y-83794600D01*
X180166000Y-51190000D02*
X180166000Y-44140000D01*
X180166000Y-44140000D02*
X180166000Y-44140000D01*
X180166000Y-44140000D02*
X173566000Y-44140000D01*
X173566000Y-44140000D02*
X173566000Y-39140000D01*
X173566000Y-39140000D02*
X167066000Y-39140000D01*
X167066000Y-39140000D02*
X167066000Y-44990000D01*
X180166000Y-51190000D02*
X180166000Y-58240000D01*
X180166000Y-58240000D02*
X180166000Y-58240000D01*
X180166000Y-58240000D02*
X173566000Y-58240000D01*
X173566000Y-58240000D02*
X173566000Y-63240000D01*
X173566000Y-63240000D02*
X167066000Y-63240000D01*
X167066000Y-63240000D02*
X167066000Y-57390000D01*
X164316000Y-46690000D02*
X162416000Y-46690000D01*
X164316000Y-47290000D02*
X162416000Y-47290000D01*
X164316000Y-50890000D02*
X162416000Y-50890000D01*
X164316000Y-51490000D02*
X162416000Y-51490000D01*
X164316000Y-55090000D02*
X162416000Y-55090000D01*
X164316000Y-55690000D02*
X162416000Y-55690000D01*
X167116000Y-48790000D02*
X167116000Y-49390000D01*
X167116000Y-52990000D02*
X167116000Y-53590000D01*
X166116000Y-44990000D02*
X165816000Y-44390000D01*
X165816000Y-44390000D02*
X166416000Y-44390000D01*
X166416000Y-44390000D02*
X166116000Y-44990000D01*
X161036000Y-80264000D02*
X161036000Y-79756000D01*
X161036000Y-72644000D02*
X161036000Y-73152000D01*
X161036000Y-73152000D02*
X160020000Y-73152000D01*
X160020000Y-73152000D02*
X160020000Y-79756000D01*
X160020000Y-79756000D02*
X162052000Y-79756000D01*
X162052000Y-79756000D02*
X162052000Y-73152000D01*
X162052000Y-73152000D02*
X161036000Y-73152000D01*
X160528000Y-79756000D02*
X160020000Y-79248000D01*
X158242000Y-77978000D02*
X157734000Y-77978000D01*
X150622000Y-77978000D02*
X151130000Y-77978000D01*
X151130000Y-77978000D02*
X151130000Y-78994000D01*
X151130000Y-78994000D02*
X157734000Y-78994000D01*
X157734000Y-78994000D02*
X157734000Y-76962000D01*
X157734000Y-76962000D02*
X151130000Y-76962000D01*
X151130000Y-76962000D02*
X151130000Y-77978000D01*
X157734000Y-78486000D02*
X157226000Y-78994000D01*
X158242000Y-80772000D02*
X157734000Y-80772000D01*
X150622000Y-80772000D02*
X151130000Y-80772000D01*
X151130000Y-80772000D02*
X151130000Y-81788000D01*
X151130000Y-81788000D02*
X157734000Y-81788000D01*
X157734000Y-81788000D02*
X157734000Y-79756000D01*
X157734000Y-79756000D02*
X151130000Y-79756000D01*
X151130000Y-79756000D02*
X151130000Y-80772000D01*
X157734000Y-81280000D02*
X157226000Y-81788000D01*
X114808000Y-66548000D02*
X114808000Y-67056000D01*
X114808000Y-74168000D02*
X114808000Y-73660000D01*
X114808000Y-73660000D02*
X115824000Y-73660000D01*
X115824000Y-73660000D02*
X115824000Y-67056000D01*
X115824000Y-67056000D02*
X113792000Y-67056000D01*
X113792000Y-67056000D02*
X113792000Y-73660000D01*
X113792000Y-73660000D02*
X114808000Y-73660000D01*
X115316000Y-67056000D02*
X115824000Y-67564000D01*
X164084000Y-72644000D02*
X164084000Y-73152000D01*
X164084000Y-80264000D02*
X164084000Y-79756000D01*
X164084000Y-79756000D02*
X165100000Y-79756000D01*
X165100000Y-79756000D02*
X165100000Y-73152000D01*
X165100000Y-73152000D02*
X163068000Y-73152000D01*
X163068000Y-73152000D02*
X163068000Y-79756000D01*
X163068000Y-79756000D02*
X164084000Y-79756000D01*
X164592000Y-73152000D02*
X165100000Y-73660000D01*
X164084000Y-68834000D02*
X164084000Y-68326000D01*
X164084000Y-61214000D02*
X164084000Y-61722000D01*
X164084000Y-61722000D02*
X163068000Y-61722000D01*
X163068000Y-61722000D02*
X163068000Y-68326000D01*
X163068000Y-68326000D02*
X165100000Y-68326000D01*
X165100000Y-68326000D02*
X165100000Y-61722000D01*
X165100000Y-61722000D02*
X164084000Y-61722000D01*
X163576000Y-68326000D02*
X163068000Y-67818000D01*
X161036000Y-68834000D02*
X161036000Y-68326000D01*
X161036000Y-61214000D02*
X161036000Y-61722000D01*
X161036000Y-61722000D02*
X160020000Y-61722000D01*
X160020000Y-61722000D02*
X160020000Y-68326000D01*
X160020000Y-68326000D02*
X162052000Y-68326000D01*
X162052000Y-68326000D02*
X162052000Y-61722000D01*
X162052000Y-61722000D02*
X161036000Y-61722000D01*
X160528000Y-68326000D02*
X160020000Y-67818000D01*
X136398000Y-60452000D02*
X136398000Y-59944000D01*
X136398000Y-52832000D02*
X136398000Y-53340000D01*
X136398000Y-53340000D02*
X135382000Y-53340000D01*
X135382000Y-53340000D02*
X135382000Y-59944000D01*
X135382000Y-59944000D02*
X137414000Y-59944000D01*
X137414000Y-59944000D02*
X137414000Y-53340000D01*
X137414000Y-53340000D02*
X136398000Y-53340000D01*
X135890000Y-59944000D02*
X135382000Y-59436000D01*
X143510000Y-60452000D02*
X143510000Y-59944000D01*
X143510000Y-52832000D02*
X143510000Y-53340000D01*
X143510000Y-53340000D02*
X142494000Y-53340000D01*
X142494000Y-53340000D02*
X142494000Y-59944000D01*
X142494000Y-59944000D02*
X144526000Y-59944000D01*
X144526000Y-59944000D02*
X144526000Y-53340000D01*
X144526000Y-53340000D02*
X143510000Y-53340000D01*
X143002000Y-59944000D02*
X142494000Y-59436000D01*
X132723000Y-39107000D02*
X132723000Y-40377000D01*
X140073000Y-39107000D02*
X140073000Y-40377000D01*
X140073000Y-51317000D02*
X140073000Y-50047000D01*
X132723000Y-51317000D02*
X132723000Y-50047000D01*
X132723000Y-39107000D02*
X140073000Y-39107000D01*
X132723000Y-51317000D02*
X140073000Y-51317000D01*
X132723000Y-40377000D02*
X131438000Y-40377000D01*
X146947000Y-39107000D02*
X146947000Y-40377000D01*
X154297000Y-39107000D02*
X154297000Y-40377000D01*
X154297000Y-61477000D02*
X154297000Y-60207000D01*
X146947000Y-61477000D02*
X146947000Y-60207000D01*
X146947000Y-39107000D02*
X154297000Y-39107000D01*
X146947000Y-61477000D02*
X154297000Y-61477000D01*
X146947000Y-40377000D02*
X145662000Y-40377000D01*
X140208000Y-80264000D02*
X140716000Y-80264000D01*
X147828000Y-80264000D02*
X147320000Y-80264000D01*
X147320000Y-80264000D02*
X147320000Y-79248000D01*
X147320000Y-79248000D02*
X140716000Y-79248000D01*
X140716000Y-79248000D02*
X140716000Y-81280000D01*
X140716000Y-81280000D02*
X147320000Y-81280000D01*
X147320000Y-81280000D02*
X147320000Y-80264000D01*
X140716000Y-79756000D02*
X141224000Y-79248000D01*
X141224000Y-84074000D02*
G75*
G03X141224000Y-88646000I0J-2286000D01*
G01*
X146812000Y-88646000D02*
G75*
G03X146812000Y-84074000I0J2286000D01*
G01*
X146812000Y-84074000D02*
X141224000Y-84074000D01*
X146812000Y-88646000D02*
X141224000Y-88646000D01*
D10*
X119792000Y-42152000D02*
X120492000Y-42152000D01*
X119792000Y-40652000D02*
X120492000Y-40652000D01*
X120492000Y-42152000D02*
G75*
G03X120492000Y-40652000I0J750000D01*
G01*
X119792000Y-40652000D02*
G75*
G03X119792000Y-42152000I0J-750000D01*
G01*
X119792000Y-44692000D02*
X120492000Y-44692000D01*
X119792000Y-43192000D02*
X120492000Y-43192000D01*
X120492000Y-44692000D02*
G75*
G03X120492000Y-43192000I0J750000D01*
G01*
X119792000Y-43192000D02*
G75*
G03X119792000Y-44692000I0J-750000D01*
G01*
X119792000Y-47232000D02*
X120492000Y-47232000D01*
X119792000Y-45732000D02*
X120492000Y-45732000D01*
X120492000Y-47232000D02*
G75*
G03X120492000Y-45732000I0J750000D01*
G01*
X119792000Y-45732000D02*
G75*
G03X119792000Y-47232000I0J-750000D01*
G01*
X119792000Y-49772000D02*
X120492000Y-49772000D01*
X119792000Y-48272000D02*
X120492000Y-48272000D01*
X120492000Y-49772000D02*
G75*
G03X120492000Y-48272000I0J750000D01*
G01*
X119792000Y-48272000D02*
G75*
G03X119792000Y-49772000I0J-750000D01*
G01*
X127412000Y-49772000D02*
X128112000Y-49772000D01*
X127412000Y-48272000D02*
X128112000Y-48272000D01*
X128112000Y-49772000D02*
G75*
G03X128112000Y-48272000I0J750000D01*
G01*
X127412000Y-48272000D02*
G75*
G03X127412000Y-49772000I0J-750000D01*
G01*
X127412000Y-47232000D02*
X128112000Y-47232000D01*
X127412000Y-45732000D02*
X128112000Y-45732000D01*
X128112000Y-47232000D02*
G75*
G03X128112000Y-45732000I0J750000D01*
G01*
X127412000Y-45732000D02*
G75*
G03X127412000Y-47232000I0J-750000D01*
G01*
X127412000Y-44692000D02*
X128112000Y-44692000D01*
X127412000Y-43192000D02*
X128112000Y-43192000D01*
X128112000Y-44692000D02*
G75*
G03X128112000Y-43192000I0J750000D01*
G01*
X127412000Y-43192000D02*
G75*
G03X127412000Y-44692000I0J-750000D01*
G01*
X127412000Y-42152000D02*
X128112000Y-42152000D01*
X127412000Y-40652000D02*
X128112000Y-40652000D01*
X128112000Y-42152000D02*
G75*
G03X128112000Y-40652000I0J750000D01*
G01*
X127412000Y-40652000D02*
G75*
G03X127412000Y-42152000I0J-750000D01*
G01*
X115408000Y-45292000D02*
G75*
G03X115408000Y-45292000I-600000J0D01*
G01*
X115408000Y-53928000D02*
G75*
G03X115408000Y-53928000I-600000J0D01*
G01*
X121504000Y-53928000D02*
G75*
G03X121504000Y-53928000I-600000J0D01*
G01*
X127600000Y-53928000D02*
G75*
G03X127600000Y-53928000I-600000J0D01*
G01*
X136664000Y-86360000D02*
G75*
G03X136664000Y-86360000I-600000J0D01*
G01*
X152572000Y-86360000D02*
G75*
G03X152572000Y-86360000I-600000J0D01*
G01*
X115408000Y-78058000D02*
G75*
G03X115408000Y-78058000I-600000J0D01*
G01*
X140554000Y-53928000D02*
G75*
G03X140554000Y-53928000I-600000J0D01*
G01*
X133442000Y-53928000D02*
G75*
G03X133442000Y-53928000I-600000J0D01*
G01*
X168828000Y-66040000D02*
G75*
G03X168828000Y-66040000I-600000J0D01*
G01*
X113932500Y-62992000D02*
G75*
G03X113932500Y-62992000I-648500J0D01*
G01*
X124092500Y-62992000D02*
G75*
G03X124092500Y-62992000I-648500J0D01*
G01*
X123432000Y-74518000D02*
X123432000Y-73818000D01*
X121932000Y-74518000D02*
X121932000Y-73818000D01*
X123432000Y-73818000D02*
G75*
G03X121932000Y-73818000I-750000J0D01*
G01*
X121932000Y-74518000D02*
G75*
G03X123432000Y-74518000I750000J0D01*
G01*
X125972000Y-74518000D02*
X125972000Y-73818000D01*
X124472000Y-74518000D02*
X124472000Y-73818000D01*
X125972000Y-73818000D02*
G75*
G03X124472000Y-73818000I-750000J0D01*
G01*
X124472000Y-74518000D02*
G75*
G03X125972000Y-74518000I750000J0D01*
G01*
X128512000Y-74518000D02*
X128512000Y-73818000D01*
X127012000Y-74518000D02*
X127012000Y-73818000D01*
X128512000Y-73818000D02*
G75*
G03X127012000Y-73818000I-750000J0D01*
G01*
X127012000Y-74518000D02*
G75*
G03X128512000Y-74518000I750000J0D01*
G01*
X131052000Y-74518000D02*
X131052000Y-73818000D01*
X129552000Y-74518000D02*
X129552000Y-73818000D01*
X131052000Y-73818000D02*
G75*
G03X129552000Y-73818000I-750000J0D01*
G01*
X129552000Y-74518000D02*
G75*
G03X131052000Y-74518000I750000J0D01*
G01*
X133592000Y-74518000D02*
X133592000Y-73818000D01*
X132092000Y-74518000D02*
X132092000Y-73818000D01*
X133592000Y-73818000D02*
G75*
G03X132092000Y-73818000I-750000J0D01*
G01*
X132092000Y-74518000D02*
G75*
G03X133592000Y-74518000I750000J0D01*
G01*
X136132000Y-74518000D02*
X136132000Y-73818000D01*
X134632000Y-74518000D02*
X134632000Y-73818000D01*
X136132000Y-73818000D02*
G75*
G03X134632000Y-73818000I-750000J0D01*
G01*
X134632000Y-74518000D02*
G75*
G03X136132000Y-74518000I750000J0D01*
G01*
X138672000Y-74518000D02*
X138672000Y-73818000D01*
X137172000Y-74518000D02*
X137172000Y-73818000D01*
X138672000Y-73818000D02*
G75*
G03X137172000Y-73818000I-750000J0D01*
G01*
X137172000Y-74518000D02*
G75*
G03X138672000Y-74518000I750000J0D01*
G01*
X141212000Y-74518000D02*
X141212000Y-73818000D01*
X139712000Y-74518000D02*
X139712000Y-73818000D01*
X141212000Y-73818000D02*
G75*
G03X139712000Y-73818000I-750000J0D01*
G01*
X139712000Y-74518000D02*
G75*
G03X141212000Y-74518000I750000J0D01*
G01*
X143752000Y-74518000D02*
X143752000Y-73818000D01*
X142252000Y-74518000D02*
X142252000Y-73818000D01*
X143752000Y-73818000D02*
G75*
G03X142252000Y-73818000I-750000J0D01*
G01*
X142252000Y-74518000D02*
G75*
G03X143752000Y-74518000I750000J0D01*
G01*
X146292000Y-74518000D02*
X146292000Y-73818000D01*
X144792000Y-74518000D02*
X144792000Y-73818000D01*
X146292000Y-73818000D02*
G75*
G03X144792000Y-73818000I-750000J0D01*
G01*
X144792000Y-74518000D02*
G75*
G03X146292000Y-74518000I750000J0D01*
G01*
X148832000Y-74518000D02*
X148832000Y-73818000D01*
X147332000Y-74518000D02*
X147332000Y-73818000D01*
X148832000Y-73818000D02*
G75*
G03X147332000Y-73818000I-750000J0D01*
G01*
X147332000Y-74518000D02*
G75*
G03X148832000Y-74518000I750000J0D01*
G01*
X151372000Y-74518000D02*
X151372000Y-73818000D01*
X149872000Y-74518000D02*
X149872000Y-73818000D01*
X151372000Y-73818000D02*
G75*
G03X149872000Y-73818000I-750000J0D01*
G01*
X149872000Y-74518000D02*
G75*
G03X151372000Y-74518000I750000J0D01*
G01*
X153912000Y-74518000D02*
X153912000Y-73818000D01*
X152412000Y-74518000D02*
X152412000Y-73818000D01*
X153912000Y-73818000D02*
G75*
G03X152412000Y-73818000I-750000J0D01*
G01*
X152412000Y-74518000D02*
G75*
G03X153912000Y-74518000I750000J0D01*
G01*
X156452000Y-74518000D02*
X156452000Y-73818000D01*
X154952000Y-74518000D02*
X154952000Y-73818000D01*
X156452000Y-73818000D02*
G75*
G03X154952000Y-73818000I-750000J0D01*
G01*
X154952000Y-74518000D02*
G75*
G03X156452000Y-74518000I750000J0D01*
G01*
X156452000Y-66898000D02*
X156452000Y-66198000D01*
X154952000Y-66898000D02*
X154952000Y-66198000D01*
X156452000Y-66198000D02*
G75*
G03X154952000Y-66198000I-750000J0D01*
G01*
X154952000Y-66898000D02*
G75*
G03X156452000Y-66898000I750000J0D01*
G01*
X153912000Y-66898000D02*
X153912000Y-66198000D01*
X152412000Y-66898000D02*
X152412000Y-66198000D01*
X153912000Y-66198000D02*
G75*
G03X152412000Y-66198000I-750000J0D01*
G01*
X152412000Y-66898000D02*
G75*
G03X153912000Y-66898000I750000J0D01*
G01*
X151372000Y-66898000D02*
X151372000Y-66198000D01*
X149872000Y-66898000D02*
X149872000Y-66198000D01*
X151372000Y-66198000D02*
G75*
G03X149872000Y-66198000I-750000J0D01*
G01*
X149872000Y-66898000D02*
G75*
G03X151372000Y-66898000I750000J0D01*
G01*
X148832000Y-66898000D02*
X148832000Y-66198000D01*
X147332000Y-66898000D02*
X147332000Y-66198000D01*
X148832000Y-66198000D02*
G75*
G03X147332000Y-66198000I-750000J0D01*
G01*
X147332000Y-66898000D02*
G75*
G03X148832000Y-66898000I750000J0D01*
G01*
X146292000Y-66898000D02*
X146292000Y-66198000D01*
X144792000Y-66898000D02*
X144792000Y-66198000D01*
X146292000Y-66198000D02*
G75*
G03X144792000Y-66198000I-750000J0D01*
G01*
X144792000Y-66898000D02*
G75*
G03X146292000Y-66898000I750000J0D01*
G01*
X143752000Y-66898000D02*
X143752000Y-66198000D01*
X142252000Y-66898000D02*
X142252000Y-66198000D01*
X143752000Y-66198000D02*
G75*
G03X142252000Y-66198000I-750000J0D01*
G01*
X142252000Y-66898000D02*
G75*
G03X143752000Y-66898000I750000J0D01*
G01*
X141212000Y-66898000D02*
X141212000Y-66198000D01*
X139712000Y-66898000D02*
X139712000Y-66198000D01*
X141212000Y-66198000D02*
G75*
G03X139712000Y-66198000I-750000J0D01*
G01*
X139712000Y-66898000D02*
G75*
G03X141212000Y-66898000I750000J0D01*
G01*
X138672000Y-66898000D02*
X138672000Y-66198000D01*
X137172000Y-66898000D02*
X137172000Y-66198000D01*
X138672000Y-66198000D02*
G75*
G03X137172000Y-66198000I-750000J0D01*
G01*
X137172000Y-66898000D02*
G75*
G03X138672000Y-66898000I750000J0D01*
G01*
X136132000Y-66898000D02*
X136132000Y-66198000D01*
X134632000Y-66898000D02*
X134632000Y-66198000D01*
X136132000Y-66198000D02*
G75*
G03X134632000Y-66198000I-750000J0D01*
G01*
X134632000Y-66898000D02*
G75*
G03X136132000Y-66898000I750000J0D01*
G01*
X133592000Y-66898000D02*
X133592000Y-66198000D01*
X132092000Y-66898000D02*
X132092000Y-66198000D01*
X133592000Y-66198000D02*
G75*
G03X132092000Y-66198000I-750000J0D01*
G01*
X132092000Y-66898000D02*
G75*
G03X133592000Y-66898000I750000J0D01*
G01*
X131052000Y-66898000D02*
X131052000Y-66198000D01*
X129552000Y-66898000D02*
X129552000Y-66198000D01*
X131052000Y-66198000D02*
G75*
G03X129552000Y-66198000I-750000J0D01*
G01*
X129552000Y-66898000D02*
G75*
G03X131052000Y-66898000I750000J0D01*
G01*
X128512000Y-66898000D02*
X128512000Y-66198000D01*
X127012000Y-66898000D02*
X127012000Y-66198000D01*
X128512000Y-66198000D02*
G75*
G03X127012000Y-66198000I-750000J0D01*
G01*
X127012000Y-66898000D02*
G75*
G03X128512000Y-66898000I750000J0D01*
G01*
X125972000Y-66898000D02*
X125972000Y-66198000D01*
X124472000Y-66898000D02*
X124472000Y-66198000D01*
X125972000Y-66198000D02*
G75*
G03X124472000Y-66198000I-750000J0D01*
G01*
X124472000Y-66898000D02*
G75*
G03X125972000Y-66898000I750000J0D01*
G01*
X123432000Y-66898000D02*
X123432000Y-66198000D01*
X121932000Y-66898000D02*
X121932000Y-66198000D01*
X123432000Y-66198000D02*
G75*
G03X121932000Y-66198000I-750000J0D01*
G01*
X121932000Y-66898000D02*
G75*
G03X123432000Y-66898000I750000J0D01*
G01*
X121868400Y-79756000D02*
X121868400Y-79756000D01*
X123495600Y-79756000D02*
X123495600Y-79756000D01*
X121868400Y-79756000D02*
G75*
G03X123495600Y-79756000I813600J0D01*
G01*
X123495600Y-79756000D02*
G75*
G03X121868400Y-79756000I-813600J0D01*
G01*
X119328400Y-82296000D02*
X119328400Y-82296000D01*
X120955600Y-82296000D02*
X120955600Y-82296000D01*
X119328400Y-82296000D02*
G75*
G03X120955600Y-82296000I813600J0D01*
G01*
X120955600Y-82296000D02*
G75*
G03X119328400Y-82296000I-813600J0D01*
G01*
X121868400Y-82296000D02*
X121868400Y-82296000D01*
X123495600Y-82296000D02*
X123495600Y-82296000D01*
X121868400Y-82296000D02*
G75*
G03X123495600Y-82296000I813600J0D01*
G01*
X123495600Y-82296000D02*
G75*
G03X121868400Y-82296000I-813600J0D01*
G01*
X119328400Y-84836000D02*
X119328400Y-84836000D01*
X120955600Y-84836000D02*
X120955600Y-84836000D01*
X119328400Y-84836000D02*
G75*
G03X120955600Y-84836000I813600J0D01*
G01*
X120955600Y-84836000D02*
G75*
G03X119328400Y-84836000I-813600J0D01*
G01*
X121868400Y-84836000D02*
X121868400Y-84836000D01*
X123495600Y-84836000D02*
X123495600Y-84836000D01*
X121868400Y-84836000D02*
G75*
G03X123495600Y-84836000I813600J0D01*
G01*
X123495600Y-84836000D02*
G75*
G03X121868400Y-84836000I-813600J0D01*
G01*
X129032000Y-79044000D02*
X129032000Y-79044000D01*
X129032000Y-80976000D02*
X129032000Y-80976000D01*
X129032000Y-79044000D02*
G75*
G03X129032000Y-80976000I0J-966000D01*
G01*
X129032000Y-80976000D02*
G75*
G03X129032000Y-79044000I0J966000D01*
G01*
X171892000Y-78763500D02*
G75*
G03X171892000Y-78763500I-950000J0D01*
G01*
X171892000Y-76263500D02*
G75*
G03X171892000Y-76263500I-950000J0D01*
G01*
X171892000Y-73763500D02*
G75*
G03X171892000Y-73763500I-950000J0D01*
G01*
X171892000Y-71263500D02*
G75*
G03X171892000Y-71263500I-950000J0D01*
G01*
X161684500Y-80264000D02*
G75*
G03X161684500Y-80264000I-648500J0D01*
G01*
X161684500Y-72644000D02*
G75*
G03X161684500Y-72644000I-648500J0D01*
G01*
X158890500Y-77978000D02*
G75*
G03X158890500Y-77978000I-648500J0D01*
G01*
X151270500Y-77978000D02*
G75*
G03X151270500Y-77978000I-648500J0D01*
G01*
X158890500Y-80772000D02*
G75*
G03X158890500Y-80772000I-648500J0D01*
G01*
X151270500Y-80772000D02*
G75*
G03X151270500Y-80772000I-648500J0D01*
G01*
X115456500Y-66548000D02*
G75*
G03X115456500Y-66548000I-648500J0D01*
G01*
X115456500Y-74168000D02*
G75*
G03X115456500Y-74168000I-648500J0D01*
G01*
X164732500Y-72644000D02*
G75*
G03X164732500Y-72644000I-648500J0D01*
G01*
X164732500Y-80264000D02*
G75*
G03X164732500Y-80264000I-648500J0D01*
G01*
X164732500Y-68834000D02*
G75*
G03X164732500Y-68834000I-648500J0D01*
G01*
X164732500Y-61214000D02*
G75*
G03X164732500Y-61214000I-648500J0D01*
G01*
X161684500Y-68834000D02*
G75*
G03X161684500Y-68834000I-648500J0D01*
G01*
X161684500Y-61214000D02*
G75*
G03X161684500Y-61214000I-648500J0D01*
G01*
X137046500Y-60452000D02*
G75*
G03X137046500Y-60452000I-648500J0D01*
G01*
X137046500Y-52832000D02*
G75*
G03X137046500Y-52832000I-648500J0D01*
G01*
X144158500Y-60452000D02*
G75*
G03X144158500Y-60452000I-648500J0D01*
G01*
X144158500Y-52832000D02*
G75*
G03X144158500Y-52832000I-648500J0D01*
G01*
X132238000Y-42152000D02*
X132938000Y-42152000D01*
X132238000Y-40652000D02*
X132938000Y-40652000D01*
X132938000Y-42152000D02*
G75*
G03X132938000Y-40652000I0J750000D01*
G01*
X132238000Y-40652000D02*
G75*
G03X132238000Y-42152000I0J-750000D01*
G01*
X132238000Y-44692000D02*
X132938000Y-44692000D01*
X132238000Y-43192000D02*
X132938000Y-43192000D01*
X132938000Y-44692000D02*
G75*
G03X132938000Y-43192000I0J750000D01*
G01*
X132238000Y-43192000D02*
G75*
G03X132238000Y-44692000I0J-750000D01*
G01*
X132238000Y-47232000D02*
X132938000Y-47232000D01*
X132238000Y-45732000D02*
X132938000Y-45732000D01*
X132938000Y-47232000D02*
G75*
G03X132938000Y-45732000I0J750000D01*
G01*
X132238000Y-45732000D02*
G75*
G03X132238000Y-47232000I0J-750000D01*
G01*
X132238000Y-49772000D02*
X132938000Y-49772000D01*
X132238000Y-48272000D02*
X132938000Y-48272000D01*
X132938000Y-49772000D02*
G75*
G03X132938000Y-48272000I0J750000D01*
G01*
X132238000Y-48272000D02*
G75*
G03X132238000Y-49772000I0J-750000D01*
G01*
X139858000Y-49772000D02*
X140558000Y-49772000D01*
X139858000Y-48272000D02*
X140558000Y-48272000D01*
X140558000Y-49772000D02*
G75*
G03X140558000Y-48272000I0J750000D01*
G01*
X139858000Y-48272000D02*
G75*
G03X139858000Y-49772000I0J-750000D01*
G01*
X139858000Y-47232000D02*
X140558000Y-47232000D01*
X139858000Y-45732000D02*
X140558000Y-45732000D01*
X140558000Y-47232000D02*
G75*
G03X140558000Y-45732000I0J750000D01*
G01*
X139858000Y-45732000D02*
G75*
G03X139858000Y-47232000I0J-750000D01*
G01*
X139858000Y-44692000D02*
X140558000Y-44692000D01*
X139858000Y-43192000D02*
X140558000Y-43192000D01*
X140558000Y-44692000D02*
G75*
G03X140558000Y-43192000I0J750000D01*
G01*
X139858000Y-43192000D02*
G75*
G03X139858000Y-44692000I0J-750000D01*
G01*
X139858000Y-42152000D02*
X140558000Y-42152000D01*
X139858000Y-40652000D02*
X140558000Y-40652000D01*
X140558000Y-42152000D02*
G75*
G03X140558000Y-40652000I0J750000D01*
G01*
X139858000Y-40652000D02*
G75*
G03X139858000Y-42152000I0J-750000D01*
G01*
X146462000Y-42152000D02*
X147162000Y-42152000D01*
X146462000Y-40652000D02*
X147162000Y-40652000D01*
X147162000Y-42152000D02*
G75*
G03X147162000Y-40652000I0J750000D01*
G01*
X146462000Y-40652000D02*
G75*
G03X146462000Y-42152000I0J-750000D01*
G01*
X146462000Y-44692000D02*
X147162000Y-44692000D01*
X146462000Y-43192000D02*
X147162000Y-43192000D01*
X147162000Y-44692000D02*
G75*
G03X147162000Y-43192000I0J750000D01*
G01*
X146462000Y-43192000D02*
G75*
G03X146462000Y-44692000I0J-750000D01*
G01*
X146462000Y-47232000D02*
X147162000Y-47232000D01*
X146462000Y-45732000D02*
X147162000Y-45732000D01*
X147162000Y-47232000D02*
G75*
G03X147162000Y-45732000I0J750000D01*
G01*
X146462000Y-45732000D02*
G75*
G03X146462000Y-47232000I0J-750000D01*
G01*
X146462000Y-49772000D02*
X147162000Y-49772000D01*
X146462000Y-48272000D02*
X147162000Y-48272000D01*
X147162000Y-49772000D02*
G75*
G03X147162000Y-48272000I0J750000D01*
G01*
X146462000Y-48272000D02*
G75*
G03X146462000Y-49772000I0J-750000D01*
G01*
X146462000Y-52312000D02*
X147162000Y-52312000D01*
X146462000Y-50812000D02*
X147162000Y-50812000D01*
X147162000Y-52312000D02*
G75*
G03X147162000Y-50812000I0J750000D01*
G01*
X146462000Y-50812000D02*
G75*
G03X146462000Y-52312000I0J-750000D01*
G01*
X146462000Y-54852000D02*
X147162000Y-54852000D01*
X146462000Y-53352000D02*
X147162000Y-53352000D01*
X147162000Y-54852000D02*
G75*
G03X147162000Y-53352000I0J750000D01*
G01*
X146462000Y-53352000D02*
G75*
G03X146462000Y-54852000I0J-750000D01*
G01*
X146462000Y-57392000D02*
X147162000Y-57392000D01*
X146462000Y-55892000D02*
X147162000Y-55892000D01*
X147162000Y-57392000D02*
G75*
G03X147162000Y-55892000I0J750000D01*
G01*
X146462000Y-55892000D02*
G75*
G03X146462000Y-57392000I0J-750000D01*
G01*
X146462000Y-59932000D02*
X147162000Y-59932000D01*
X146462000Y-58432000D02*
X147162000Y-58432000D01*
X147162000Y-59932000D02*
G75*
G03X147162000Y-58432000I0J750000D01*
G01*
X146462000Y-58432000D02*
G75*
G03X146462000Y-59932000I0J-750000D01*
G01*
X154082000Y-59932000D02*
X154782000Y-59932000D01*
X154082000Y-58432000D02*
X154782000Y-58432000D01*
X154782000Y-59932000D02*
G75*
G03X154782000Y-58432000I0J750000D01*
G01*
X154082000Y-58432000D02*
G75*
G03X154082000Y-59932000I0J-750000D01*
G01*
X154082000Y-57392000D02*
X154782000Y-57392000D01*
X154082000Y-55892000D02*
X154782000Y-55892000D01*
X154782000Y-57392000D02*
G75*
G03X154782000Y-55892000I0J750000D01*
G01*
X154082000Y-55892000D02*
G75*
G03X154082000Y-57392000I0J-750000D01*
G01*
X154082000Y-54852000D02*
X154782000Y-54852000D01*
X154082000Y-53352000D02*
X154782000Y-53352000D01*
X154782000Y-54852000D02*
G75*
G03X154782000Y-53352000I0J750000D01*
G01*
X154082000Y-53352000D02*
G75*
G03X154082000Y-54852000I0J-750000D01*
G01*
X154082000Y-52312000D02*
X154782000Y-52312000D01*
X154082000Y-50812000D02*
X154782000Y-50812000D01*
X154782000Y-52312000D02*
G75*
G03X154782000Y-50812000I0J750000D01*
G01*
X154082000Y-50812000D02*
G75*
G03X154082000Y-52312000I0J-750000D01*
G01*
X154082000Y-49772000D02*
X154782000Y-49772000D01*
X154082000Y-48272000D02*
X154782000Y-48272000D01*
X154782000Y-49772000D02*
G75*
G03X154782000Y-48272000I0J750000D01*
G01*
X154082000Y-48272000D02*
G75*
G03X154082000Y-49772000I0J-750000D01*
G01*
X154082000Y-47232000D02*
X154782000Y-47232000D01*
X154082000Y-45732000D02*
X154782000Y-45732000D01*
X154782000Y-47232000D02*
G75*
G03X154782000Y-45732000I0J750000D01*
G01*
X154082000Y-45732000D02*
G75*
G03X154082000Y-47232000I0J-750000D01*
G01*
X154082000Y-44692000D02*
X154782000Y-44692000D01*
X154082000Y-43192000D02*
X154782000Y-43192000D01*
X154782000Y-44692000D02*
G75*
G03X154782000Y-43192000I0J750000D01*
G01*
X154082000Y-43192000D02*
G75*
G03X154082000Y-44692000I0J-750000D01*
G01*
X154082000Y-42152000D02*
X154782000Y-42152000D01*
X154082000Y-40652000D02*
X154782000Y-40652000D01*
X154782000Y-42152000D02*
G75*
G03X154782000Y-40652000I0J750000D01*
G01*
X154082000Y-40652000D02*
G75*
G03X154082000Y-42152000I0J-750000D01*
G01*
X140856500Y-80264000D02*
G75*
G03X140856500Y-80264000I-648500J0D01*
G01*
X148476500Y-80264000D02*
G75*
G03X148476500Y-80264000I-648500J0D01*
G01*
X147219200Y-86360000D02*
G75*
G03X147219200Y-86360000I-661200J0D01*
G01*
X142139200Y-86360000D02*
G75*
G03X142139200Y-86360000I-661200J0D01*
G01*
D11*
X123444095Y-37552381D02*
X123444095Y-38361905D01*
X123491714Y-38457143D01*
X123539333Y-38504762D01*
X123634571Y-38552381D01*
X123825048Y-38552381D01*
X123920286Y-38504762D01*
X123967905Y-38457143D01*
X124015524Y-38361905D01*
X124015524Y-37552381D01*
X125015524Y-38552381D02*
X124444095Y-38552381D01*
X124729809Y-38552381D02*
X124729809Y-37552381D01*
X124634571Y-37695238D01*
X124539333Y-37790476D01*
X124444095Y-37838095D01*
X111665143Y-47958666D02*
X111712762Y-48006285D01*
X111760381Y-48149142D01*
X111760381Y-48244380D01*
X111712762Y-48387238D01*
X111617524Y-48482476D01*
X111522286Y-48530095D01*
X111331810Y-48577714D01*
X111188952Y-48577714D01*
X110998476Y-48530095D01*
X110903238Y-48482476D01*
X110808000Y-48387238D01*
X110760381Y-48244380D01*
X110760381Y-48149142D01*
X110808000Y-48006285D01*
X110855619Y-47958666D01*
X111760381Y-47006285D02*
X111760381Y-47577714D01*
X111760381Y-47292000D02*
X110760381Y-47292000D01*
X110903238Y-47387238D01*
X110998476Y-47482476D01*
X111046095Y-47577714D01*
X111665143Y-56594666D02*
X111712762Y-56642285D01*
X111760381Y-56785142D01*
X111760381Y-56880380D01*
X111712762Y-57023238D01*
X111617524Y-57118476D01*
X111522286Y-57166095D01*
X111331810Y-57213714D01*
X111188952Y-57213714D01*
X110998476Y-57166095D01*
X110903238Y-57118476D01*
X110808000Y-57023238D01*
X110760381Y-56880380D01*
X110760381Y-56785142D01*
X110808000Y-56642285D01*
X110855619Y-56594666D01*
X110855619Y-56213714D02*
X110808000Y-56166095D01*
X110760381Y-56070857D01*
X110760381Y-55832761D01*
X110808000Y-55737523D01*
X110855619Y-55689904D01*
X110950857Y-55642285D01*
X111046095Y-55642285D01*
X111188952Y-55689904D01*
X111760381Y-56261333D01*
X111760381Y-55642285D01*
X120737334Y-61317143D02*
X120689715Y-61364762D01*
X120546858Y-61412381D01*
X120451620Y-61412381D01*
X120308762Y-61364762D01*
X120213524Y-61269524D01*
X120165905Y-61174286D01*
X120118286Y-60983810D01*
X120118286Y-60840952D01*
X120165905Y-60650476D01*
X120213524Y-60555238D01*
X120308762Y-60460000D01*
X120451620Y-60412381D01*
X120546858Y-60412381D01*
X120689715Y-60460000D01*
X120737334Y-60507619D01*
X121070667Y-60412381D02*
X121689715Y-60412381D01*
X121356381Y-60793333D01*
X121499239Y-60793333D01*
X121594477Y-60840952D01*
X121642096Y-60888571D01*
X121689715Y-60983810D01*
X121689715Y-61221905D01*
X121642096Y-61317143D01*
X121594477Y-61364762D01*
X121499239Y-61412381D01*
X121213524Y-61412381D01*
X121118286Y-61364762D01*
X121070667Y-61317143D01*
X127087334Y-61317143D02*
X127039715Y-61364762D01*
X126896858Y-61412381D01*
X126801620Y-61412381D01*
X126658762Y-61364762D01*
X126563524Y-61269524D01*
X126515905Y-61174286D01*
X126468286Y-60983810D01*
X126468286Y-60840952D01*
X126515905Y-60650476D01*
X126563524Y-60555238D01*
X126658762Y-60460000D01*
X126801620Y-60412381D01*
X126896858Y-60412381D01*
X127039715Y-60460000D01*
X127087334Y-60507619D01*
X127944477Y-60745714D02*
X127944477Y-61412381D01*
X127706381Y-60364762D02*
X127468286Y-61079048D01*
X128087334Y-61079048D01*
X133437334Y-86717143D02*
X133389715Y-86764762D01*
X133246858Y-86812381D01*
X133151620Y-86812381D01*
X133008762Y-86764762D01*
X132913524Y-86669524D01*
X132865905Y-86574286D01*
X132818286Y-86383810D01*
X132818286Y-86240952D01*
X132865905Y-86050476D01*
X132913524Y-85955238D01*
X133008762Y-85860000D01*
X133151620Y-85812381D01*
X133246858Y-85812381D01*
X133389715Y-85860000D01*
X133437334Y-85907619D01*
X134342096Y-85812381D02*
X133865905Y-85812381D01*
X133818286Y-86288571D01*
X133865905Y-86240952D01*
X133961143Y-86193333D01*
X134199239Y-86193333D01*
X134294477Y-86240952D01*
X134342096Y-86288571D01*
X134389715Y-86383810D01*
X134389715Y-86621905D01*
X134342096Y-86717143D01*
X134294477Y-86764762D01*
X134199239Y-86812381D01*
X133961143Y-86812381D01*
X133865905Y-86764762D01*
X133818286Y-86717143D01*
X154265334Y-86717143D02*
X154217715Y-86764762D01*
X154074858Y-86812381D01*
X153979620Y-86812381D01*
X153836762Y-86764762D01*
X153741524Y-86669524D01*
X153693905Y-86574286D01*
X153646286Y-86383810D01*
X153646286Y-86240952D01*
X153693905Y-86050476D01*
X153741524Y-85955238D01*
X153836762Y-85860000D01*
X153979620Y-85812381D01*
X154074858Y-85812381D01*
X154217715Y-85860000D01*
X154265334Y-85907619D01*
X155122477Y-85812381D02*
X154932000Y-85812381D01*
X154836762Y-85860000D01*
X154789143Y-85907619D01*
X154693905Y-86050476D01*
X154646286Y-86240952D01*
X154646286Y-86621905D01*
X154693905Y-86717143D01*
X154741524Y-86764762D01*
X154836762Y-86812381D01*
X155027239Y-86812381D01*
X155122477Y-86764762D01*
X155170096Y-86717143D01*
X155217715Y-86621905D01*
X155217715Y-86383810D01*
X155170096Y-86288571D01*
X155122477Y-86240952D01*
X155027239Y-86193333D01*
X154836762Y-86193333D01*
X154741524Y-86240952D01*
X154693905Y-86288571D01*
X154646286Y-86383810D01*
X115165143Y-80684666D02*
X115212762Y-80732285D01*
X115260381Y-80875142D01*
X115260381Y-80970380D01*
X115212762Y-81113238D01*
X115117524Y-81208476D01*
X115022286Y-81256095D01*
X114831810Y-81303714D01*
X114688952Y-81303714D01*
X114498476Y-81256095D01*
X114403238Y-81208476D01*
X114308000Y-81113238D01*
X114260381Y-80970380D01*
X114260381Y-80875142D01*
X114308000Y-80732285D01*
X114355619Y-80684666D01*
X114260381Y-80351333D02*
X114260381Y-79684666D01*
X115260381Y-80113238D01*
X139787334Y-61317143D02*
X139739715Y-61364762D01*
X139596858Y-61412381D01*
X139501620Y-61412381D01*
X139358762Y-61364762D01*
X139263524Y-61269524D01*
X139215905Y-61174286D01*
X139168286Y-60983810D01*
X139168286Y-60840952D01*
X139215905Y-60650476D01*
X139263524Y-60555238D01*
X139358762Y-60460000D01*
X139501620Y-60412381D01*
X139596858Y-60412381D01*
X139739715Y-60460000D01*
X139787334Y-60507619D01*
X140358762Y-60840952D02*
X140263524Y-60793333D01*
X140215905Y-60745714D01*
X140168286Y-60650476D01*
X140168286Y-60602857D01*
X140215905Y-60507619D01*
X140263524Y-60460000D01*
X140358762Y-60412381D01*
X140549239Y-60412381D01*
X140644477Y-60460000D01*
X140692096Y-60507619D01*
X140739715Y-60602857D01*
X140739715Y-60650476D01*
X140692096Y-60745714D01*
X140644477Y-60793333D01*
X140549239Y-60840952D01*
X140358762Y-60840952D01*
X140263524Y-60888571D01*
X140215905Y-60936190D01*
X140168286Y-61031429D01*
X140168286Y-61221905D01*
X140215905Y-61317143D01*
X140263524Y-61364762D01*
X140358762Y-61412381D01*
X140549239Y-61412381D01*
X140644477Y-61364762D01*
X140692096Y-61317143D01*
X140739715Y-61221905D01*
X140739715Y-61031429D01*
X140692096Y-60936190D01*
X140644477Y-60888571D01*
X140549239Y-60840952D01*
X132675334Y-61317143D02*
X132627715Y-61364762D01*
X132484858Y-61412381D01*
X132389620Y-61412381D01*
X132246762Y-61364762D01*
X132151524Y-61269524D01*
X132103905Y-61174286D01*
X132056286Y-60983810D01*
X132056286Y-60840952D01*
X132103905Y-60650476D01*
X132151524Y-60555238D01*
X132246762Y-60460000D01*
X132389620Y-60412381D01*
X132484858Y-60412381D01*
X132627715Y-60460000D01*
X132675334Y-60507619D01*
X133151524Y-61412381D02*
X133342000Y-61412381D01*
X133437239Y-61364762D01*
X133484858Y-61317143D01*
X133580096Y-61174286D01*
X133627715Y-60983810D01*
X133627715Y-60602857D01*
X133580096Y-60507619D01*
X133532477Y-60460000D01*
X133437239Y-60412381D01*
X133246762Y-60412381D01*
X133151524Y-60460000D01*
X133103905Y-60507619D01*
X133056286Y-60602857D01*
X133056286Y-60840952D01*
X133103905Y-60936190D01*
X133151524Y-60983810D01*
X133246762Y-61031429D01*
X133437239Y-61031429D01*
X133532477Y-60983810D01*
X133580096Y-60936190D01*
X133627715Y-60840952D01*
X175379143Y-66397143D02*
X175331524Y-66444762D01*
X175188667Y-66492381D01*
X175093429Y-66492381D01*
X174950571Y-66444762D01*
X174855333Y-66349524D01*
X174807714Y-66254286D01*
X174760095Y-66063810D01*
X174760095Y-65920952D01*
X174807714Y-65730476D01*
X174855333Y-65635238D01*
X174950571Y-65540000D01*
X175093429Y-65492381D01*
X175188667Y-65492381D01*
X175331524Y-65540000D01*
X175379143Y-65587619D01*
X176331524Y-66492381D02*
X175760095Y-66492381D01*
X176045809Y-66492381D02*
X176045809Y-65492381D01*
X175950571Y-65635238D01*
X175855333Y-65730476D01*
X175760095Y-65778095D01*
X176950571Y-65492381D02*
X177045810Y-65492381D01*
X177141048Y-65540000D01*
X177188667Y-65587619D01*
X177236286Y-65682857D01*
X177283905Y-65873333D01*
X177283905Y-66111429D01*
X177236286Y-66301905D01*
X177188667Y-66397143D01*
X177141048Y-66444762D01*
X177045810Y-66492381D01*
X176950571Y-66492381D01*
X176855333Y-66444762D01*
X176807714Y-66397143D01*
X176760095Y-66301905D01*
X176712476Y-66111429D01*
X176712476Y-65873333D01*
X176760095Y-65682857D01*
X176807714Y-65587619D01*
X176855333Y-65540000D01*
X176950571Y-65492381D01*
X116355905Y-65476381D02*
X116355905Y-64476381D01*
X116594000Y-64476381D01*
X116736858Y-64524000D01*
X116832096Y-64619238D01*
X116879715Y-64714476D01*
X116927334Y-64904952D01*
X116927334Y-65047810D01*
X116879715Y-65238286D01*
X116832096Y-65333524D01*
X116736858Y-65428762D01*
X116594000Y-65476381D01*
X116355905Y-65476381D01*
X117879715Y-65476381D02*
X117308286Y-65476381D01*
X117594000Y-65476381D02*
X117594000Y-64476381D01*
X117498762Y-64619238D01*
X117403524Y-64714476D01*
X117308286Y-64762095D01*
X132611905Y-63444381D02*
X132611905Y-62444381D01*
X132850000Y-62444381D01*
X132992858Y-62492000D01*
X133088096Y-62587238D01*
X133135715Y-62682476D01*
X133183334Y-62872952D01*
X133183334Y-63015810D01*
X133135715Y-63206286D01*
X133088096Y-63301524D01*
X132992858Y-63396762D01*
X132850000Y-63444381D01*
X132611905Y-63444381D01*
X133564286Y-62539619D02*
X133611905Y-62492000D01*
X133707143Y-62444381D01*
X133945239Y-62444381D01*
X134040477Y-62492000D01*
X134088096Y-62539619D01*
X134135715Y-62634857D01*
X134135715Y-62730095D01*
X134088096Y-62872952D01*
X133516667Y-63444381D01*
X134135715Y-63444381D01*
X119832381Y-71588190D02*
X118832381Y-71588190D01*
X119737143Y-70540571D02*
X119784762Y-70588190D01*
X119832381Y-70731047D01*
X119832381Y-70826285D01*
X119784762Y-70969143D01*
X119689524Y-71064381D01*
X119594286Y-71112000D01*
X119403810Y-71159619D01*
X119260952Y-71159619D01*
X119070476Y-71112000D01*
X118975238Y-71064381D01*
X118880000Y-70969143D01*
X118832381Y-70826285D01*
X118832381Y-70731047D01*
X118880000Y-70588190D01*
X118927619Y-70540571D01*
X119832381Y-69588190D02*
X119832381Y-70159619D01*
X119832381Y-69873905D02*
X118832381Y-69873905D01*
X118975238Y-69969143D01*
X119070476Y-70064381D01*
X119118095Y-70159619D01*
X120673905Y-77668381D02*
X120673905Y-76668381D01*
X121054858Y-76668381D01*
X121150096Y-76716000D01*
X121197715Y-76763619D01*
X121245334Y-76858857D01*
X121245334Y-77001714D01*
X121197715Y-77096952D01*
X121150096Y-77144571D01*
X121054858Y-77192190D01*
X120673905Y-77192190D01*
X122197715Y-77668381D02*
X121626286Y-77668381D01*
X121912000Y-77668381D02*
X121912000Y-76668381D01*
X121816762Y-76811238D01*
X121721524Y-76906476D01*
X121626286Y-76954095D01*
X126944381Y-80748095D02*
X125944381Y-80748095D01*
X125944381Y-80367142D01*
X125992000Y-80271904D01*
X126039619Y-80224285D01*
X126134857Y-80176666D01*
X126277714Y-80176666D01*
X126372952Y-80224285D01*
X126420571Y-80271904D01*
X126468190Y-80367142D01*
X126468190Y-80748095D01*
X126039619Y-79795714D02*
X125992000Y-79748095D01*
X125944381Y-79652857D01*
X125944381Y-79414761D01*
X125992000Y-79319523D01*
X126039619Y-79271904D01*
X126134857Y-79224285D01*
X126230095Y-79224285D01*
X126372952Y-79271904D01*
X126944381Y-79843333D01*
X126944381Y-79224285D01*
X167838381Y-75922095D02*
X166838381Y-75922095D01*
X166838381Y-75541142D01*
X166886000Y-75445904D01*
X166933619Y-75398285D01*
X167028857Y-75350666D01*
X167171714Y-75350666D01*
X167266952Y-75398285D01*
X167314571Y-75445904D01*
X167362190Y-75541142D01*
X167362190Y-75922095D01*
X166838381Y-75017333D02*
X166838381Y-74398285D01*
X167219333Y-74731619D01*
X167219333Y-74588761D01*
X167266952Y-74493523D01*
X167314571Y-74445904D01*
X167409810Y-74398285D01*
X167647905Y-74398285D01*
X167743143Y-74445904D01*
X167790762Y-74493523D01*
X167838381Y-74588761D01*
X167838381Y-74874476D01*
X167790762Y-74969714D01*
X167743143Y-75017333D01*
X158068381Y-51928095D02*
X157068381Y-51928095D01*
X157068381Y-51547142D01*
X157116000Y-51451904D01*
X157163619Y-51404285D01*
X157258857Y-51356666D01*
X157401714Y-51356666D01*
X157496952Y-51404285D01*
X157544571Y-51451904D01*
X157592190Y-51547142D01*
X157592190Y-51928095D01*
X157401714Y-50499523D02*
X158068381Y-50499523D01*
X157020762Y-50737619D02*
X157735048Y-50975714D01*
X157735048Y-50356666D01*
X159710381Y-75858666D02*
X159234190Y-76192000D01*
X159710381Y-76430095D02*
X158710381Y-76430095D01*
X158710381Y-76049142D01*
X158758000Y-75953904D01*
X158805619Y-75906285D01*
X158900857Y-75858666D01*
X159043714Y-75858666D01*
X159138952Y-75906285D01*
X159186571Y-75953904D01*
X159234190Y-76049142D01*
X159234190Y-76430095D01*
X159710381Y-74906285D02*
X159710381Y-75477714D01*
X159710381Y-75192000D02*
X158710381Y-75192000D01*
X158853238Y-75287238D01*
X158948476Y-75382476D01*
X158996095Y-75477714D01*
X154265334Y-76652381D02*
X153932000Y-76176190D01*
X153693905Y-76652381D02*
X153693905Y-75652381D01*
X154074858Y-75652381D01*
X154170096Y-75700000D01*
X154217715Y-75747619D01*
X154265334Y-75842857D01*
X154265334Y-75985714D01*
X154217715Y-76080952D01*
X154170096Y-76128571D01*
X154074858Y-76176190D01*
X153693905Y-76176190D01*
X154646286Y-75747619D02*
X154693905Y-75700000D01*
X154789143Y-75652381D01*
X155027239Y-75652381D01*
X155122477Y-75700000D01*
X155170096Y-75747619D01*
X155217715Y-75842857D01*
X155217715Y-75938095D01*
X155170096Y-76080952D01*
X154598667Y-76652381D01*
X155217715Y-76652381D01*
X154265334Y-83002381D02*
X153932000Y-82526190D01*
X153693905Y-83002381D02*
X153693905Y-82002381D01*
X154074858Y-82002381D01*
X154170096Y-82050000D01*
X154217715Y-82097619D01*
X154265334Y-82192857D01*
X154265334Y-82335714D01*
X154217715Y-82430952D01*
X154170096Y-82478571D01*
X154074858Y-82526190D01*
X153693905Y-82526190D01*
X154598667Y-82002381D02*
X155217715Y-82002381D01*
X154884381Y-82383333D01*
X155027239Y-82383333D01*
X155122477Y-82430952D01*
X155170096Y-82478571D01*
X155217715Y-82573810D01*
X155217715Y-82811905D01*
X155170096Y-82907143D01*
X155122477Y-82954762D01*
X155027239Y-83002381D01*
X154741524Y-83002381D01*
X154646286Y-82954762D01*
X154598667Y-82907143D01*
X113482381Y-70524666D02*
X113006190Y-70858000D01*
X113482381Y-71096095D02*
X112482381Y-71096095D01*
X112482381Y-70715142D01*
X112530000Y-70619904D01*
X112577619Y-70572285D01*
X112672857Y-70524666D01*
X112815714Y-70524666D01*
X112910952Y-70572285D01*
X112958571Y-70619904D01*
X113006190Y-70715142D01*
X113006190Y-71096095D01*
X112815714Y-69667523D02*
X113482381Y-69667523D01*
X112434762Y-69905619D02*
X113149048Y-70143714D01*
X113149048Y-69524666D01*
X166314381Y-76620666D02*
X165838190Y-76954000D01*
X166314381Y-77192095D02*
X165314381Y-77192095D01*
X165314381Y-76811142D01*
X165362000Y-76715904D01*
X165409619Y-76668285D01*
X165504857Y-76620666D01*
X165647714Y-76620666D01*
X165742952Y-76668285D01*
X165790571Y-76715904D01*
X165838190Y-76811142D01*
X165838190Y-77192095D01*
X165314381Y-75715904D02*
X165314381Y-76192095D01*
X165790571Y-76239714D01*
X165742952Y-76192095D01*
X165695333Y-76096857D01*
X165695333Y-75858761D01*
X165742952Y-75763523D01*
X165790571Y-75715904D01*
X165885810Y-75668285D01*
X166123905Y-75668285D01*
X166219143Y-75715904D01*
X166266762Y-75763523D01*
X166314381Y-75858761D01*
X166314381Y-76096857D01*
X166266762Y-76192095D01*
X166219143Y-76239714D01*
X166314381Y-65190666D02*
X165838190Y-65524000D01*
X166314381Y-65762095D02*
X165314381Y-65762095D01*
X165314381Y-65381142D01*
X165362000Y-65285904D01*
X165409619Y-65238285D01*
X165504857Y-65190666D01*
X165647714Y-65190666D01*
X165742952Y-65238285D01*
X165790571Y-65285904D01*
X165838190Y-65381142D01*
X165838190Y-65762095D01*
X165314381Y-64333523D02*
X165314381Y-64524000D01*
X165362000Y-64619238D01*
X165409619Y-64666857D01*
X165552476Y-64762095D01*
X165742952Y-64809714D01*
X166123905Y-64809714D01*
X166219143Y-64762095D01*
X166266762Y-64714476D01*
X166314381Y-64619238D01*
X166314381Y-64428761D01*
X166266762Y-64333523D01*
X166219143Y-64285904D01*
X166123905Y-64238285D01*
X165885810Y-64238285D01*
X165790571Y-64285904D01*
X165742952Y-64333523D01*
X165695333Y-64428761D01*
X165695333Y-64619238D01*
X165742952Y-64714476D01*
X165790571Y-64762095D01*
X165885810Y-64809714D01*
X159710381Y-65190666D02*
X159234190Y-65524000D01*
X159710381Y-65762095D02*
X158710381Y-65762095D01*
X158710381Y-65381142D01*
X158758000Y-65285904D01*
X158805619Y-65238285D01*
X158900857Y-65190666D01*
X159043714Y-65190666D01*
X159138952Y-65238285D01*
X159186571Y-65285904D01*
X159234190Y-65381142D01*
X159234190Y-65762095D01*
X158710381Y-64857333D02*
X158710381Y-64190666D01*
X159710381Y-64619238D01*
X136231334Y-62682381D02*
X135898000Y-62206190D01*
X135659905Y-62682381D02*
X135659905Y-61682381D01*
X136040858Y-61682381D01*
X136136096Y-61730000D01*
X136183715Y-61777619D01*
X136231334Y-61872857D01*
X136231334Y-62015714D01*
X136183715Y-62110952D01*
X136136096Y-62158571D01*
X136040858Y-62206190D01*
X135659905Y-62206190D01*
X136802762Y-62110952D02*
X136707524Y-62063333D01*
X136659905Y-62015714D01*
X136612286Y-61920476D01*
X136612286Y-61872857D01*
X136659905Y-61777619D01*
X136707524Y-61730000D01*
X136802762Y-61682381D01*
X136993239Y-61682381D01*
X137088477Y-61730000D01*
X137136096Y-61777619D01*
X137183715Y-61872857D01*
X137183715Y-61920476D01*
X137136096Y-62015714D01*
X137088477Y-62063333D01*
X136993239Y-62110952D01*
X136802762Y-62110952D01*
X136707524Y-62158571D01*
X136659905Y-62206190D01*
X136612286Y-62301429D01*
X136612286Y-62491905D01*
X136659905Y-62587143D01*
X136707524Y-62634762D01*
X136802762Y-62682381D01*
X136993239Y-62682381D01*
X137088477Y-62634762D01*
X137136096Y-62587143D01*
X137183715Y-62491905D01*
X137183715Y-62301429D01*
X137136096Y-62206190D01*
X137088477Y-62158571D01*
X136993239Y-62110952D01*
X143343334Y-62682381D02*
X143010000Y-62206190D01*
X142771905Y-62682381D02*
X142771905Y-61682381D01*
X143152858Y-61682381D01*
X143248096Y-61730000D01*
X143295715Y-61777619D01*
X143343334Y-61872857D01*
X143343334Y-62015714D01*
X143295715Y-62110952D01*
X143248096Y-62158571D01*
X143152858Y-62206190D01*
X142771905Y-62206190D01*
X143819524Y-62682381D02*
X144010000Y-62682381D01*
X144105239Y-62634762D01*
X144152858Y-62587143D01*
X144248096Y-62444286D01*
X144295715Y-62253810D01*
X144295715Y-61872857D01*
X144248096Y-61777619D01*
X144200477Y-61730000D01*
X144105239Y-61682381D01*
X143914762Y-61682381D01*
X143819524Y-61730000D01*
X143771905Y-61777619D01*
X143724286Y-61872857D01*
X143724286Y-62110952D01*
X143771905Y-62206190D01*
X143819524Y-62253810D01*
X143914762Y-62301429D01*
X144105239Y-62301429D01*
X144200477Y-62253810D01*
X144248096Y-62206190D01*
X144295715Y-62110952D01*
X135890095Y-37552381D02*
X135890095Y-38361905D01*
X135937714Y-38457143D01*
X135985333Y-38504762D01*
X136080571Y-38552381D01*
X136271048Y-38552381D01*
X136366286Y-38504762D01*
X136413905Y-38457143D01*
X136461524Y-38361905D01*
X136461524Y-37552381D01*
X136890095Y-37647619D02*
X136937714Y-37600000D01*
X137032952Y-37552381D01*
X137271048Y-37552381D01*
X137366286Y-37600000D01*
X137413905Y-37647619D01*
X137461524Y-37742857D01*
X137461524Y-37838095D01*
X137413905Y-37980952D01*
X136842476Y-38552381D01*
X137461524Y-38552381D01*
X149860095Y-37552381D02*
X149860095Y-38361905D01*
X149907714Y-38457143D01*
X149955333Y-38504762D01*
X150050571Y-38552381D01*
X150241048Y-38552381D01*
X150336286Y-38504762D01*
X150383905Y-38457143D01*
X150431524Y-38361905D01*
X150431524Y-37552381D01*
X150812476Y-37552381D02*
X151431524Y-37552381D01*
X151098190Y-37933333D01*
X151241048Y-37933333D01*
X151336286Y-37980952D01*
X151383905Y-38028571D01*
X151431524Y-38123810D01*
X151431524Y-38361905D01*
X151383905Y-38457143D01*
X151336286Y-38504762D01*
X151241048Y-38552381D01*
X150955333Y-38552381D01*
X150860095Y-38504762D01*
X150812476Y-38457143D01*
X143375143Y-78938381D02*
X143041809Y-78462190D01*
X142803714Y-78938381D02*
X142803714Y-77938381D01*
X143184667Y-77938381D01*
X143279905Y-77986000D01*
X143327524Y-78033619D01*
X143375143Y-78128857D01*
X143375143Y-78271714D01*
X143327524Y-78366952D01*
X143279905Y-78414571D01*
X143184667Y-78462190D01*
X142803714Y-78462190D01*
X144327524Y-78938381D02*
X143756095Y-78938381D01*
X144041809Y-78938381D02*
X144041809Y-77938381D01*
X143946571Y-78081238D01*
X143851333Y-78176476D01*
X143756095Y-78224095D01*
X144946571Y-77938381D02*
X145041810Y-77938381D01*
X145137048Y-77986000D01*
X145184667Y-78033619D01*
X145232286Y-78128857D01*
X145279905Y-78319333D01*
X145279905Y-78557429D01*
X145232286Y-78747905D01*
X145184667Y-78843143D01*
X145137048Y-78890762D01*
X145041810Y-78938381D01*
X144946571Y-78938381D01*
X144851333Y-78890762D01*
X144803714Y-78843143D01*
X144756095Y-78747905D01*
X144708476Y-78557429D01*
X144708476Y-78319333D01*
X144756095Y-78128857D01*
X144803714Y-78033619D01*
X144851333Y-77986000D01*
X144946571Y-77938381D01*
X143208476Y-85812381D02*
X143875143Y-86812381D01*
X143875143Y-85812381D02*
X143208476Y-86812381D01*
X144779905Y-86812381D02*
X144208476Y-86812381D01*
X144494190Y-86812381D02*
X144494190Y-85812381D01*
X144398952Y-85955238D01*
X144303714Y-86050476D01*
X144208476Y-86098095D01*
M02*
