G04 #@! TF.FileFunction,Other,Fab,Top*
%FSLAX46Y46*%
G04 Gerber Fmt 4.6, Leading zero omitted, Abs format (unit mm)*
G04 Created by KiCad (PCBNEW 4.0.2+e4-6225~38~ubuntu16.04.1-stable) date Sex 26 Ago 2016 11:34:32 BRT*
%MOMM*%
G01*
G04 APERTURE LIST*
%ADD10C,0.100000*%
%ADD11C,0.150000*%
%ADD12C,0.300000*%
%ADD13C,0.400000*%
%ADD14C,0.050000*%
G04 APERTURE END LIST*
D10*
D11*
X177002200Y-166007200D02*
X177002200Y-198007200D01*
X285002200Y-198007200D01*
X285002200Y-166007200D01*
X177002200Y-166007200D01*
D10*
D11*
X10000000Y-10000000D02*
X10000000Y-200007200D01*
X287002200Y-200007200D01*
X287002200Y-10000000D01*
X10000000Y-10000000D01*
D10*
D11*
X12000000Y-12000000D02*
X12000000Y-198007200D01*
X285002200Y-198007200D01*
X285002200Y-12000000D01*
X12000000Y-12000000D01*
D10*
D11*
X60000000Y-12000000D02*
X60000000Y-10000000D01*
D10*
D11*
X110000000Y-12000000D02*
X110000000Y-10000000D01*
D10*
D11*
X160000000Y-12000000D02*
X160000000Y-10000000D01*
D10*
D11*
X210000000Y-12000000D02*
X210000000Y-10000000D01*
D10*
D11*
X260000000Y-12000000D02*
X260000000Y-10000000D01*
D10*
D11*
X35990476Y-11588095D02*
X35247619Y-11588095D01*
X35619048Y-11588095D02*
X35619048Y-10288095D01*
X35495238Y-10473810D01*
X35371429Y-10597619D01*
X35247619Y-10659524D01*
D10*
D11*
X85247619Y-10411905D02*
X85309524Y-10350000D01*
X85433333Y-10288095D01*
X85742857Y-10288095D01*
X85866667Y-10350000D01*
X85928571Y-10411905D01*
X85990476Y-10535714D01*
X85990476Y-10659524D01*
X85928571Y-10845238D01*
X85185714Y-11588095D01*
X85990476Y-11588095D01*
D10*
D11*
X135185714Y-10288095D02*
X135990476Y-10288095D01*
X135557143Y-10783333D01*
X135742857Y-10783333D01*
X135866667Y-10845238D01*
X135928571Y-10907143D01*
X135990476Y-11030952D01*
X135990476Y-11340476D01*
X135928571Y-11464286D01*
X135866667Y-11526190D01*
X135742857Y-11588095D01*
X135371429Y-11588095D01*
X135247619Y-11526190D01*
X135185714Y-11464286D01*
D10*
D11*
X185866667Y-10721429D02*
X185866667Y-11588095D01*
X185557143Y-10226190D02*
X185247619Y-11154762D01*
X186052381Y-11154762D01*
D10*
D11*
X235928571Y-10288095D02*
X235309524Y-10288095D01*
X235247619Y-10907143D01*
X235309524Y-10845238D01*
X235433333Y-10783333D01*
X235742857Y-10783333D01*
X235866667Y-10845238D01*
X235928571Y-10907143D01*
X235990476Y-11030952D01*
X235990476Y-11340476D01*
X235928571Y-11464286D01*
X235866667Y-11526190D01*
X235742857Y-11588095D01*
X235433333Y-11588095D01*
X235309524Y-11526190D01*
X235247619Y-11464286D01*
D10*
D11*
X285866667Y-10288095D02*
X285619048Y-10288095D01*
X285495238Y-10350000D01*
X285433333Y-10411905D01*
X285309524Y-10597619D01*
X285247619Y-10845238D01*
X285247619Y-11340476D01*
X285309524Y-11464286D01*
X285371429Y-11526190D01*
X285495238Y-11588095D01*
X285742857Y-11588095D01*
X285866667Y-11526190D01*
X285928571Y-11464286D01*
X285990476Y-11340476D01*
X285990476Y-11030952D01*
X285928571Y-10907143D01*
X285866667Y-10845238D01*
X285742857Y-10783333D01*
X285495238Y-10783333D01*
X285371429Y-10845238D01*
X285309524Y-10907143D01*
X285247619Y-11030952D01*
D10*
D11*
X60000000Y-198007200D02*
X60000000Y-200007200D01*
D10*
D11*
X110000000Y-198007200D02*
X110000000Y-200007200D01*
D10*
D11*
X160000000Y-198007200D02*
X160000000Y-200007200D01*
D10*
D11*
X210000000Y-198007200D02*
X210000000Y-200007200D01*
D10*
D11*
X260000000Y-198007200D02*
X260000000Y-200007200D01*
D10*
D11*
X35990476Y-199595295D02*
X35247619Y-199595295D01*
X35619048Y-199595295D02*
X35619048Y-198295295D01*
X35495238Y-198481010D01*
X35371429Y-198604819D01*
X35247619Y-198666724D01*
D10*
D11*
X85247619Y-198419105D02*
X85309524Y-198357200D01*
X85433333Y-198295295D01*
X85742857Y-198295295D01*
X85866667Y-198357200D01*
X85928571Y-198419105D01*
X85990476Y-198542914D01*
X85990476Y-198666724D01*
X85928571Y-198852438D01*
X85185714Y-199595295D01*
X85990476Y-199595295D01*
D10*
D11*
X135185714Y-198295295D02*
X135990476Y-198295295D01*
X135557143Y-198790533D01*
X135742857Y-198790533D01*
X135866667Y-198852438D01*
X135928571Y-198914343D01*
X135990476Y-199038152D01*
X135990476Y-199347676D01*
X135928571Y-199471486D01*
X135866667Y-199533390D01*
X135742857Y-199595295D01*
X135371429Y-199595295D01*
X135247619Y-199533390D01*
X135185714Y-199471486D01*
D10*
D11*
X185866667Y-198728629D02*
X185866667Y-199595295D01*
X185557143Y-198233390D02*
X185247619Y-199161962D01*
X186052381Y-199161962D01*
D10*
D11*
X235928571Y-198295295D02*
X235309524Y-198295295D01*
X235247619Y-198914343D01*
X235309524Y-198852438D01*
X235433333Y-198790533D01*
X235742857Y-198790533D01*
X235866667Y-198852438D01*
X235928571Y-198914343D01*
X235990476Y-199038152D01*
X235990476Y-199347676D01*
X235928571Y-199471486D01*
X235866667Y-199533390D01*
X235742857Y-199595295D01*
X235433333Y-199595295D01*
X235309524Y-199533390D01*
X235247619Y-199471486D01*
D10*
D11*
X285866667Y-198295295D02*
X285619048Y-198295295D01*
X285495238Y-198357200D01*
X285433333Y-198419105D01*
X285309524Y-198604819D01*
X285247619Y-198852438D01*
X285247619Y-199347676D01*
X285309524Y-199471486D01*
X285371429Y-199533390D01*
X285495238Y-199595295D01*
X285742857Y-199595295D01*
X285866667Y-199533390D01*
X285928571Y-199471486D01*
X285990476Y-199347676D01*
X285990476Y-199038152D01*
X285928571Y-198914343D01*
X285866667Y-198852438D01*
X285742857Y-198790533D01*
X285495238Y-198790533D01*
X285371429Y-198852438D01*
X285309524Y-198914343D01*
X285247619Y-199038152D01*
D10*
D11*
X10000000Y-60000000D02*
X12000000Y-60000000D01*
D10*
D11*
X10000000Y-110000000D02*
X12000000Y-110000000D01*
D10*
D11*
X10000000Y-160000000D02*
X12000000Y-160000000D01*
D10*
D11*
X10690476Y-35216667D02*
X11309524Y-35216667D01*
X10566667Y-35588095D02*
X11000000Y-34288095D01*
X11433333Y-35588095D01*
D10*
D11*
X11092857Y-84907143D02*
X11278571Y-84969048D01*
X11340476Y-85030952D01*
X11402381Y-85154762D01*
X11402381Y-85340476D01*
X11340476Y-85464286D01*
X11278571Y-85526190D01*
X11154762Y-85588095D01*
X10659524Y-85588095D01*
X10659524Y-84288095D01*
X11092857Y-84288095D01*
X11216667Y-84350000D01*
X11278571Y-84411905D01*
X11340476Y-84535714D01*
X11340476Y-84659524D01*
X11278571Y-84783333D01*
X11216667Y-84845238D01*
X11092857Y-84907143D01*
X10659524Y-84907143D01*
D10*
D11*
X11402381Y-135464286D02*
X11340476Y-135526190D01*
X11154762Y-135588095D01*
X11030952Y-135588095D01*
X10845238Y-135526190D01*
X10721429Y-135402381D01*
X10659524Y-135278571D01*
X10597619Y-135030952D01*
X10597619Y-134845238D01*
X10659524Y-134597619D01*
X10721429Y-134473810D01*
X10845238Y-134350000D01*
X11030952Y-134288095D01*
X11154762Y-134288095D01*
X11340476Y-134350000D01*
X11402381Y-134411905D01*
D10*
D11*
X10659524Y-185588095D02*
X10659524Y-184288095D01*
X10969048Y-184288095D01*
X11154762Y-184350000D01*
X11278571Y-184473810D01*
X11340476Y-184597619D01*
X11402381Y-184845238D01*
X11402381Y-185030952D01*
X11340476Y-185278571D01*
X11278571Y-185402381D01*
X11154762Y-185526190D01*
X10969048Y-185588095D01*
X10659524Y-185588095D01*
D10*
D11*
X287002200Y-60000000D02*
X285002200Y-60000000D01*
D10*
D11*
X287002200Y-110000000D02*
X285002200Y-110000000D01*
D10*
D11*
X287002200Y-160000000D02*
X285002200Y-160000000D01*
D10*
D11*
X285692676Y-35216667D02*
X286311724Y-35216667D01*
X285568867Y-35588095D02*
X286002200Y-34288095D01*
X286435533Y-35588095D01*
D10*
D11*
X286095057Y-84907143D02*
X286280771Y-84969048D01*
X286342676Y-85030952D01*
X286404581Y-85154762D01*
X286404581Y-85340476D01*
X286342676Y-85464286D01*
X286280771Y-85526190D01*
X286156962Y-85588095D01*
X285661724Y-85588095D01*
X285661724Y-84288095D01*
X286095057Y-84288095D01*
X286218867Y-84350000D01*
X286280771Y-84411905D01*
X286342676Y-84535714D01*
X286342676Y-84659524D01*
X286280771Y-84783333D01*
X286218867Y-84845238D01*
X286095057Y-84907143D01*
X285661724Y-84907143D01*
D10*
D11*
X286404581Y-135464286D02*
X286342676Y-135526190D01*
X286156962Y-135588095D01*
X286033152Y-135588095D01*
X285847438Y-135526190D01*
X285723629Y-135402381D01*
X285661724Y-135278571D01*
X285599819Y-135030952D01*
X285599819Y-134845238D01*
X285661724Y-134597619D01*
X285723629Y-134473810D01*
X285847438Y-134350000D01*
X286033152Y-134288095D01*
X286156962Y-134288095D01*
X286342676Y-134350000D01*
X286404581Y-134411905D01*
D10*
D11*
X285661724Y-185588095D02*
X285661724Y-184288095D01*
X285971248Y-184288095D01*
X286156962Y-184350000D01*
X286280771Y-184473810D01*
X286342676Y-184597619D01*
X286404581Y-184845238D01*
X286404581Y-185030952D01*
X286342676Y-185278571D01*
X286280771Y-185402381D01*
X286156962Y-185526190D01*
X285971248Y-185588095D01*
X285661724Y-185588095D01*
D10*
D11*
X200359343Y-193785771D02*
X200359343Y-192285771D01*
X200716486Y-192285771D01*
X200930771Y-192357200D01*
X201073629Y-192500057D01*
X201145057Y-192642914D01*
X201216486Y-192928629D01*
X201216486Y-193142914D01*
X201145057Y-193428629D01*
X201073629Y-193571486D01*
X200930771Y-193714343D01*
X200716486Y-193785771D01*
X200359343Y-193785771D01*
X202502200Y-193785771D02*
X202502200Y-193000057D01*
X202430771Y-192857200D01*
X202287914Y-192785771D01*
X202002200Y-192785771D01*
X201859343Y-192857200D01*
X202502200Y-193714343D02*
X202359343Y-193785771D01*
X202002200Y-193785771D01*
X201859343Y-193714343D01*
X201787914Y-193571486D01*
X201787914Y-193428629D01*
X201859343Y-193285771D01*
X202002200Y-193214343D01*
X202359343Y-193214343D01*
X202502200Y-193142914D01*
X203002200Y-192785771D02*
X203573629Y-192785771D01*
X203216486Y-192285771D02*
X203216486Y-193571486D01*
X203287914Y-193714343D01*
X203430772Y-193785771D01*
X203573629Y-193785771D01*
X204645057Y-193714343D02*
X204502200Y-193785771D01*
X204216486Y-193785771D01*
X204073629Y-193714343D01*
X204002200Y-193571486D01*
X204002200Y-193000057D01*
X204073629Y-192857200D01*
X204216486Y-192785771D01*
X204502200Y-192785771D01*
X204645057Y-192857200D01*
X204716486Y-193000057D01*
X204716486Y-193142914D01*
X204002200Y-193285771D01*
X205359343Y-193642914D02*
X205430771Y-193714343D01*
X205359343Y-193785771D01*
X205287914Y-193714343D01*
X205359343Y-193642914D01*
X205359343Y-193785771D01*
X205359343Y-192857200D02*
X205430771Y-192928629D01*
X205359343Y-193000057D01*
X205287914Y-192928629D01*
X205359343Y-192857200D01*
X205359343Y-193000057D01*
D10*
D11*
X177002200Y-194507200D02*
X285002200Y-194507200D01*
D10*
D11*
X178359343Y-196585771D02*
X178359343Y-195085771D01*
X179216486Y-196585771D02*
X178573629Y-195728629D01*
X179216486Y-195085771D02*
X178359343Y-195942914D01*
X179859343Y-196585771D02*
X179859343Y-195585771D01*
X179859343Y-195085771D02*
X179787914Y-195157200D01*
X179859343Y-195228629D01*
X179930771Y-195157200D01*
X179859343Y-195085771D01*
X179859343Y-195228629D01*
X181430772Y-196442914D02*
X181359343Y-196514343D01*
X181145057Y-196585771D01*
X181002200Y-196585771D01*
X180787915Y-196514343D01*
X180645057Y-196371486D01*
X180573629Y-196228629D01*
X180502200Y-195942914D01*
X180502200Y-195728629D01*
X180573629Y-195442914D01*
X180645057Y-195300057D01*
X180787915Y-195157200D01*
X181002200Y-195085771D01*
X181145057Y-195085771D01*
X181359343Y-195157200D01*
X181430772Y-195228629D01*
X182716486Y-196585771D02*
X182716486Y-195800057D01*
X182645057Y-195657200D01*
X182502200Y-195585771D01*
X182216486Y-195585771D01*
X182073629Y-195657200D01*
X182716486Y-196514343D02*
X182573629Y-196585771D01*
X182216486Y-196585771D01*
X182073629Y-196514343D01*
X182002200Y-196371486D01*
X182002200Y-196228629D01*
X182073629Y-196085771D01*
X182216486Y-196014343D01*
X182573629Y-196014343D01*
X182716486Y-195942914D01*
X184073629Y-196585771D02*
X184073629Y-195085771D01*
X184073629Y-196514343D02*
X183930772Y-196585771D01*
X183645058Y-196585771D01*
X183502200Y-196514343D01*
X183430772Y-196442914D01*
X183359343Y-196300057D01*
X183359343Y-195871486D01*
X183430772Y-195728629D01*
X183502200Y-195657200D01*
X183645058Y-195585771D01*
X183930772Y-195585771D01*
X184073629Y-195657200D01*
X185930772Y-195800057D02*
X186430772Y-195800057D01*
X186645058Y-196585771D02*
X185930772Y-196585771D01*
X185930772Y-195085771D01*
X186645058Y-195085771D01*
X187287915Y-196442914D02*
X187359343Y-196514343D01*
X187287915Y-196585771D01*
X187216486Y-196514343D01*
X187287915Y-196442914D01*
X187287915Y-196585771D01*
X188002201Y-196585771D02*
X188002201Y-195085771D01*
X188359344Y-195085771D01*
X188573629Y-195157200D01*
X188716487Y-195300057D01*
X188787915Y-195442914D01*
X188859344Y-195728629D01*
X188859344Y-195942914D01*
X188787915Y-196228629D01*
X188716487Y-196371486D01*
X188573629Y-196514343D01*
X188359344Y-196585771D01*
X188002201Y-196585771D01*
X189502201Y-196442914D02*
X189573629Y-196514343D01*
X189502201Y-196585771D01*
X189430772Y-196514343D01*
X189502201Y-196442914D01*
X189502201Y-196585771D01*
X190145058Y-196157200D02*
X190859344Y-196157200D01*
X190002201Y-196585771D02*
X190502201Y-195085771D01*
X191002201Y-196585771D01*
X191502201Y-196442914D02*
X191573629Y-196514343D01*
X191502201Y-196585771D01*
X191430772Y-196514343D01*
X191502201Y-196442914D01*
X191502201Y-196585771D01*
X194502201Y-196585771D02*
X194502201Y-195085771D01*
X194645058Y-196014343D02*
X195073629Y-196585771D01*
X195073629Y-195585771D02*
X194502201Y-196157200D01*
X195716487Y-196585771D02*
X195716487Y-195585771D01*
X195716487Y-195085771D02*
X195645058Y-195157200D01*
X195716487Y-195228629D01*
X195787915Y-195157200D01*
X195716487Y-195085771D01*
X195716487Y-195228629D01*
X197073630Y-196514343D02*
X196930773Y-196585771D01*
X196645059Y-196585771D01*
X196502201Y-196514343D01*
X196430773Y-196442914D01*
X196359344Y-196300057D01*
X196359344Y-195871486D01*
X196430773Y-195728629D01*
X196502201Y-195657200D01*
X196645059Y-195585771D01*
X196930773Y-195585771D01*
X197073630Y-195657200D01*
X198359344Y-196585771D02*
X198359344Y-195800057D01*
X198287915Y-195657200D01*
X198145058Y-195585771D01*
X197859344Y-195585771D01*
X197716487Y-195657200D01*
X198359344Y-196514343D02*
X198216487Y-196585771D01*
X197859344Y-196585771D01*
X197716487Y-196514343D01*
X197645058Y-196371486D01*
X197645058Y-196228629D01*
X197716487Y-196085771D01*
X197859344Y-196014343D01*
X198216487Y-196014343D01*
X198359344Y-195942914D01*
X199716487Y-196585771D02*
X199716487Y-195085771D01*
X199716487Y-196514343D02*
X199573630Y-196585771D01*
X199287916Y-196585771D01*
X199145058Y-196514343D01*
X199073630Y-196442914D01*
X199002201Y-196300057D01*
X199002201Y-195871486D01*
X199073630Y-195728629D01*
X199145058Y-195657200D01*
X199287916Y-195585771D01*
X199573630Y-195585771D01*
X199716487Y-195657200D01*
X202216487Y-195585771D02*
X202216487Y-196585771D01*
X201859344Y-195014343D02*
X201502201Y-196085771D01*
X202430773Y-196085771D01*
X203002201Y-196442914D02*
X203073629Y-196514343D01*
X203002201Y-196585771D01*
X202930772Y-196514343D01*
X203002201Y-196442914D01*
X203002201Y-196585771D01*
X204002201Y-195085771D02*
X204145058Y-195085771D01*
X204287915Y-195157200D01*
X204359344Y-195228629D01*
X204430773Y-195371486D01*
X204502201Y-195657200D01*
X204502201Y-196014343D01*
X204430773Y-196300057D01*
X204359344Y-196442914D01*
X204287915Y-196514343D01*
X204145058Y-196585771D01*
X204002201Y-196585771D01*
X203859344Y-196514343D01*
X203787915Y-196442914D01*
X203716487Y-196300057D01*
X203645058Y-196014343D01*
X203645058Y-195657200D01*
X203716487Y-195371486D01*
X203787915Y-195228629D01*
X203859344Y-195157200D01*
X204002201Y-195085771D01*
X205145058Y-196442914D02*
X205216486Y-196514343D01*
X205145058Y-196585771D01*
X205073629Y-196514343D01*
X205145058Y-196442914D01*
X205145058Y-196585771D01*
X205787915Y-195228629D02*
X205859344Y-195157200D01*
X206002201Y-195085771D01*
X206359344Y-195085771D01*
X206502201Y-195157200D01*
X206573630Y-195228629D01*
X206645058Y-195371486D01*
X206645058Y-195514343D01*
X206573630Y-195728629D01*
X205716487Y-196585771D01*
X206645058Y-196585771D01*
X207287915Y-196014343D02*
X208430772Y-196014343D01*
X207859343Y-196585771D02*
X207859343Y-195442914D01*
X209716486Y-196514343D02*
X209573629Y-196585771D01*
X209287915Y-196585771D01*
X209145058Y-196514343D01*
X209073629Y-196371486D01*
X209073629Y-195800057D01*
X209145058Y-195657200D01*
X209287915Y-195585771D01*
X209573629Y-195585771D01*
X209716486Y-195657200D01*
X209787915Y-195800057D01*
X209787915Y-195942914D01*
X209073629Y-196085771D01*
X211073629Y-195585771D02*
X211073629Y-196585771D01*
X210716486Y-195014343D02*
X210359343Y-196085771D01*
X211287915Y-196085771D01*
X211859343Y-196014343D02*
X213002200Y-196014343D01*
X214359343Y-195085771D02*
X214073629Y-195085771D01*
X213930772Y-195157200D01*
X213859343Y-195228629D01*
X213716486Y-195442914D01*
X213645057Y-195728629D01*
X213645057Y-196300057D01*
X213716486Y-196442914D01*
X213787914Y-196514343D01*
X213930772Y-196585771D01*
X214216486Y-196585771D01*
X214359343Y-196514343D01*
X214430772Y-196442914D01*
X214502200Y-196300057D01*
X214502200Y-195942914D01*
X214430772Y-195800057D01*
X214359343Y-195728629D01*
X214216486Y-195657200D01*
X213930772Y-195657200D01*
X213787914Y-195728629D01*
X213716486Y-195800057D01*
X213645057Y-195942914D01*
X215073628Y-195228629D02*
X215145057Y-195157200D01*
X215287914Y-195085771D01*
X215645057Y-195085771D01*
X215787914Y-195157200D01*
X215859343Y-195228629D01*
X215930771Y-195371486D01*
X215930771Y-195514343D01*
X215859343Y-195728629D01*
X215002200Y-196585771D01*
X215930771Y-196585771D01*
X216502199Y-195228629D02*
X216573628Y-195157200D01*
X216716485Y-195085771D01*
X217073628Y-195085771D01*
X217216485Y-195157200D01*
X217287914Y-195228629D01*
X217359342Y-195371486D01*
X217359342Y-195514343D01*
X217287914Y-195728629D01*
X216430771Y-196585771D01*
X217359342Y-196585771D01*
X218716485Y-195085771D02*
X218002199Y-195085771D01*
X217930770Y-195800057D01*
X218002199Y-195728629D01*
X218145056Y-195657200D01*
X218502199Y-195657200D01*
X218645056Y-195728629D01*
X218716485Y-195800057D01*
X218787913Y-195942914D01*
X218787913Y-196300057D01*
X218716485Y-196442914D01*
X218645056Y-196514343D01*
X218502199Y-196585771D01*
X218145056Y-196585771D01*
X218002199Y-196514343D01*
X217930770Y-196442914D01*
X219287913Y-195085771D02*
X220216484Y-195085771D01*
X219716484Y-195657200D01*
X219930770Y-195657200D01*
X220073627Y-195728629D01*
X220145056Y-195800057D01*
X220216484Y-195942914D01*
X220216484Y-196300057D01*
X220145056Y-196442914D01*
X220073627Y-196514343D01*
X219930770Y-196585771D01*
X219502198Y-196585771D01*
X219359341Y-196514343D01*
X219287913Y-196442914D01*
X221073627Y-195728629D02*
X220930769Y-195657200D01*
X220859341Y-195585771D01*
X220787912Y-195442914D01*
X220787912Y-195371486D01*
X220859341Y-195228629D01*
X220930769Y-195157200D01*
X221073627Y-195085771D01*
X221359341Y-195085771D01*
X221502198Y-195157200D01*
X221573627Y-195228629D01*
X221645055Y-195371486D01*
X221645055Y-195442914D01*
X221573627Y-195585771D01*
X221502198Y-195657200D01*
X221359341Y-195728629D01*
X221073627Y-195728629D01*
X220930769Y-195800057D01*
X220859341Y-195871486D01*
X220787912Y-196014343D01*
X220787912Y-196300057D01*
X220859341Y-196442914D01*
X220930769Y-196514343D01*
X221073627Y-196585771D01*
X221359341Y-196585771D01*
X221502198Y-196514343D01*
X221573627Y-196442914D01*
X221645055Y-196300057D01*
X221645055Y-196014343D01*
X221573627Y-195871486D01*
X221502198Y-195800057D01*
X221359341Y-195728629D01*
X219073627Y-194827200D02*
X221930769Y-194827200D01*
X222930769Y-195585771D02*
X222930769Y-196585771D01*
X222287912Y-195585771D02*
X222287912Y-196371486D01*
X222359340Y-196514343D01*
X222502198Y-196585771D01*
X222716483Y-196585771D01*
X222859340Y-196514343D01*
X222930769Y-196442914D01*
X223645055Y-196585771D02*
X223645055Y-195085771D01*
X223645055Y-195657200D02*
X223787912Y-195585771D01*
X224073626Y-195585771D01*
X224216483Y-195657200D01*
X224287912Y-195728629D01*
X224359341Y-195871486D01*
X224359341Y-196300057D01*
X224287912Y-196442914D01*
X224216483Y-196514343D01*
X224073626Y-196585771D01*
X223787912Y-196585771D01*
X223645055Y-196514343D01*
X225645055Y-195585771D02*
X225645055Y-196585771D01*
X225002198Y-195585771D02*
X225002198Y-196371486D01*
X225073626Y-196514343D01*
X225216484Y-196585771D01*
X225430769Y-196585771D01*
X225573626Y-196514343D01*
X225645055Y-196442914D01*
X226359341Y-195585771D02*
X226359341Y-196585771D01*
X226359341Y-195728629D02*
X226430769Y-195657200D01*
X226573627Y-195585771D01*
X226787912Y-195585771D01*
X226930769Y-195657200D01*
X227002198Y-195800057D01*
X227002198Y-196585771D01*
X227502198Y-195585771D02*
X228073627Y-195585771D01*
X227716484Y-195085771D02*
X227716484Y-196371486D01*
X227787912Y-196514343D01*
X227930770Y-196585771D01*
X228073627Y-196585771D01*
X229216484Y-195585771D02*
X229216484Y-196585771D01*
X228573627Y-195585771D02*
X228573627Y-196371486D01*
X228645055Y-196514343D01*
X228787913Y-196585771D01*
X229002198Y-196585771D01*
X229145055Y-196514343D01*
X229216484Y-196442914D01*
X230716484Y-196585771D02*
X229859341Y-196585771D01*
X230287913Y-196585771D02*
X230287913Y-195085771D01*
X230145056Y-195300057D01*
X230002198Y-195442914D01*
X229859341Y-195514343D01*
X232002198Y-195085771D02*
X231716484Y-195085771D01*
X231573627Y-195157200D01*
X231502198Y-195228629D01*
X231359341Y-195442914D01*
X231287912Y-195728629D01*
X231287912Y-196300057D01*
X231359341Y-196442914D01*
X231430769Y-196514343D01*
X231573627Y-196585771D01*
X231859341Y-196585771D01*
X232002198Y-196514343D01*
X232073627Y-196442914D01*
X232145055Y-196300057D01*
X232145055Y-195942914D01*
X232073627Y-195800057D01*
X232002198Y-195728629D01*
X231859341Y-195657200D01*
X231573627Y-195657200D01*
X231430769Y-195728629D01*
X231359341Y-195800057D01*
X231287912Y-195942914D01*
X232787912Y-196442914D02*
X232859340Y-196514343D01*
X232787912Y-196585771D01*
X232716483Y-196514343D01*
X232787912Y-196442914D01*
X232787912Y-196585771D01*
X233787912Y-195085771D02*
X233930769Y-195085771D01*
X234073626Y-195157200D01*
X234145055Y-195228629D01*
X234216484Y-195371486D01*
X234287912Y-195657200D01*
X234287912Y-196014343D01*
X234216484Y-196300057D01*
X234145055Y-196442914D01*
X234073626Y-196514343D01*
X233930769Y-196585771D01*
X233787912Y-196585771D01*
X233645055Y-196514343D01*
X233573626Y-196442914D01*
X233502198Y-196300057D01*
X233430769Y-196014343D01*
X233430769Y-195657200D01*
X233502198Y-195371486D01*
X233573626Y-195228629D01*
X233645055Y-195157200D01*
X233787912Y-195085771D01*
X235573626Y-195585771D02*
X235573626Y-196585771D01*
X235216483Y-195014343D02*
X234859340Y-196085771D01*
X235787912Y-196085771D01*
X236359340Y-196442914D02*
X236430768Y-196514343D01*
X236359340Y-196585771D01*
X236287911Y-196514343D01*
X236359340Y-196442914D01*
X236359340Y-196585771D01*
X237859340Y-196585771D02*
X237002197Y-196585771D01*
X237430769Y-196585771D02*
X237430769Y-195085771D01*
X237287912Y-195300057D01*
X237145054Y-195442914D01*
X237002197Y-195514343D01*
X238502197Y-196014343D02*
X239645054Y-196014343D01*
X240287911Y-196514343D02*
X240430768Y-196585771D01*
X240716483Y-196585771D01*
X240859340Y-196514343D01*
X240930768Y-196371486D01*
X240930768Y-196300057D01*
X240859340Y-196157200D01*
X240716483Y-196085771D01*
X240502197Y-196085771D01*
X240359340Y-196014343D01*
X240287911Y-195871486D01*
X240287911Y-195800057D01*
X240359340Y-195657200D01*
X240502197Y-195585771D01*
X240716483Y-195585771D01*
X240859340Y-195657200D01*
X241359340Y-195585771D02*
X241930769Y-195585771D01*
X241573626Y-195085771D02*
X241573626Y-196371486D01*
X241645054Y-196514343D01*
X241787912Y-196585771D01*
X241930769Y-196585771D01*
X243073626Y-196585771D02*
X243073626Y-195800057D01*
X243002197Y-195657200D01*
X242859340Y-195585771D01*
X242573626Y-195585771D01*
X242430769Y-195657200D01*
X243073626Y-196514343D02*
X242930769Y-196585771D01*
X242573626Y-196585771D01*
X242430769Y-196514343D01*
X242359340Y-196371486D01*
X242359340Y-196228629D01*
X242430769Y-196085771D01*
X242573626Y-196014343D01*
X242930769Y-196014343D01*
X243073626Y-195942914D01*
X243787912Y-196585771D02*
X243787912Y-195085771D01*
X243787912Y-195657200D02*
X243930769Y-195585771D01*
X244216483Y-195585771D01*
X244359340Y-195657200D01*
X244430769Y-195728629D01*
X244502198Y-195871486D01*
X244502198Y-196300057D01*
X244430769Y-196442914D01*
X244359340Y-196514343D01*
X244216483Y-196585771D01*
X243930769Y-196585771D01*
X243787912Y-196514343D01*
X245359341Y-196585771D02*
X245216483Y-196514343D01*
X245145055Y-196371486D01*
X245145055Y-195085771D01*
X246502197Y-196514343D02*
X246359340Y-196585771D01*
X246073626Y-196585771D01*
X245930769Y-196514343D01*
X245859340Y-196371486D01*
X245859340Y-195800057D01*
X245930769Y-195657200D01*
X246073626Y-195585771D01*
X246359340Y-195585771D01*
X246502197Y-195657200D01*
X246573626Y-195800057D01*
X246573626Y-195942914D01*
X245859340Y-196085771D01*
D10*
D11*
X177002200Y-191507200D02*
X285002200Y-191507200D01*
D10*
D12*
X264216486Y-193785771D02*
X263716486Y-193071486D01*
X263359343Y-193785771D02*
X263359343Y-192285771D01*
X263930771Y-192285771D01*
X264073629Y-192357200D01*
X264145057Y-192428629D01*
X264216486Y-192571486D01*
X264216486Y-192785771D01*
X264145057Y-192928629D01*
X264073629Y-193000057D01*
X263930771Y-193071486D01*
X263359343Y-193071486D01*
X265430771Y-193714343D02*
X265287914Y-193785771D01*
X265002200Y-193785771D01*
X264859343Y-193714343D01*
X264787914Y-193571486D01*
X264787914Y-193000057D01*
X264859343Y-192857200D01*
X265002200Y-192785771D01*
X265287914Y-192785771D01*
X265430771Y-192857200D01*
X265502200Y-193000057D01*
X265502200Y-193142914D01*
X264787914Y-193285771D01*
X266002200Y-192785771D02*
X266359343Y-193785771D01*
X266716485Y-192785771D01*
X267287914Y-193642914D02*
X267359342Y-193714343D01*
X267287914Y-193785771D01*
X267216485Y-193714343D01*
X267287914Y-193642914D01*
X267287914Y-193785771D01*
X267287914Y-192857200D02*
X267359342Y-192928629D01*
X267287914Y-193000057D01*
X267216485Y-192928629D01*
X267287914Y-192857200D01*
X267287914Y-193000057D01*
D10*
D11*
X178287914Y-193714343D02*
X178502200Y-193785771D01*
X178859343Y-193785771D01*
X179002200Y-193714343D01*
X179073629Y-193642914D01*
X179145057Y-193500057D01*
X179145057Y-193357200D01*
X179073629Y-193214343D01*
X179002200Y-193142914D01*
X178859343Y-193071486D01*
X178573629Y-193000057D01*
X178430771Y-192928629D01*
X178359343Y-192857200D01*
X178287914Y-192714343D01*
X178287914Y-192571486D01*
X178359343Y-192428629D01*
X178430771Y-192357200D01*
X178573629Y-192285771D01*
X178930771Y-192285771D01*
X179145057Y-192357200D01*
X179787914Y-193785771D02*
X179787914Y-192785771D01*
X179787914Y-192285771D02*
X179716485Y-192357200D01*
X179787914Y-192428629D01*
X179859342Y-192357200D01*
X179787914Y-192285771D01*
X179787914Y-192428629D01*
X180359343Y-192785771D02*
X181145057Y-192785771D01*
X180359343Y-193785771D01*
X181145057Y-193785771D01*
X182287914Y-193714343D02*
X182145057Y-193785771D01*
X181859343Y-193785771D01*
X181716486Y-193714343D01*
X181645057Y-193571486D01*
X181645057Y-193000057D01*
X181716486Y-192857200D01*
X181859343Y-192785771D01*
X182145057Y-192785771D01*
X182287914Y-192857200D01*
X182359343Y-193000057D01*
X182359343Y-193142914D01*
X181645057Y-193285771D01*
X183002200Y-193642914D02*
X183073628Y-193714343D01*
X183002200Y-193785771D01*
X182930771Y-193714343D01*
X183002200Y-193642914D01*
X183002200Y-193785771D01*
X183002200Y-192857200D02*
X183073628Y-192928629D01*
X183002200Y-193000057D01*
X182930771Y-192928629D01*
X183002200Y-192857200D01*
X183002200Y-193000057D01*
X184787914Y-193357200D02*
X185502200Y-193357200D01*
X184645057Y-193785771D02*
X185145057Y-192285771D01*
X185645057Y-193785771D01*
X186787914Y-192785771D02*
X186787914Y-193785771D01*
X186430771Y-192214343D02*
X186073628Y-193285771D01*
X187002200Y-193285771D01*
D10*
D11*
X263359343Y-196585771D02*
X263359343Y-195085771D01*
X264716486Y-196585771D02*
X264716486Y-195085771D01*
X264716486Y-196514343D02*
X264573629Y-196585771D01*
X264287915Y-196585771D01*
X264145057Y-196514343D01*
X264073629Y-196442914D01*
X264002200Y-196300057D01*
X264002200Y-195871486D01*
X264073629Y-195728629D01*
X264145057Y-195657200D01*
X264287915Y-195585771D01*
X264573629Y-195585771D01*
X264716486Y-195657200D01*
X265430772Y-196442914D02*
X265502200Y-196514343D01*
X265430772Y-196585771D01*
X265359343Y-196514343D01*
X265430772Y-196442914D01*
X265430772Y-196585771D01*
X265430772Y-195657200D02*
X265502200Y-195728629D01*
X265430772Y-195800057D01*
X265359343Y-195728629D01*
X265430772Y-195657200D01*
X265430772Y-195800057D01*
X268073629Y-196585771D02*
X267216486Y-196585771D01*
X267645058Y-196585771D02*
X267645058Y-195085771D01*
X267502201Y-195300057D01*
X267359343Y-195442914D01*
X267216486Y-195514343D01*
X269787914Y-195014343D02*
X268502200Y-196942914D01*
X271073629Y-196585771D02*
X270216486Y-196585771D01*
X270645058Y-196585771D02*
X270645058Y-195085771D01*
X270502201Y-195300057D01*
X270359343Y-195442914D01*
X270216486Y-195514343D01*
D10*
D11*
X177002200Y-187507200D02*
X285002200Y-187507200D01*
D10*
D13*
X178454581Y-188211962D02*
X179597438Y-188211962D01*
X178776010Y-190211962D02*
X179026010Y-188211962D01*
X180014105Y-190211962D02*
X180180771Y-188878629D01*
X180264105Y-188211962D02*
X180156962Y-188307200D01*
X180240295Y-188402438D01*
X180347439Y-188307200D01*
X180264105Y-188211962D01*
X180240295Y-188402438D01*
X180847438Y-188878629D02*
X181609343Y-188878629D01*
X181216486Y-188211962D02*
X181002200Y-189926248D01*
X181073630Y-190116724D01*
X181252201Y-190211962D01*
X181442677Y-190211962D01*
X182395058Y-190211962D02*
X182216487Y-190116724D01*
X182145057Y-189926248D01*
X182359343Y-188211962D01*
X183930772Y-190116724D02*
X183728391Y-190211962D01*
X183347439Y-190211962D01*
X183168867Y-190116724D01*
X183097438Y-189926248D01*
X183192676Y-189164343D01*
X183311724Y-188973867D01*
X183514105Y-188878629D01*
X183895057Y-188878629D01*
X184073629Y-188973867D01*
X184145057Y-189164343D01*
X184121248Y-189354819D01*
X183145057Y-189545295D01*
X184895057Y-190021486D02*
X184978392Y-190116724D01*
X184871248Y-190211962D01*
X184787915Y-190116724D01*
X184895057Y-190021486D01*
X184871248Y-190211962D01*
X185026010Y-188973867D02*
X185109344Y-189069105D01*
X185002200Y-189164343D01*
X184918867Y-189069105D01*
X185026010Y-188973867D01*
X185002200Y-189164343D01*
D10*
D11*
X178859343Y-185600057D02*
X178359343Y-185600057D01*
X178359343Y-186385771D02*
X178359343Y-184885771D01*
X179073629Y-184885771D01*
X179645057Y-186385771D02*
X179645057Y-185385771D01*
X179645057Y-184885771D02*
X179573628Y-184957200D01*
X179645057Y-185028629D01*
X179716485Y-184957200D01*
X179645057Y-184885771D01*
X179645057Y-185028629D01*
X180573629Y-186385771D02*
X180430771Y-186314343D01*
X180359343Y-186171486D01*
X180359343Y-184885771D01*
X181716485Y-186314343D02*
X181573628Y-186385771D01*
X181287914Y-186385771D01*
X181145057Y-186314343D01*
X181073628Y-186171486D01*
X181073628Y-185600057D01*
X181145057Y-185457200D01*
X181287914Y-185385771D01*
X181573628Y-185385771D01*
X181716485Y-185457200D01*
X181787914Y-185600057D01*
X181787914Y-185742914D01*
X181073628Y-185885771D01*
X182430771Y-186242914D02*
X182502199Y-186314343D01*
X182430771Y-186385771D01*
X182359342Y-186314343D01*
X182430771Y-186242914D01*
X182430771Y-186385771D01*
X182430771Y-185457200D02*
X182502199Y-185528629D01*
X182430771Y-185600057D01*
X182359342Y-185528629D01*
X182430771Y-185457200D01*
X182430771Y-185600057D01*
X184216485Y-185957200D02*
X184930771Y-185957200D01*
X184073628Y-186385771D02*
X184573628Y-184885771D01*
X185073628Y-186385771D01*
X185573628Y-186385771D02*
X185573628Y-185385771D01*
X185573628Y-185671486D02*
X185645056Y-185528629D01*
X185716485Y-185457200D01*
X185859342Y-185385771D01*
X186002199Y-185385771D01*
X187145056Y-186385771D02*
X187145056Y-184885771D01*
X187145056Y-186314343D02*
X187002199Y-186385771D01*
X186716485Y-186385771D01*
X186573627Y-186314343D01*
X186502199Y-186242914D01*
X186430770Y-186100057D01*
X186430770Y-185671486D01*
X186502199Y-185528629D01*
X186573627Y-185457200D01*
X186716485Y-185385771D01*
X187002199Y-185385771D01*
X187145056Y-185457200D01*
X188502199Y-185385771D02*
X188502199Y-186385771D01*
X187859342Y-185385771D02*
X187859342Y-186171486D01*
X187930770Y-186314343D01*
X188073628Y-186385771D01*
X188287913Y-186385771D01*
X188430770Y-186314343D01*
X188502199Y-186242914D01*
X189716485Y-185600057D02*
X189930771Y-185671486D01*
X190002199Y-185742914D01*
X190073628Y-185885771D01*
X190073628Y-186100057D01*
X190002199Y-186242914D01*
X189930771Y-186314343D01*
X189787913Y-186385771D01*
X189216485Y-186385771D01*
X189216485Y-184885771D01*
X189716485Y-184885771D01*
X189859342Y-184957200D01*
X189930771Y-185028629D01*
X190002199Y-185171486D01*
X190002199Y-185314343D01*
X189930771Y-185457200D01*
X189859342Y-185528629D01*
X189716485Y-185600057D01*
X189216485Y-185600057D01*
X190930771Y-186385771D02*
X190787913Y-186314343D01*
X190716485Y-186242914D01*
X190645056Y-186100057D01*
X190645056Y-185671486D01*
X190716485Y-185528629D01*
X190787913Y-185457200D01*
X190930771Y-185385771D01*
X191145056Y-185385771D01*
X191287913Y-185457200D01*
X191359342Y-185528629D01*
X191430771Y-185671486D01*
X191430771Y-186100057D01*
X191359342Y-186242914D01*
X191287913Y-186314343D01*
X191145056Y-186385771D01*
X190930771Y-186385771D01*
X192287914Y-186385771D02*
X192145056Y-186314343D01*
X192073628Y-186242914D01*
X192002199Y-186100057D01*
X192002199Y-185671486D01*
X192073628Y-185528629D01*
X192145056Y-185457200D01*
X192287914Y-185385771D01*
X192502199Y-185385771D01*
X192645056Y-185457200D01*
X192716485Y-185528629D01*
X192787914Y-185671486D01*
X192787914Y-186100057D01*
X192716485Y-186242914D01*
X192645056Y-186314343D01*
X192502199Y-186385771D01*
X192287914Y-186385771D01*
X193359342Y-186314343D02*
X193502199Y-186385771D01*
X193787914Y-186385771D01*
X193930771Y-186314343D01*
X194002199Y-186171486D01*
X194002199Y-186100057D01*
X193930771Y-185957200D01*
X193787914Y-185885771D01*
X193573628Y-185885771D01*
X193430771Y-185814343D01*
X193359342Y-185671486D01*
X193359342Y-185600057D01*
X193430771Y-185457200D01*
X193573628Y-185385771D01*
X193787914Y-185385771D01*
X193930771Y-185457200D01*
X194430771Y-185385771D02*
X195002200Y-185385771D01*
X194645057Y-184885771D02*
X194645057Y-186171486D01*
X194716485Y-186314343D01*
X194859343Y-186385771D01*
X195002200Y-186385771D01*
X196073628Y-186314343D02*
X195930771Y-186385771D01*
X195645057Y-186385771D01*
X195502200Y-186314343D01*
X195430771Y-186171486D01*
X195430771Y-185600057D01*
X195502200Y-185457200D01*
X195645057Y-185385771D01*
X195930771Y-185385771D01*
X196073628Y-185457200D01*
X196145057Y-185600057D01*
X196145057Y-185742914D01*
X195430771Y-185885771D01*
X196787914Y-186385771D02*
X196787914Y-185385771D01*
X196787914Y-185671486D02*
X196859342Y-185528629D01*
X196930771Y-185457200D01*
X197073628Y-185385771D01*
X197216485Y-185385771D01*
X197716485Y-186242914D02*
X197787913Y-186314343D01*
X197716485Y-186385771D01*
X197645056Y-186314343D01*
X197716485Y-186242914D01*
X197716485Y-186385771D01*
X198430771Y-186385771D02*
X198430771Y-184885771D01*
X198573628Y-185814343D02*
X199002199Y-186385771D01*
X199002199Y-185385771D02*
X198430771Y-185957200D01*
X199645057Y-186385771D02*
X199645057Y-185385771D01*
X199645057Y-184885771D02*
X199573628Y-184957200D01*
X199645057Y-185028629D01*
X199716485Y-184957200D01*
X199645057Y-184885771D01*
X199645057Y-185028629D01*
X201002200Y-186314343D02*
X200859343Y-186385771D01*
X200573629Y-186385771D01*
X200430771Y-186314343D01*
X200359343Y-186242914D01*
X200287914Y-186100057D01*
X200287914Y-185671486D01*
X200359343Y-185528629D01*
X200430771Y-185457200D01*
X200573629Y-185385771D01*
X200859343Y-185385771D01*
X201002200Y-185457200D01*
X202287914Y-186385771D02*
X202287914Y-185600057D01*
X202216485Y-185457200D01*
X202073628Y-185385771D01*
X201787914Y-185385771D01*
X201645057Y-185457200D01*
X202287914Y-186314343D02*
X202145057Y-186385771D01*
X201787914Y-186385771D01*
X201645057Y-186314343D01*
X201573628Y-186171486D01*
X201573628Y-186028629D01*
X201645057Y-185885771D01*
X201787914Y-185814343D01*
X202145057Y-185814343D01*
X202287914Y-185742914D01*
X203645057Y-186385771D02*
X203645057Y-184885771D01*
X203645057Y-186314343D02*
X203502200Y-186385771D01*
X203216486Y-186385771D01*
X203073628Y-186314343D01*
X203002200Y-186242914D01*
X202930771Y-186100057D01*
X202930771Y-185671486D01*
X203002200Y-185528629D01*
X203073628Y-185457200D01*
X203216486Y-185385771D01*
X203502200Y-185385771D01*
X203645057Y-185457200D01*
X204002200Y-186528629D02*
X205145057Y-186528629D01*
X205502200Y-185385771D02*
X205502200Y-186885771D01*
X205502200Y-185457200D02*
X205645057Y-185385771D01*
X205930771Y-185385771D01*
X206073628Y-185457200D01*
X206145057Y-185528629D01*
X206216486Y-185671486D01*
X206216486Y-186100057D01*
X206145057Y-186242914D01*
X206073628Y-186314343D01*
X205930771Y-186385771D01*
X205645057Y-186385771D01*
X205502200Y-186314343D01*
X207502200Y-186314343D02*
X207359343Y-186385771D01*
X207073629Y-186385771D01*
X206930771Y-186314343D01*
X206859343Y-186242914D01*
X206787914Y-186100057D01*
X206787914Y-185671486D01*
X206859343Y-185528629D01*
X206930771Y-185457200D01*
X207073629Y-185385771D01*
X207359343Y-185385771D01*
X207502200Y-185457200D01*
X208145057Y-186385771D02*
X208145057Y-184885771D01*
X208145057Y-185457200D02*
X208287914Y-185385771D01*
X208573628Y-185385771D01*
X208716485Y-185457200D01*
X208787914Y-185528629D01*
X208859343Y-185671486D01*
X208859343Y-186100057D01*
X208787914Y-186242914D01*
X208716485Y-186314343D01*
X208573628Y-186385771D01*
X208287914Y-186385771D01*
X208145057Y-186314343D01*
D10*
D11*
X177002200Y-181507200D02*
X285002200Y-181507200D01*
D10*
D11*
X178287914Y-183614343D02*
X178502200Y-183685771D01*
X178859343Y-183685771D01*
X179002200Y-183614343D01*
X179073629Y-183542914D01*
X179145057Y-183400057D01*
X179145057Y-183257200D01*
X179073629Y-183114343D01*
X179002200Y-183042914D01*
X178859343Y-182971486D01*
X178573629Y-182900057D01*
X178430771Y-182828629D01*
X178359343Y-182757200D01*
X178287914Y-182614343D01*
X178287914Y-182471486D01*
X178359343Y-182328629D01*
X178430771Y-182257200D01*
X178573629Y-182185771D01*
X178930771Y-182185771D01*
X179145057Y-182257200D01*
X179787914Y-183685771D02*
X179787914Y-182185771D01*
X180430771Y-183685771D02*
X180430771Y-182900057D01*
X180359342Y-182757200D01*
X180216485Y-182685771D01*
X180002200Y-182685771D01*
X179859342Y-182757200D01*
X179787914Y-182828629D01*
X181716485Y-183614343D02*
X181573628Y-183685771D01*
X181287914Y-183685771D01*
X181145057Y-183614343D01*
X181073628Y-183471486D01*
X181073628Y-182900057D01*
X181145057Y-182757200D01*
X181287914Y-182685771D01*
X181573628Y-182685771D01*
X181716485Y-182757200D01*
X181787914Y-182900057D01*
X181787914Y-183042914D01*
X181073628Y-183185771D01*
X183002199Y-183614343D02*
X182859342Y-183685771D01*
X182573628Y-183685771D01*
X182430771Y-183614343D01*
X182359342Y-183471486D01*
X182359342Y-182900057D01*
X182430771Y-182757200D01*
X182573628Y-182685771D01*
X182859342Y-182685771D01*
X183002199Y-182757200D01*
X183073628Y-182900057D01*
X183073628Y-183042914D01*
X182359342Y-183185771D01*
X183502199Y-182685771D02*
X184073628Y-182685771D01*
X183716485Y-182185771D02*
X183716485Y-183471486D01*
X183787913Y-183614343D01*
X183930771Y-183685771D01*
X184073628Y-183685771D01*
X184573628Y-183542914D02*
X184645056Y-183614343D01*
X184573628Y-183685771D01*
X184502199Y-183614343D01*
X184573628Y-183542914D01*
X184573628Y-183685771D01*
X184573628Y-182757200D02*
X184645056Y-182828629D01*
X184573628Y-182900057D01*
X184502199Y-182828629D01*
X184573628Y-182757200D01*
X184573628Y-182900057D01*
D10*
D11*
X197002200Y-191507200D02*
X197002200Y-194507200D01*
D10*
D11*
X261002200Y-191507200D02*
X261002200Y-198007200D01*
D14*
X180016000Y-44290000D02*
X167216000Y-44290000D01*
X167216000Y-44290000D02*
X167216000Y-58090000D01*
X167216000Y-58090000D02*
X180016000Y-58090000D01*
X180016000Y-58090000D02*
X180016000Y-44290000D01*
D11*
X124658381Y-47767524D02*
X123658381Y-47767524D01*
X124563143Y-46719905D02*
X124610762Y-46767524D01*
X124658381Y-46910381D01*
X124658381Y-47005619D01*
X124610762Y-47148477D01*
X124515524Y-47243715D01*
X124420286Y-47291334D01*
X124229810Y-47338953D01*
X124086952Y-47338953D01*
X123896476Y-47291334D01*
X123801238Y-47243715D01*
X123706000Y-47148477D01*
X123658381Y-47005619D01*
X123658381Y-46910381D01*
X123706000Y-46767524D01*
X123753619Y-46719905D01*
X124658381Y-45815143D02*
X124658381Y-46291334D01*
X123658381Y-46291334D01*
X123658381Y-45577048D02*
X123658381Y-44910381D01*
X124658381Y-45338953D01*
X123658381Y-44100857D02*
X123658381Y-44291334D01*
X123706000Y-44386572D01*
X123753619Y-44434191D01*
X123896476Y-44529429D01*
X124086952Y-44577048D01*
X124467905Y-44577048D01*
X124563143Y-44529429D01*
X124610762Y-44481810D01*
X124658381Y-44386572D01*
X124658381Y-44196095D01*
X124610762Y-44100857D01*
X124563143Y-44053238D01*
X124467905Y-44005619D01*
X124229810Y-44005619D01*
X124134571Y-44053238D01*
X124086952Y-44100857D01*
X124039333Y-44196095D01*
X124039333Y-44386572D01*
X124086952Y-44481810D01*
X124134571Y-44529429D01*
X124229810Y-44577048D01*
X123658381Y-43148476D02*
X123658381Y-43338953D01*
X123706000Y-43434191D01*
X123753619Y-43481810D01*
X123896476Y-43577048D01*
X124086952Y-43624667D01*
X124467905Y-43624667D01*
X124563143Y-43577048D01*
X124610762Y-43529429D01*
X124658381Y-43434191D01*
X124658381Y-43243714D01*
X124610762Y-43148476D01*
X124563143Y-43100857D01*
X124467905Y-43053238D01*
X124229810Y-43053238D01*
X124134571Y-43100857D01*
X124086952Y-43148476D01*
X124039333Y-43243714D01*
X124039333Y-43434191D01*
X124086952Y-43529429D01*
X124134571Y-43577048D01*
X124229810Y-43624667D01*
X123658381Y-42434191D02*
X123658381Y-42338952D01*
X123706000Y-42243714D01*
X123753619Y-42196095D01*
X123848857Y-42148476D01*
X124039333Y-42100857D01*
X124277429Y-42100857D01*
X124467905Y-42148476D01*
X124563143Y-42196095D01*
X124610762Y-42243714D01*
X124658381Y-42338952D01*
X124658381Y-42434191D01*
X124610762Y-42529429D01*
X124563143Y-42577048D01*
X124467905Y-42624667D01*
X124277429Y-42672286D01*
X124039333Y-42672286D01*
X123848857Y-42624667D01*
X123753619Y-42577048D01*
X123706000Y-42529429D01*
X123658381Y-42434191D01*
X115260381Y-47918666D02*
X115260381Y-48490095D01*
X115260381Y-48204381D02*
X114260381Y-48204381D01*
X114403238Y-48299619D01*
X114498476Y-48394857D01*
X114546095Y-48490095D01*
X114593714Y-47061523D02*
X115260381Y-47061523D01*
X114593714Y-47490095D02*
X115117524Y-47490095D01*
X115212762Y-47442476D01*
X115260381Y-47347238D01*
X115260381Y-47204380D01*
X115212762Y-47109142D01*
X115165143Y-47061523D01*
X115260381Y-56554666D02*
X115260381Y-57126095D01*
X115260381Y-56840381D02*
X114260381Y-56840381D01*
X114403238Y-56935619D01*
X114498476Y-57030857D01*
X114546095Y-57126095D01*
X114593714Y-55697523D02*
X115260381Y-55697523D01*
X114593714Y-56126095D02*
X115117524Y-56126095D01*
X115212762Y-56078476D01*
X115260381Y-55983238D01*
X115260381Y-55840380D01*
X115212762Y-55745142D01*
X115165143Y-55697523D01*
X121356381Y-56554666D02*
X121356381Y-57126095D01*
X121356381Y-56840381D02*
X120356381Y-56840381D01*
X120499238Y-56935619D01*
X120594476Y-57030857D01*
X120642095Y-57126095D01*
X120689714Y-55697523D02*
X121356381Y-55697523D01*
X120689714Y-56126095D02*
X121213524Y-56126095D01*
X121308762Y-56078476D01*
X121356381Y-55983238D01*
X121356381Y-55840380D01*
X121308762Y-55745142D01*
X121261143Y-55697523D01*
X127452381Y-56554666D02*
X127452381Y-57126095D01*
X127452381Y-56840381D02*
X126452381Y-56840381D01*
X126595238Y-56935619D01*
X126690476Y-57030857D01*
X126738095Y-57126095D01*
X126785714Y-55697523D02*
X127452381Y-55697523D01*
X126785714Y-56126095D02*
X127309524Y-56126095D01*
X127404762Y-56078476D01*
X127452381Y-55983238D01*
X127452381Y-55840380D01*
X127404762Y-55745142D01*
X127357143Y-55697523D01*
X132643714Y-87939619D02*
X132691333Y-87892000D01*
X132786571Y-87844381D01*
X133024667Y-87844381D01*
X133119905Y-87892000D01*
X133167524Y-87939619D01*
X133215143Y-88034857D01*
X133215143Y-88130095D01*
X133167524Y-88272952D01*
X132596095Y-88844381D01*
X133215143Y-88844381D01*
X133596095Y-87939619D02*
X133643714Y-87892000D01*
X133738952Y-87844381D01*
X133977048Y-87844381D01*
X134072286Y-87892000D01*
X134119905Y-87939619D01*
X134167524Y-88034857D01*
X134167524Y-88130095D01*
X134119905Y-88272952D01*
X133548476Y-88844381D01*
X134167524Y-88844381D01*
X134596095Y-88177714D02*
X134596095Y-89177714D01*
X134596095Y-88225333D02*
X134691333Y-88177714D01*
X134881810Y-88177714D01*
X134977048Y-88225333D01*
X135024667Y-88272952D01*
X135072286Y-88368190D01*
X135072286Y-88653905D01*
X135024667Y-88749143D01*
X134977048Y-88796762D01*
X134881810Y-88844381D01*
X134691333Y-88844381D01*
X134596095Y-88796762D01*
X153471714Y-87939619D02*
X153519333Y-87892000D01*
X153614571Y-87844381D01*
X153852667Y-87844381D01*
X153947905Y-87892000D01*
X153995524Y-87939619D01*
X154043143Y-88034857D01*
X154043143Y-88130095D01*
X153995524Y-88272952D01*
X153424095Y-88844381D01*
X154043143Y-88844381D01*
X154424095Y-87939619D02*
X154471714Y-87892000D01*
X154566952Y-87844381D01*
X154805048Y-87844381D01*
X154900286Y-87892000D01*
X154947905Y-87939619D01*
X154995524Y-88034857D01*
X154995524Y-88130095D01*
X154947905Y-88272952D01*
X154376476Y-88844381D01*
X154995524Y-88844381D01*
X155424095Y-88177714D02*
X155424095Y-89177714D01*
X155424095Y-88225333D02*
X155519333Y-88177714D01*
X155709810Y-88177714D01*
X155805048Y-88225333D01*
X155852667Y-88272952D01*
X155900286Y-88368190D01*
X155900286Y-88653905D01*
X155852667Y-88749143D01*
X155805048Y-88796762D01*
X155709810Y-88844381D01*
X155519333Y-88844381D01*
X155424095Y-88796762D01*
X111958381Y-80684666D02*
X111958381Y-81256095D01*
X111958381Y-80970381D02*
X110958381Y-80970381D01*
X111101238Y-81065619D01*
X111196476Y-81160857D01*
X111244095Y-81256095D01*
X111291714Y-79827523D02*
X111958381Y-79827523D01*
X111291714Y-80256095D02*
X111815524Y-80256095D01*
X111910762Y-80208476D01*
X111958381Y-80113238D01*
X111958381Y-79970380D01*
X111910762Y-79875142D01*
X111863143Y-79827523D01*
X140406381Y-57507047D02*
X140406381Y-58078476D01*
X140406381Y-57792762D02*
X139406381Y-57792762D01*
X139549238Y-57888000D01*
X139644476Y-57983238D01*
X139692095Y-58078476D01*
X139406381Y-56888000D02*
X139406381Y-56792761D01*
X139454000Y-56697523D01*
X139501619Y-56649904D01*
X139596857Y-56602285D01*
X139787333Y-56554666D01*
X140025429Y-56554666D01*
X140215905Y-56602285D01*
X140311143Y-56649904D01*
X140358762Y-56697523D01*
X140406381Y-56792761D01*
X140406381Y-56888000D01*
X140358762Y-56983238D01*
X140311143Y-57030857D01*
X140215905Y-57078476D01*
X140025429Y-57126095D01*
X139787333Y-57126095D01*
X139596857Y-57078476D01*
X139501619Y-57030857D01*
X139454000Y-56983238D01*
X139406381Y-56888000D01*
X139406381Y-55935619D02*
X139406381Y-55840380D01*
X139454000Y-55745142D01*
X139501619Y-55697523D01*
X139596857Y-55649904D01*
X139787333Y-55602285D01*
X140025429Y-55602285D01*
X140215905Y-55649904D01*
X140311143Y-55697523D01*
X140358762Y-55745142D01*
X140406381Y-55840380D01*
X140406381Y-55935619D01*
X140358762Y-56030857D01*
X140311143Y-56078476D01*
X140215905Y-56126095D01*
X140025429Y-56173714D01*
X139787333Y-56173714D01*
X139596857Y-56126095D01*
X139501619Y-56078476D01*
X139454000Y-56030857D01*
X139406381Y-55935619D01*
X139739714Y-55173714D02*
X140406381Y-55173714D01*
X139834952Y-55173714D02*
X139787333Y-55126095D01*
X139739714Y-55030857D01*
X139739714Y-54887999D01*
X139787333Y-54792761D01*
X139882571Y-54745142D01*
X140406381Y-54745142D01*
X133294381Y-57507047D02*
X133294381Y-58078476D01*
X133294381Y-57792762D02*
X132294381Y-57792762D01*
X132437238Y-57888000D01*
X132532476Y-57983238D01*
X132580095Y-58078476D01*
X132294381Y-56888000D02*
X132294381Y-56792761D01*
X132342000Y-56697523D01*
X132389619Y-56649904D01*
X132484857Y-56602285D01*
X132675333Y-56554666D01*
X132913429Y-56554666D01*
X133103905Y-56602285D01*
X133199143Y-56649904D01*
X133246762Y-56697523D01*
X133294381Y-56792761D01*
X133294381Y-56888000D01*
X133246762Y-56983238D01*
X133199143Y-57030857D01*
X133103905Y-57078476D01*
X132913429Y-57126095D01*
X132675333Y-57126095D01*
X132484857Y-57078476D01*
X132389619Y-57030857D01*
X132342000Y-56983238D01*
X132294381Y-56888000D01*
X132294381Y-55935619D02*
X132294381Y-55840380D01*
X132342000Y-55745142D01*
X132389619Y-55697523D01*
X132484857Y-55649904D01*
X132675333Y-55602285D01*
X132913429Y-55602285D01*
X133103905Y-55649904D01*
X133199143Y-55697523D01*
X133246762Y-55745142D01*
X133294381Y-55840380D01*
X133294381Y-55935619D01*
X133246762Y-56030857D01*
X133199143Y-56078476D01*
X133103905Y-56126095D01*
X132913429Y-56173714D01*
X132675333Y-56173714D01*
X132484857Y-56126095D01*
X132389619Y-56078476D01*
X132342000Y-56030857D01*
X132294381Y-55935619D01*
X132627714Y-55173714D02*
X133294381Y-55173714D01*
X132722952Y-55173714D02*
X132675333Y-55126095D01*
X132627714Y-55030857D01*
X132627714Y-54887999D01*
X132675333Y-54792761D01*
X132770571Y-54745142D01*
X133294381Y-54745142D01*
X169568953Y-66492381D02*
X168997524Y-66492381D01*
X169283238Y-66492381D02*
X169283238Y-65492381D01*
X169188000Y-65635238D01*
X169092762Y-65730476D01*
X168997524Y-65778095D01*
X170188000Y-65492381D02*
X170283239Y-65492381D01*
X170378477Y-65540000D01*
X170426096Y-65587619D01*
X170473715Y-65682857D01*
X170521334Y-65873333D01*
X170521334Y-66111429D01*
X170473715Y-66301905D01*
X170426096Y-66397143D01*
X170378477Y-66444762D01*
X170283239Y-66492381D01*
X170188000Y-66492381D01*
X170092762Y-66444762D01*
X170045143Y-66397143D01*
X169997524Y-66301905D01*
X169949905Y-66111429D01*
X169949905Y-65873333D01*
X169997524Y-65682857D01*
X170045143Y-65587619D01*
X170092762Y-65540000D01*
X170188000Y-65492381D01*
X171140381Y-65492381D02*
X171235620Y-65492381D01*
X171330858Y-65540000D01*
X171378477Y-65587619D01*
X171426096Y-65682857D01*
X171473715Y-65873333D01*
X171473715Y-66111429D01*
X171426096Y-66301905D01*
X171378477Y-66397143D01*
X171330858Y-66444762D01*
X171235620Y-66492381D01*
X171140381Y-66492381D01*
X171045143Y-66444762D01*
X170997524Y-66397143D01*
X170949905Y-66301905D01*
X170902286Y-66111429D01*
X170902286Y-65873333D01*
X170949905Y-65682857D01*
X170997524Y-65587619D01*
X171045143Y-65540000D01*
X171140381Y-65492381D01*
X171902286Y-65825714D02*
X171902286Y-66492381D01*
X171902286Y-65920952D02*
X171949905Y-65873333D01*
X172045143Y-65825714D01*
X172188001Y-65825714D01*
X172283239Y-65873333D01*
X172330858Y-65968571D01*
X172330858Y-66492381D01*
X115022572Y-63444381D02*
X114451143Y-63444381D01*
X114736857Y-63444381D02*
X114736857Y-62444381D01*
X114641619Y-62587238D01*
X114546381Y-62682476D01*
X114451143Y-62730095D01*
X115451143Y-62777714D02*
X115451143Y-63444381D01*
X115451143Y-62872952D02*
X115498762Y-62825333D01*
X115594000Y-62777714D01*
X115736858Y-62777714D01*
X115832096Y-62825333D01*
X115879715Y-62920571D01*
X115879715Y-63444381D01*
X116784477Y-62777714D02*
X116784477Y-63444381D01*
X116546381Y-62396762D02*
X116308286Y-63111048D01*
X116927334Y-63111048D01*
X117498762Y-62444381D02*
X117594001Y-62444381D01*
X117689239Y-62492000D01*
X117736858Y-62539619D01*
X117784477Y-62634857D01*
X117832096Y-62825333D01*
X117832096Y-63063429D01*
X117784477Y-63253905D01*
X117736858Y-63349143D01*
X117689239Y-63396762D01*
X117594001Y-63444381D01*
X117498762Y-63444381D01*
X117403524Y-63396762D01*
X117355905Y-63349143D01*
X117308286Y-63253905D01*
X117260667Y-63063429D01*
X117260667Y-62825333D01*
X117308286Y-62634857D01*
X117355905Y-62539619D01*
X117403524Y-62492000D01*
X117498762Y-62444381D01*
X118451143Y-62444381D02*
X118546382Y-62444381D01*
X118641620Y-62492000D01*
X118689239Y-62539619D01*
X118736858Y-62634857D01*
X118784477Y-62825333D01*
X118784477Y-63063429D01*
X118736858Y-63253905D01*
X118689239Y-63349143D01*
X118641620Y-63396762D01*
X118546382Y-63444381D01*
X118451143Y-63444381D01*
X118355905Y-63396762D01*
X118308286Y-63349143D01*
X118260667Y-63253905D01*
X118213048Y-63063429D01*
X118213048Y-62825333D01*
X118260667Y-62634857D01*
X118308286Y-62539619D01*
X118355905Y-62492000D01*
X118451143Y-62444381D01*
X119117810Y-62444381D02*
X119784477Y-62444381D01*
X119355905Y-63444381D01*
X125182572Y-63444381D02*
X124611143Y-63444381D01*
X124896857Y-63444381D02*
X124896857Y-62444381D01*
X124801619Y-62587238D01*
X124706381Y-62682476D01*
X124611143Y-62730095D01*
X125611143Y-62777714D02*
X125611143Y-63444381D01*
X125611143Y-62872952D02*
X125658762Y-62825333D01*
X125754000Y-62777714D01*
X125896858Y-62777714D01*
X125992096Y-62825333D01*
X126039715Y-62920571D01*
X126039715Y-63444381D01*
X126944477Y-62777714D02*
X126944477Y-63444381D01*
X126706381Y-62396762D02*
X126468286Y-63111048D01*
X127087334Y-63111048D01*
X127658762Y-62444381D02*
X127754001Y-62444381D01*
X127849239Y-62492000D01*
X127896858Y-62539619D01*
X127944477Y-62634857D01*
X127992096Y-62825333D01*
X127992096Y-63063429D01*
X127944477Y-63253905D01*
X127896858Y-63349143D01*
X127849239Y-63396762D01*
X127754001Y-63444381D01*
X127658762Y-63444381D01*
X127563524Y-63396762D01*
X127515905Y-63349143D01*
X127468286Y-63253905D01*
X127420667Y-63063429D01*
X127420667Y-62825333D01*
X127468286Y-62634857D01*
X127515905Y-62539619D01*
X127563524Y-62492000D01*
X127658762Y-62444381D01*
X128611143Y-62444381D02*
X128706382Y-62444381D01*
X128801620Y-62492000D01*
X128849239Y-62539619D01*
X128896858Y-62634857D01*
X128944477Y-62825333D01*
X128944477Y-63063429D01*
X128896858Y-63253905D01*
X128849239Y-63349143D01*
X128801620Y-63396762D01*
X128706382Y-63444381D01*
X128611143Y-63444381D01*
X128515905Y-63396762D01*
X128468286Y-63349143D01*
X128420667Y-63253905D01*
X128373048Y-63063429D01*
X128373048Y-62825333D01*
X128420667Y-62634857D01*
X128468286Y-62539619D01*
X128515905Y-62492000D01*
X128611143Y-62444381D01*
X129277810Y-62444381D02*
X129944477Y-62444381D01*
X129515905Y-63444381D01*
X133310952Y-70524667D02*
X133787143Y-70524667D01*
X133215714Y-70810381D02*
X133549047Y-69810381D01*
X133882381Y-70810381D01*
X134072857Y-69810381D02*
X134644286Y-69810381D01*
X134358571Y-70810381D02*
X134358571Y-69810381D01*
X134977619Y-70810381D02*
X134977619Y-69810381D01*
X135310953Y-70524667D01*
X135644286Y-69810381D01*
X135644286Y-70810381D01*
X136120476Y-70286571D02*
X136453810Y-70286571D01*
X136596667Y-70810381D02*
X136120476Y-70810381D01*
X136120476Y-69810381D01*
X136596667Y-69810381D01*
X137549048Y-69858000D02*
X137453810Y-69810381D01*
X137310953Y-69810381D01*
X137168095Y-69858000D01*
X137072857Y-69953238D01*
X137025238Y-70048476D01*
X136977619Y-70238952D01*
X136977619Y-70381810D01*
X137025238Y-70572286D01*
X137072857Y-70667524D01*
X137168095Y-70762762D01*
X137310953Y-70810381D01*
X137406191Y-70810381D01*
X137549048Y-70762762D01*
X137596667Y-70715143D01*
X137596667Y-70381810D01*
X137406191Y-70381810D01*
X137977619Y-70524667D02*
X138453810Y-70524667D01*
X137882381Y-70810381D02*
X138215714Y-69810381D01*
X138549048Y-70810381D01*
X138787143Y-69810381D02*
X139406191Y-69810381D01*
X139072857Y-70191333D01*
X139215715Y-70191333D01*
X139310953Y-70238952D01*
X139358572Y-70286571D01*
X139406191Y-70381810D01*
X139406191Y-70619905D01*
X139358572Y-70715143D01*
X139310953Y-70762762D01*
X139215715Y-70810381D01*
X138930000Y-70810381D01*
X138834762Y-70762762D01*
X138787143Y-70715143D01*
X139787143Y-69905619D02*
X139834762Y-69858000D01*
X139930000Y-69810381D01*
X140168096Y-69810381D01*
X140263334Y-69858000D01*
X140310953Y-69905619D01*
X140358572Y-70000857D01*
X140358572Y-70096095D01*
X140310953Y-70238952D01*
X139739524Y-70810381D01*
X140358572Y-70810381D01*
X140930000Y-70238952D02*
X140834762Y-70191333D01*
X140787143Y-70143714D01*
X140739524Y-70048476D01*
X140739524Y-70000857D01*
X140787143Y-69905619D01*
X140834762Y-69858000D01*
X140930000Y-69810381D01*
X141120477Y-69810381D01*
X141215715Y-69858000D01*
X141263334Y-69905619D01*
X141310953Y-70000857D01*
X141310953Y-70048476D01*
X141263334Y-70143714D01*
X141215715Y-70191333D01*
X141120477Y-70238952D01*
X140930000Y-70238952D01*
X140834762Y-70286571D01*
X140787143Y-70334190D01*
X140739524Y-70429429D01*
X140739524Y-70619905D01*
X140787143Y-70715143D01*
X140834762Y-70762762D01*
X140930000Y-70810381D01*
X141120477Y-70810381D01*
X141215715Y-70762762D01*
X141263334Y-70715143D01*
X141310953Y-70619905D01*
X141310953Y-70429429D01*
X141263334Y-70334190D01*
X141215715Y-70286571D01*
X141120477Y-70238952D01*
X141739524Y-70429429D02*
X142501429Y-70429429D01*
X142977619Y-70810381D02*
X142977619Y-69810381D01*
X143358572Y-69810381D01*
X143453810Y-69858000D01*
X143501429Y-69905619D01*
X143549048Y-70000857D01*
X143549048Y-70143714D01*
X143501429Y-70238952D01*
X143453810Y-70286571D01*
X143358572Y-70334190D01*
X142977619Y-70334190D01*
X120435810Y-88082381D02*
X120435810Y-87082381D01*
X120864381Y-88034762D02*
X121007238Y-88082381D01*
X121245334Y-88082381D01*
X121340572Y-88034762D01*
X121388191Y-87987143D01*
X121435810Y-87891905D01*
X121435810Y-87796667D01*
X121388191Y-87701429D01*
X121340572Y-87653810D01*
X121245334Y-87606190D01*
X121054857Y-87558571D01*
X120959619Y-87510952D01*
X120912000Y-87463333D01*
X120864381Y-87368095D01*
X120864381Y-87272857D01*
X120912000Y-87177619D01*
X120959619Y-87130000D01*
X121054857Y-87082381D01*
X121292953Y-87082381D01*
X121435810Y-87130000D01*
X121864381Y-88082381D02*
X121864381Y-87082381D01*
X122245334Y-87082381D01*
X122340572Y-87130000D01*
X122388191Y-87177619D01*
X122435810Y-87272857D01*
X122435810Y-87415714D01*
X122388191Y-87510952D01*
X122340572Y-87558571D01*
X122245334Y-87606190D01*
X121864381Y-87606190D01*
X125833809Y-83256381D02*
X125833809Y-82256381D01*
X126071904Y-82256381D01*
X126214762Y-82304000D01*
X126310000Y-82399238D01*
X126357619Y-82494476D01*
X126405238Y-82684952D01*
X126405238Y-82827810D01*
X126357619Y-83018286D01*
X126310000Y-83113524D01*
X126214762Y-83208762D01*
X126071904Y-83256381D01*
X125833809Y-83256381D01*
X126833809Y-82732571D02*
X127167143Y-82732571D01*
X127310000Y-83256381D02*
X126833809Y-83256381D01*
X126833809Y-82256381D01*
X127310000Y-82256381D01*
X128071905Y-82732571D02*
X128214762Y-82780190D01*
X128262381Y-82827810D01*
X128310000Y-82923048D01*
X128310000Y-83065905D01*
X128262381Y-83161143D01*
X128214762Y-83208762D01*
X128119524Y-83256381D01*
X127738571Y-83256381D01*
X127738571Y-82256381D01*
X128071905Y-82256381D01*
X128167143Y-82304000D01*
X128214762Y-82351619D01*
X128262381Y-82446857D01*
X128262381Y-82542095D01*
X128214762Y-82637333D01*
X128167143Y-82684952D01*
X128071905Y-82732571D01*
X127738571Y-82732571D01*
X128738571Y-82256381D02*
X128738571Y-83065905D01*
X128786190Y-83161143D01*
X128833809Y-83208762D01*
X128929047Y-83256381D01*
X129119524Y-83256381D01*
X129214762Y-83208762D01*
X129262381Y-83161143D01*
X129310000Y-83065905D01*
X129310000Y-82256381D01*
X130310000Y-82304000D02*
X130214762Y-82256381D01*
X130071905Y-82256381D01*
X129929047Y-82304000D01*
X129833809Y-82399238D01*
X129786190Y-82494476D01*
X129738571Y-82684952D01*
X129738571Y-82827810D01*
X129786190Y-83018286D01*
X129833809Y-83113524D01*
X129929047Y-83208762D01*
X130071905Y-83256381D01*
X130167143Y-83256381D01*
X130310000Y-83208762D01*
X130357619Y-83161143D01*
X130357619Y-82827810D01*
X130167143Y-82827810D01*
X131405238Y-82256381D02*
X131976667Y-82256381D01*
X131690952Y-83256381D02*
X131690952Y-82256381D01*
X132214762Y-82256381D02*
X132881429Y-83256381D01*
X132881429Y-82256381D02*
X132214762Y-83256381D01*
X133976667Y-82208762D02*
X133119524Y-83494476D01*
X134881429Y-83256381D02*
X134548095Y-82780190D01*
X134310000Y-83256381D02*
X134310000Y-82256381D01*
X134690953Y-82256381D01*
X134786191Y-82304000D01*
X134833810Y-82351619D01*
X134881429Y-82446857D01*
X134881429Y-82589714D01*
X134833810Y-82684952D01*
X134786191Y-82732571D01*
X134690953Y-82780190D01*
X134310000Y-82780190D01*
X135214762Y-82256381D02*
X135881429Y-83256381D01*
X135881429Y-82256381D02*
X135214762Y-83256381D01*
X175871143Y-78493619D02*
X175918762Y-78541238D01*
X175966381Y-78684095D01*
X175966381Y-78779333D01*
X175918762Y-78922191D01*
X175823524Y-79017429D01*
X175728286Y-79065048D01*
X175537810Y-79112667D01*
X175394952Y-79112667D01*
X175204476Y-79065048D01*
X175109238Y-79017429D01*
X175014000Y-78922191D01*
X174966381Y-78779333D01*
X174966381Y-78684095D01*
X175014000Y-78541238D01*
X175061619Y-78493619D01*
X174966381Y-77874572D02*
X174966381Y-77684095D01*
X175014000Y-77588857D01*
X175109238Y-77493619D01*
X175299714Y-77446000D01*
X175633048Y-77446000D01*
X175823524Y-77493619D01*
X175918762Y-77588857D01*
X175966381Y-77684095D01*
X175966381Y-77874572D01*
X175918762Y-77969810D01*
X175823524Y-78065048D01*
X175633048Y-78112667D01*
X175299714Y-78112667D01*
X175109238Y-78065048D01*
X175014000Y-77969810D01*
X174966381Y-77874572D01*
X175966381Y-77017429D02*
X174966381Y-77017429D01*
X175966381Y-76446000D01*
X174966381Y-76446000D01*
X174966381Y-76112667D02*
X174966381Y-75541238D01*
X175966381Y-75826953D02*
X174966381Y-75826953D01*
X175966381Y-74636476D02*
X175490190Y-74969810D01*
X175966381Y-75207905D02*
X174966381Y-75207905D01*
X174966381Y-74826952D01*
X175014000Y-74731714D01*
X175061619Y-74684095D01*
X175156857Y-74636476D01*
X175299714Y-74636476D01*
X175394952Y-74684095D01*
X175442571Y-74731714D01*
X175490190Y-74826952D01*
X175490190Y-75207905D01*
X174966381Y-74017429D02*
X174966381Y-73826952D01*
X175014000Y-73731714D01*
X175109238Y-73636476D01*
X175299714Y-73588857D01*
X175633048Y-73588857D01*
X175823524Y-73636476D01*
X175918762Y-73731714D01*
X175966381Y-73826952D01*
X175966381Y-74017429D01*
X175918762Y-74112667D01*
X175823524Y-74207905D01*
X175633048Y-74255524D01*
X175299714Y-74255524D01*
X175109238Y-74207905D01*
X175014000Y-74112667D01*
X174966381Y-74017429D01*
X175966381Y-72684095D02*
X175966381Y-73160286D01*
X174966381Y-73160286D01*
X172410381Y-55030190D02*
X171410381Y-55030190D01*
X172124667Y-54696856D01*
X171410381Y-54363523D01*
X172410381Y-54363523D01*
X172124667Y-53934952D02*
X172124667Y-53458761D01*
X172410381Y-54030190D02*
X171410381Y-53696857D01*
X172410381Y-53363523D01*
X172410381Y-53030190D02*
X171410381Y-53030190D01*
X172410381Y-52554000D02*
X171410381Y-52554000D01*
X172410381Y-51982571D01*
X171410381Y-51982571D01*
X172505619Y-51744476D02*
X172505619Y-50982571D01*
X172315143Y-50173047D02*
X172362762Y-50220666D01*
X172410381Y-50363523D01*
X172410381Y-50458761D01*
X172362762Y-50601619D01*
X172267524Y-50696857D01*
X172172286Y-50744476D01*
X171981810Y-50792095D01*
X171838952Y-50792095D01*
X171648476Y-50744476D01*
X171553238Y-50696857D01*
X171458000Y-50601619D01*
X171410381Y-50458761D01*
X171410381Y-50363523D01*
X171458000Y-50220666D01*
X171505619Y-50173047D01*
X171410381Y-49554000D02*
X171410381Y-49363523D01*
X171458000Y-49268285D01*
X171553238Y-49173047D01*
X171743714Y-49125428D01*
X172077048Y-49125428D01*
X172267524Y-49173047D01*
X172362762Y-49268285D01*
X172410381Y-49363523D01*
X172410381Y-49554000D01*
X172362762Y-49649238D01*
X172267524Y-49744476D01*
X172077048Y-49792095D01*
X171743714Y-49792095D01*
X171553238Y-49744476D01*
X171458000Y-49649238D01*
X171410381Y-49554000D01*
X172410381Y-48696857D02*
X171410381Y-48696857D01*
X172410381Y-48125428D01*
X171410381Y-48125428D01*
X172410381Y-47649238D02*
X171410381Y-47649238D01*
X172410381Y-47077809D01*
X171410381Y-47077809D01*
X161615381Y-77049238D02*
X161615381Y-77620667D01*
X161615381Y-77334953D02*
X160615381Y-77334953D01*
X160758238Y-77430191D01*
X160853476Y-77525429D01*
X160901095Y-77620667D01*
X160615381Y-76430191D02*
X160615381Y-76334952D01*
X160663000Y-76239714D01*
X160710619Y-76192095D01*
X160805857Y-76144476D01*
X160996333Y-76096857D01*
X161234429Y-76096857D01*
X161424905Y-76144476D01*
X161520143Y-76192095D01*
X161567762Y-76239714D01*
X161615381Y-76334952D01*
X161615381Y-76430191D01*
X161567762Y-76525429D01*
X161520143Y-76573048D01*
X161424905Y-76620667D01*
X161234429Y-76668286D01*
X160996333Y-76668286D01*
X160805857Y-76620667D01*
X160710619Y-76573048D01*
X160663000Y-76525429D01*
X160615381Y-76430191D01*
X161615381Y-75668286D02*
X160615381Y-75668286D01*
X161234429Y-75573048D02*
X161615381Y-75287333D01*
X160948714Y-75287333D02*
X161329667Y-75668286D01*
X153670096Y-77636714D02*
X153670096Y-78303381D01*
X153432000Y-77255762D02*
X153193905Y-77970048D01*
X153812953Y-77970048D01*
X154098667Y-77303381D02*
X154765334Y-77303381D01*
X154336762Y-78303381D01*
X155336762Y-77303381D02*
X155432001Y-77303381D01*
X155527239Y-77351000D01*
X155574858Y-77398619D01*
X155622477Y-77493857D01*
X155670096Y-77684333D01*
X155670096Y-77922429D01*
X155622477Y-78112905D01*
X155574858Y-78208143D01*
X155527239Y-78255762D01*
X155432001Y-78303381D01*
X155336762Y-78303381D01*
X155241524Y-78255762D01*
X155193905Y-78208143D01*
X155146286Y-78112905D01*
X155098667Y-77922429D01*
X155098667Y-77684333D01*
X155146286Y-77493857D01*
X155193905Y-77398619D01*
X155241524Y-77351000D01*
X155336762Y-77303381D01*
X153670096Y-80430714D02*
X153670096Y-81097381D01*
X153432000Y-80049762D02*
X153193905Y-80764048D01*
X153812953Y-80764048D01*
X154098667Y-80097381D02*
X154765334Y-80097381D01*
X154336762Y-81097381D01*
X155336762Y-80097381D02*
X155432001Y-80097381D01*
X155527239Y-80145000D01*
X155574858Y-80192619D01*
X155622477Y-80287857D01*
X155670096Y-80478333D01*
X155670096Y-80716429D01*
X155622477Y-80906905D01*
X155574858Y-81002143D01*
X155527239Y-81049762D01*
X155432001Y-81097381D01*
X155336762Y-81097381D01*
X155241524Y-81049762D01*
X155193905Y-81002143D01*
X155146286Y-80906905D01*
X155098667Y-80716429D01*
X155098667Y-80478333D01*
X155146286Y-80287857D01*
X155193905Y-80192619D01*
X155241524Y-80145000D01*
X155336762Y-80097381D01*
X115133381Y-70953238D02*
X115133381Y-71524667D01*
X115133381Y-71238953D02*
X114133381Y-71238953D01*
X114276238Y-71334191D01*
X114371476Y-71429429D01*
X114419095Y-71524667D01*
X114133381Y-70334191D02*
X114133381Y-70238952D01*
X114181000Y-70143714D01*
X114228619Y-70096095D01*
X114323857Y-70048476D01*
X114514333Y-70000857D01*
X114752429Y-70000857D01*
X114942905Y-70048476D01*
X115038143Y-70096095D01*
X115085762Y-70143714D01*
X115133381Y-70238952D01*
X115133381Y-70334191D01*
X115085762Y-70429429D01*
X115038143Y-70477048D01*
X114942905Y-70524667D01*
X114752429Y-70572286D01*
X114514333Y-70572286D01*
X114323857Y-70524667D01*
X114228619Y-70477048D01*
X114181000Y-70429429D01*
X114133381Y-70334191D01*
X115133381Y-69572286D02*
X114133381Y-69572286D01*
X114752429Y-69477048D02*
X115133381Y-69191333D01*
X114466714Y-69191333D02*
X114847667Y-69572286D01*
X164409381Y-77049238D02*
X164409381Y-77620667D01*
X164409381Y-77334953D02*
X163409381Y-77334953D01*
X163552238Y-77430191D01*
X163647476Y-77525429D01*
X163695095Y-77620667D01*
X163409381Y-76430191D02*
X163409381Y-76334952D01*
X163457000Y-76239714D01*
X163504619Y-76192095D01*
X163599857Y-76144476D01*
X163790333Y-76096857D01*
X164028429Y-76096857D01*
X164218905Y-76144476D01*
X164314143Y-76192095D01*
X164361762Y-76239714D01*
X164409381Y-76334952D01*
X164409381Y-76430191D01*
X164361762Y-76525429D01*
X164314143Y-76573048D01*
X164218905Y-76620667D01*
X164028429Y-76668286D01*
X163790333Y-76668286D01*
X163599857Y-76620667D01*
X163504619Y-76573048D01*
X163457000Y-76525429D01*
X163409381Y-76430191D01*
X164409381Y-75668286D02*
X163409381Y-75668286D01*
X164028429Y-75573048D02*
X164409381Y-75287333D01*
X163742714Y-75287333D02*
X164123667Y-75668286D01*
X164663381Y-65619238D02*
X164663381Y-66190667D01*
X164663381Y-65904953D02*
X163663381Y-65904953D01*
X163806238Y-66000191D01*
X163901476Y-66095429D01*
X163949095Y-66190667D01*
X163663381Y-65000191D02*
X163663381Y-64904952D01*
X163711000Y-64809714D01*
X163758619Y-64762095D01*
X163853857Y-64714476D01*
X164044333Y-64666857D01*
X164282429Y-64666857D01*
X164472905Y-64714476D01*
X164568143Y-64762095D01*
X164615762Y-64809714D01*
X164663381Y-64904952D01*
X164663381Y-65000191D01*
X164615762Y-65095429D01*
X164568143Y-65143048D01*
X164472905Y-65190667D01*
X164282429Y-65238286D01*
X164044333Y-65238286D01*
X163853857Y-65190667D01*
X163758619Y-65143048D01*
X163711000Y-65095429D01*
X163663381Y-65000191D01*
X164663381Y-64238286D02*
X163663381Y-64238286D01*
X164282429Y-64143048D02*
X164663381Y-63857333D01*
X163996714Y-63857333D02*
X164377667Y-64238286D01*
X161615381Y-65619238D02*
X161615381Y-66190667D01*
X161615381Y-65904953D02*
X160615381Y-65904953D01*
X160758238Y-66000191D01*
X160853476Y-66095429D01*
X160901095Y-66190667D01*
X160615381Y-65000191D02*
X160615381Y-64904952D01*
X160663000Y-64809714D01*
X160710619Y-64762095D01*
X160805857Y-64714476D01*
X160996333Y-64666857D01*
X161234429Y-64666857D01*
X161424905Y-64714476D01*
X161520143Y-64762095D01*
X161567762Y-64809714D01*
X161615381Y-64904952D01*
X161615381Y-65000191D01*
X161567762Y-65095429D01*
X161520143Y-65143048D01*
X161424905Y-65190667D01*
X161234429Y-65238286D01*
X160996333Y-65238286D01*
X160805857Y-65190667D01*
X160710619Y-65143048D01*
X160663000Y-65095429D01*
X160615381Y-65000191D01*
X161615381Y-64238286D02*
X160615381Y-64238286D01*
X161234429Y-64143048D02*
X161615381Y-63857333D01*
X160948714Y-63857333D02*
X161329667Y-64238286D01*
X136977381Y-57237238D02*
X136977381Y-57808667D01*
X136977381Y-57522953D02*
X135977381Y-57522953D01*
X136120238Y-57618191D01*
X136215476Y-57713429D01*
X136263095Y-57808667D01*
X135977381Y-56618191D02*
X135977381Y-56522952D01*
X136025000Y-56427714D01*
X136072619Y-56380095D01*
X136167857Y-56332476D01*
X136358333Y-56284857D01*
X136596429Y-56284857D01*
X136786905Y-56332476D01*
X136882143Y-56380095D01*
X136929762Y-56427714D01*
X136977381Y-56522952D01*
X136977381Y-56618191D01*
X136929762Y-56713429D01*
X136882143Y-56761048D01*
X136786905Y-56808667D01*
X136596429Y-56856286D01*
X136358333Y-56856286D01*
X136167857Y-56808667D01*
X136072619Y-56761048D01*
X136025000Y-56713429D01*
X135977381Y-56618191D01*
X136977381Y-55856286D02*
X135977381Y-55856286D01*
X136596429Y-55761048D02*
X136977381Y-55475333D01*
X136310714Y-55475333D02*
X136691667Y-55856286D01*
X144089381Y-57237238D02*
X144089381Y-57808667D01*
X144089381Y-57522953D02*
X143089381Y-57522953D01*
X143232238Y-57618191D01*
X143327476Y-57713429D01*
X143375095Y-57808667D01*
X143089381Y-56618191D02*
X143089381Y-56522952D01*
X143137000Y-56427714D01*
X143184619Y-56380095D01*
X143279857Y-56332476D01*
X143470333Y-56284857D01*
X143708429Y-56284857D01*
X143898905Y-56332476D01*
X143994143Y-56380095D01*
X144041762Y-56427714D01*
X144089381Y-56522952D01*
X144089381Y-56618191D01*
X144041762Y-56713429D01*
X143994143Y-56761048D01*
X143898905Y-56808667D01*
X143708429Y-56856286D01*
X143470333Y-56856286D01*
X143279857Y-56808667D01*
X143184619Y-56761048D01*
X143137000Y-56713429D01*
X143089381Y-56618191D01*
X144089381Y-55856286D02*
X143089381Y-55856286D01*
X143708429Y-55761048D02*
X144089381Y-55475333D01*
X143422714Y-55475333D02*
X143803667Y-55856286D01*
X136596381Y-46648476D02*
X136596381Y-47124667D01*
X135596381Y-47124667D01*
X136596381Y-46315143D02*
X135596381Y-46315143D01*
X136310667Y-45981809D01*
X135596381Y-45648476D01*
X136596381Y-45648476D01*
X135596381Y-45267524D02*
X135596381Y-44648476D01*
X135977333Y-44981810D01*
X135977333Y-44838952D01*
X136024952Y-44743714D01*
X136072571Y-44696095D01*
X136167810Y-44648476D01*
X136405905Y-44648476D01*
X136501143Y-44696095D01*
X136548762Y-44743714D01*
X136596381Y-44838952D01*
X136596381Y-45124667D01*
X136548762Y-45219905D01*
X136501143Y-45267524D01*
X135596381Y-43743714D02*
X135596381Y-44219905D01*
X136072571Y-44267524D01*
X136024952Y-44219905D01*
X135977333Y-44124667D01*
X135977333Y-43886571D01*
X136024952Y-43791333D01*
X136072571Y-43743714D01*
X136167810Y-43696095D01*
X136405905Y-43696095D01*
X136501143Y-43743714D01*
X136548762Y-43791333D01*
X136596381Y-43886571D01*
X136596381Y-44124667D01*
X136548762Y-44219905D01*
X136501143Y-44267524D01*
X136024952Y-43124667D02*
X135977333Y-43219905D01*
X135929714Y-43267524D01*
X135834476Y-43315143D01*
X135786857Y-43315143D01*
X135691619Y-43267524D01*
X135644000Y-43219905D01*
X135596381Y-43124667D01*
X135596381Y-42934190D01*
X135644000Y-42838952D01*
X135691619Y-42791333D01*
X135786857Y-42743714D01*
X135834476Y-42743714D01*
X135929714Y-42791333D01*
X135977333Y-42838952D01*
X136024952Y-42934190D01*
X136024952Y-43124667D01*
X136072571Y-43219905D01*
X136120190Y-43267524D01*
X136215429Y-43315143D01*
X136405905Y-43315143D01*
X136501143Y-43267524D01*
X136548762Y-43219905D01*
X136596381Y-43124667D01*
X136596381Y-42934190D01*
X136548762Y-42838952D01*
X136501143Y-42791333D01*
X136405905Y-42743714D01*
X136215429Y-42743714D01*
X136120190Y-42791333D01*
X136072571Y-42838952D01*
X136024952Y-42934190D01*
X150153714Y-51530095D02*
X150820381Y-51530095D01*
X149772762Y-51768191D02*
X150487048Y-52006286D01*
X150487048Y-51387238D01*
X149820381Y-50815810D02*
X149820381Y-50720571D01*
X149868000Y-50625333D01*
X149915619Y-50577714D01*
X150010857Y-50530095D01*
X150201333Y-50482476D01*
X150439429Y-50482476D01*
X150629905Y-50530095D01*
X150725143Y-50577714D01*
X150772762Y-50625333D01*
X150820381Y-50720571D01*
X150820381Y-50815810D01*
X150772762Y-50911048D01*
X150725143Y-50958667D01*
X150629905Y-51006286D01*
X150439429Y-51053905D01*
X150201333Y-51053905D01*
X150010857Y-51006286D01*
X149915619Y-50958667D01*
X149868000Y-50911048D01*
X149820381Y-50815810D01*
X149820381Y-49577714D02*
X149820381Y-50053905D01*
X150296571Y-50101524D01*
X150248952Y-50053905D01*
X150201333Y-49958667D01*
X150201333Y-49720571D01*
X150248952Y-49625333D01*
X150296571Y-49577714D01*
X150391810Y-49530095D01*
X150629905Y-49530095D01*
X150725143Y-49577714D01*
X150772762Y-49625333D01*
X150820381Y-49720571D01*
X150820381Y-49958667D01*
X150772762Y-50053905D01*
X150725143Y-50101524D01*
X149915619Y-49149143D02*
X149868000Y-49101524D01*
X149820381Y-49006286D01*
X149820381Y-48768190D01*
X149868000Y-48672952D01*
X149915619Y-48625333D01*
X150010857Y-48577714D01*
X150106095Y-48577714D01*
X150248952Y-48625333D01*
X150820381Y-49196762D01*
X150820381Y-48577714D01*
X143732286Y-80843381D02*
X143160857Y-80843381D01*
X143446571Y-80843381D02*
X143446571Y-79843381D01*
X143351333Y-79986238D01*
X143256095Y-80081476D01*
X143160857Y-80129095D01*
X144160857Y-80843381D02*
X144160857Y-79843381D01*
X144494191Y-80557667D01*
X144827524Y-79843381D01*
X144827524Y-80843381D01*
X141962476Y-90273143D02*
X141914857Y-90320762D01*
X141772000Y-90368381D01*
X141676762Y-90368381D01*
X141533904Y-90320762D01*
X141438666Y-90225524D01*
X141391047Y-90130286D01*
X141343428Y-89939810D01*
X141343428Y-89796952D01*
X141391047Y-89606476D01*
X141438666Y-89511238D01*
X141533904Y-89416000D01*
X141676762Y-89368381D01*
X141772000Y-89368381D01*
X141914857Y-89416000D01*
X141962476Y-89463619D01*
X142962476Y-90368381D02*
X142629142Y-89892190D01*
X142391047Y-90368381D02*
X142391047Y-89368381D01*
X142772000Y-89368381D01*
X142867238Y-89416000D01*
X142914857Y-89463619D01*
X142962476Y-89558857D01*
X142962476Y-89701714D01*
X142914857Y-89796952D01*
X142867238Y-89844571D01*
X142772000Y-89892190D01*
X142391047Y-89892190D01*
X143581523Y-89892190D02*
X143581523Y-90368381D01*
X143248190Y-89368381D02*
X143581523Y-89892190D01*
X143914857Y-89368381D01*
X144200571Y-90320762D02*
X144343428Y-90368381D01*
X144581524Y-90368381D01*
X144676762Y-90320762D01*
X144724381Y-90273143D01*
X144772000Y-90177905D01*
X144772000Y-90082667D01*
X144724381Y-89987429D01*
X144676762Y-89939810D01*
X144581524Y-89892190D01*
X144391047Y-89844571D01*
X144295809Y-89796952D01*
X144248190Y-89749333D01*
X144200571Y-89654095D01*
X144200571Y-89558857D01*
X144248190Y-89463619D01*
X144295809Y-89416000D01*
X144391047Y-89368381D01*
X144629143Y-89368381D01*
X144772000Y-89416000D01*
X145057714Y-89368381D02*
X145629143Y-89368381D01*
X145343428Y-90368381D02*
X145343428Y-89368381D01*
X145914857Y-90082667D02*
X146391048Y-90082667D01*
X145819619Y-90368381D02*
X146152952Y-89368381D01*
X146486286Y-90368381D01*
X147295810Y-90368381D02*
X146819619Y-90368381D01*
X146819619Y-89368381D01*
M02*
