M48
;DRILL file {KiCad 4.0.2+e4-6225~38~ubuntu16.04.1-stable} date Sex 26 Ago 2016 11:34:38 BRT
;FORMAT={-:-/ absolute / metric / decimal}
FMAT,2
METRIC,TZ
T1C0.400
T2C0.762
T3C0.800
T4C0.813
T5C1.016
T6C1.200
T7C1.800
%
G90
G05
M71
T1
X140.776Y-70.454
T2
X141.478Y-86.36
X146.558Y-86.36
T3
X114.808Y-45.292
X114.808Y-50.292
X114.808Y-53.928
X114.808Y-58.928
X114.808Y-78.058
X114.808Y-83.058
X120.142Y-41.402
X120.142Y-43.942
X120.142Y-46.482
X120.142Y-49.022
X120.904Y-53.928
X120.904Y-58.928
X122.682Y-66.548
X122.682Y-74.168
X125.222Y-66.548
X125.222Y-74.168
X127.Y-53.928
X127.Y-58.928
X127.762Y-41.402
X127.762Y-43.942
X127.762Y-46.482
X127.762Y-49.022
X127.762Y-66.548
X127.762Y-74.168
X130.302Y-66.548
X130.302Y-74.168
X131.064Y-86.36
X132.588Y-41.402
X132.588Y-43.942
X132.588Y-46.482
X132.588Y-49.022
X132.842Y-53.928
X132.842Y-58.928
X132.842Y-66.548
X132.842Y-74.168
X135.382Y-66.548
X135.382Y-74.168
X136.064Y-86.36
X137.922Y-66.548
X137.922Y-74.168
X139.954Y-53.928
X139.954Y-58.928
X140.208Y-41.402
X140.208Y-43.942
X140.208Y-46.482
X140.208Y-49.022
X140.462Y-66.548
X140.462Y-74.168
X143.002Y-66.548
X143.002Y-74.168
X145.542Y-66.548
X145.542Y-74.168
X146.812Y-41.402
X146.812Y-43.942
X146.812Y-46.482
X146.812Y-49.022
X146.812Y-51.562
X146.812Y-54.102
X146.812Y-56.642
X146.812Y-59.182
X148.082Y-66.548
X148.082Y-74.168
X150.622Y-66.548
X150.622Y-74.168
X151.972Y-86.36
X153.162Y-66.548
X153.162Y-74.168
X154.432Y-41.402
X154.432Y-43.942
X154.432Y-46.482
X154.432Y-49.022
X154.432Y-51.562
X154.432Y-54.102
X154.432Y-56.642
X154.432Y-59.182
X155.702Y-66.548
X155.702Y-74.168
X156.972Y-86.36
X168.228Y-66.04
X173.228Y-66.04
T4
X113.284Y-62.992
X114.808Y-66.548
X114.808Y-74.168
X120.904Y-62.992
X123.444Y-62.992
X131.064Y-62.992
X136.398Y-52.832
X136.398Y-60.452
X140.208Y-80.264
X143.51Y-52.832
X143.51Y-60.452
X147.828Y-80.264
X150.622Y-77.978
X150.622Y-80.772
X158.242Y-77.978
X158.242Y-80.772
X161.036Y-61.214
X161.036Y-68.834
X161.036Y-72.644
X161.036Y-80.264
X164.084Y-61.214
X164.084Y-68.834
X164.084Y-72.644
X164.084Y-80.264
T5
X120.142Y-79.756
X120.142Y-82.296
X120.142Y-84.836
X122.682Y-79.756
X122.682Y-82.296
X122.682Y-84.836
X129.032Y-80.01
X131.572Y-80.01
T6
X170.942Y-71.263
X170.942Y-73.763
X170.942Y-76.263
X170.942Y-78.763
X170.942Y-81.28
T7
X160.616Y-46.99
X160.616Y-51.19
X160.616Y-55.39
X166.116Y-46.99
X166.116Y-51.19
X166.116Y-55.39
T0
M30
